<?xml version="1.0" encoding="utf-8"?>
<svg xmlns="http://www.w3.org/2000/svg" xmlns:xlink="http://www.w3.org/1999/xlink" width="235" height="145.25" viewBox="0 0 940 581">
<defs>
  <clipPath id="clip110">
    <rect x="0" y="0" width="940" height="581"/>
  </clipPath>
</defs>
<path clip-path="url(#clip110)" d="
M0 581 L940 581 L940 0 L0 0  Z
  " fill="#ffffff" fill-rule="evenodd" fill-opacity="1"/>
<defs>
  <clipPath id="clip111">
    <rect x="188" y="0" width="659" height="581"/>
  </clipPath>
</defs>
<path clip-path="url(#clip110)" d="
M118.809 490.365 L906.912 490.365 L906.912 33.0909 L118.809 33.0909  Z
  " fill="#ffffff" fill-rule="evenodd" fill-opacity="1"/>
<defs>
  <clipPath id="clip112">
    <rect x="118" y="33" width="789" height="458"/>
  </clipPath>
</defs>
<polyline clip-path="url(#clip112)" style="stroke:#000000; stroke-linecap:butt; stroke-linejoin:round; stroke-width:1.40085; stroke-opacity:0.1; fill:none" points="
  137.397,490.365 137.397,33.0909 
  "/>
<polyline clip-path="url(#clip112)" style="stroke:#000000; stroke-linecap:butt; stroke-linejoin:round; stroke-width:1.40085; stroke-opacity:0.1; fill:none" points="
  323.27,490.365 323.27,33.0909 
  "/>
<polyline clip-path="url(#clip112)" style="stroke:#000000; stroke-linecap:butt; stroke-linejoin:round; stroke-width:1.40085; stroke-opacity:0.1; fill:none" points="
  509.143,490.365 509.143,33.0909 
  "/>
<polyline clip-path="url(#clip112)" style="stroke:#000000; stroke-linecap:butt; stroke-linejoin:round; stroke-width:1.40085; stroke-opacity:0.1; fill:none" points="
  695.016,490.365 695.016,33.0909 
  "/>
<polyline clip-path="url(#clip112)" style="stroke:#000000; stroke-linecap:butt; stroke-linejoin:round; stroke-width:1.40085; stroke-opacity:0.1; fill:none" points="
  880.89,490.365 880.89,33.0909 
  "/>
<polyline clip-path="url(#clip110)" style="stroke:#000000; stroke-linecap:butt; stroke-linejoin:round; stroke-width:2.80169; stroke-opacity:1; fill:none" points="
  118.809,490.365 906.912,490.365 
  "/>
<polyline clip-path="url(#clip110)" style="stroke:#000000; stroke-linecap:butt; stroke-linejoin:round; stroke-width:2.80169; stroke-opacity:1; fill:none" points="
  137.397,490.365 137.397,471.455 
  "/>
<polyline clip-path="url(#clip110)" style="stroke:#000000; stroke-linecap:butt; stroke-linejoin:round; stroke-width:2.80169; stroke-opacity:1; fill:none" points="
  323.27,490.365 323.27,471.455 
  "/>
<polyline clip-path="url(#clip110)" style="stroke:#000000; stroke-linecap:butt; stroke-linejoin:round; stroke-width:2.80169; stroke-opacity:1; fill:none" points="
  509.143,490.365 509.143,471.455 
  "/>
<polyline clip-path="url(#clip110)" style="stroke:#000000; stroke-linecap:butt; stroke-linejoin:round; stroke-width:2.80169; stroke-opacity:1; fill:none" points="
  695.016,490.365 695.016,471.455 
  "/>
<polyline clip-path="url(#clip110)" style="stroke:#000000; stroke-linecap:butt; stroke-linejoin:round; stroke-width:2.80169; stroke-opacity:1; fill:none" points="
  880.89,490.365 880.89,471.455 
  "/>
<path clip-path="url(#clip110)" d="M137.397 505.067 Q135.184 505.067 134.063 507.252 Q132.956 509.422 132.956 513.792 Q132.956 518.147 134.063 520.332 Q135.184 522.503 137.397 522.503 Q139.624 522.503 140.73 520.332 Q141.851 518.147 141.851 513.792 Q141.851 509.422 140.73 507.252 Q139.624 505.067 137.397 505.067 M137.397 502.797 Q140.957 502.797 142.83 505.62 Q144.716 508.429 144.716 513.792 Q144.716 519.14 142.83 521.964 Q140.957 524.773 137.397 524.773 Q133.836 524.773 131.949 521.964 Q130.077 519.14 130.077 513.792 Q130.077 508.429 131.949 505.62 Q133.836 502.797 137.397 502.797 Z" fill="#000000" fill-rule="evenodd" fill-opacity="1" /><path clip-path="url(#clip110)" d="M307.765 503.18 L319.014 503.18 L319.014 505.592 L310.389 505.592 L310.389 510.784 Q311.014 510.572 311.638 510.472 Q312.262 510.359 312.886 510.359 Q316.432 510.359 318.503 512.302 Q320.575 514.246 320.575 517.566 Q320.575 520.985 318.447 522.886 Q316.319 524.773 312.446 524.773 Q311.113 524.773 309.723 524.546 Q308.347 524.319 306.871 523.865 L306.871 520.985 Q308.148 521.68 309.51 522.02 Q310.872 522.361 312.39 522.361 Q314.844 522.361 316.276 521.07 Q317.709 519.779 317.709 517.566 Q317.709 515.353 316.276 514.062 Q314.844 512.771 312.39 512.771 Q311.24 512.771 310.091 513.026 Q308.957 513.281 307.765 513.82 L307.765 503.18 Z" fill="#000000" fill-rule="evenodd" fill-opacity="1" /><path clip-path="url(#clip110)" d="M332.349 505.067 Q330.136 505.067 329.015 507.252 Q327.909 509.422 327.909 513.792 Q327.909 518.147 329.015 520.332 Q330.136 522.503 332.349 522.503 Q334.576 522.503 335.682 520.332 Q336.803 518.147 336.803 513.792 Q336.803 509.422 335.682 507.252 Q334.576 505.067 332.349 505.067 M332.349 502.797 Q335.909 502.797 337.782 505.62 Q339.668 508.429 339.668 513.792 Q339.668 519.14 337.782 521.964 Q335.909 524.773 332.349 524.773 Q328.788 524.773 326.901 521.964 Q325.029 519.14 325.029 513.792 Q325.029 508.429 326.901 505.62 Q328.788 502.797 332.349 502.797 Z" fill="#000000" fill-rule="evenodd" fill-opacity="1" /><path clip-path="url(#clip110)" d="M484.389 521.949 L489.071 521.949 L489.071 505.791 L483.978 506.812 L483.978 504.202 L489.042 503.18 L491.908 503.18 L491.908 521.949 L496.589 521.949 L496.589 524.361 L484.389 524.361 L484.389 521.949 Z" fill="#000000" fill-rule="evenodd" fill-opacity="1" /><path clip-path="url(#clip110)" d="M508.505 505.067 Q506.292 505.067 505.171 507.252 Q504.065 509.422 504.065 513.792 Q504.065 518.147 505.171 520.332 Q506.292 522.503 508.505 522.503 Q510.732 522.503 511.838 520.332 Q512.959 518.147 512.959 513.792 Q512.959 509.422 511.838 507.252 Q510.732 505.067 508.505 505.067 M508.505 502.797 Q512.065 502.797 513.938 505.62 Q515.824 508.429 515.824 513.792 Q515.824 519.14 513.938 521.964 Q512.065 524.773 508.505 524.773 Q504.944 524.773 503.057 521.964 Q501.185 519.14 501.185 513.792 Q501.185 508.429 503.057 505.62 Q504.944 502.797 508.505 502.797 Z" fill="#000000" fill-rule="evenodd" fill-opacity="1" /><path clip-path="url(#clip110)" d="M526.989 505.067 Q524.776 505.067 523.655 507.252 Q522.548 509.422 522.548 513.792 Q522.548 518.147 523.655 520.332 Q524.776 522.503 526.989 522.503 Q529.216 522.503 530.322 520.332 Q531.443 518.147 531.443 513.792 Q531.443 509.422 530.322 507.252 Q529.216 505.067 526.989 505.067 M526.989 502.797 Q530.549 502.797 532.422 505.62 Q534.308 508.429 534.308 513.792 Q534.308 519.14 532.422 521.964 Q530.549 524.773 526.989 524.773 Q523.428 524.773 521.541 521.964 Q519.669 519.14 519.669 513.792 Q519.669 508.429 521.541 505.62 Q523.428 502.797 526.989 502.797 Z" fill="#000000" fill-rule="evenodd" fill-opacity="1" /><path clip-path="url(#clip110)" d="M670.263 521.949 L674.944 521.949 L674.944 505.791 L669.851 506.812 L669.851 504.202 L674.915 503.18 L677.781 503.18 L677.781 521.949 L682.462 521.949 L682.462 524.361 L670.263 524.361 L670.263 521.949 Z" fill="#000000" fill-rule="evenodd" fill-opacity="1" /><path clip-path="url(#clip110)" d="M688.278 503.18 L699.527 503.18 L699.527 505.592 L690.903 505.592 L690.903 510.784 Q691.527 510.572 692.151 510.472 Q692.775 510.359 693.399 510.359 Q696.946 510.359 699.017 512.302 Q701.088 514.246 701.088 517.566 Q701.088 520.985 698.96 522.886 Q696.832 524.773 692.959 524.773 Q691.626 524.773 690.236 524.546 Q688.86 524.319 687.385 523.865 L687.385 520.985 Q688.661 521.68 690.023 522.02 Q691.385 522.361 692.903 522.361 Q695.357 522.361 696.79 521.07 Q698.222 519.779 698.222 517.566 Q698.222 515.353 696.79 514.062 Q695.357 512.771 692.903 512.771 Q691.754 512.771 690.605 513.026 Q689.47 513.281 688.278 513.82 L688.278 503.18 Z" fill="#000000" fill-rule="evenodd" fill-opacity="1" /><path clip-path="url(#clip110)" d="M712.862 505.067 Q710.649 505.067 709.528 507.252 Q708.422 509.422 708.422 513.792 Q708.422 518.147 709.528 520.332 Q710.649 522.503 712.862 522.503 Q715.089 522.503 716.195 520.332 Q717.316 518.147 717.316 513.792 Q717.316 509.422 716.195 507.252 Q715.089 505.067 712.862 505.067 M712.862 502.797 Q716.422 502.797 718.295 505.62 Q720.182 508.429 720.182 513.792 Q720.182 519.14 718.295 521.964 Q716.422 524.773 712.862 524.773 Q709.301 524.773 707.415 521.964 Q705.542 519.14 705.542 513.792 Q705.542 508.429 707.415 505.62 Q709.301 502.797 712.862 502.797 Z" fill="#000000" fill-rule="evenodd" fill-opacity="1" /><path clip-path="url(#clip110)" d="M858.64 521.949 L868.64 521.949 L868.64 524.361 L855.192 524.361 L855.192 521.949 Q856.824 520.261 859.633 517.424 Q862.455 514.572 863.179 513.749 Q864.555 512.203 865.094 511.139 Q865.647 510.061 865.647 509.025 Q865.647 507.337 864.456 506.273 Q863.278 505.209 861.377 505.209 Q860.03 505.209 858.526 505.677 Q857.037 506.145 855.334 507.096 L855.334 504.202 Q857.065 503.507 858.569 503.152 Q860.072 502.797 861.321 502.797 Q864.612 502.797 866.569 504.443 Q868.527 506.089 868.527 508.841 Q868.527 510.146 868.03 511.324 Q867.548 512.487 866.257 514.076 Q865.903 514.487 864.002 516.459 Q862.101 518.417 858.64 521.949 Z" fill="#000000" fill-rule="evenodd" fill-opacity="1" /><path clip-path="url(#clip110)" d="M880.783 505.067 Q878.57 505.067 877.45 507.252 Q876.343 509.422 876.343 513.792 Q876.343 518.147 877.45 520.332 Q878.57 522.503 880.783 522.503 Q883.01 522.503 884.117 520.332 Q885.238 518.147 885.238 513.792 Q885.238 509.422 884.117 507.252 Q883.01 505.067 880.783 505.067 M880.783 502.797 Q884.344 502.797 886.216 505.62 Q888.103 508.429 888.103 513.792 Q888.103 519.14 886.216 521.964 Q884.344 524.773 880.783 524.773 Q877.223 524.773 875.336 521.964 Q873.463 519.14 873.463 513.792 Q873.463 508.429 875.336 505.62 Q877.223 502.797 880.783 502.797 Z" fill="#000000" fill-rule="evenodd" fill-opacity="1" /><path clip-path="url(#clip110)" d="M899.267 505.067 Q897.054 505.067 895.933 507.252 Q894.827 509.422 894.827 513.792 Q894.827 518.147 895.933 520.332 Q897.054 522.503 899.267 522.503 Q901.494 522.503 902.601 520.332 Q903.721 518.147 903.721 513.792 Q903.721 509.422 902.601 507.252 Q901.494 505.067 899.267 505.067 M899.267 502.797 Q902.828 502.797 904.7 505.62 Q906.587 508.429 906.587 513.792 Q906.587 519.14 904.7 521.964 Q902.828 524.773 899.267 524.773 Q895.706 524.773 893.82 521.964 Q891.947 519.14 891.947 513.792 Q891.947 508.429 893.82 505.62 Q895.706 502.797 899.267 502.797 Z" fill="#000000" fill-rule="evenodd" fill-opacity="1" /><path clip-path="url(#clip110)" d="M468.094 541.683 L491.129 541.683 L491.129 544.784 L481.463 544.784 L481.463 568.916 L477.76 568.916 L477.76 544.784 L468.094 544.784 L468.094 541.683 Z" fill="#000000" fill-rule="evenodd" fill-opacity="1" /><path clip-path="url(#clip110)" d="M493.391 548.487 L496.747 548.487 L496.747 568.916 L493.391 568.916 L493.391 548.487 M493.391 540.534 L496.747 540.534 L496.747 544.784 L493.391 544.784 L493.391 540.534 Z" fill="#000000" fill-rule="evenodd" fill-opacity="1" /><path clip-path="url(#clip110)" d="M519.673 552.409 Q520.931 550.147 522.682 549.071 Q524.433 547.994 526.804 547.994 Q529.996 547.994 531.728 550.238 Q533.461 552.463 533.461 556.585 L533.461 568.916 L530.087 568.916 L530.087 556.695 Q530.087 553.758 529.047 552.336 Q528.008 550.913 525.874 550.913 Q523.266 550.913 521.752 552.646 Q520.238 554.378 520.238 557.37 L520.238 568.916 L516.864 568.916 L516.864 556.695 Q516.864 553.74 515.824 552.336 Q514.785 550.913 512.614 550.913 Q510.043 550.913 508.529 552.664 Q507.015 554.397 507.015 557.37 L507.015 568.916 L503.641 568.916 L503.641 548.487 L507.015 548.487 L507.015 551.661 Q508.164 549.782 509.769 548.888 Q511.374 547.994 513.581 547.994 Q515.806 547.994 517.356 549.125 Q518.925 550.256 519.673 552.409 Z" fill="#000000" fill-rule="evenodd" fill-opacity="1" /><path clip-path="url(#clip110)" d="M557.627 557.862 L557.627 559.504 L542.197 559.504 Q542.416 562.97 544.277 564.794 Q546.155 566.599 549.493 566.599 Q551.426 566.599 553.232 566.125 Q555.056 565.651 556.843 564.702 L556.843 567.876 Q555.037 568.642 553.14 569.043 Q551.244 569.445 549.292 569.445 Q544.404 569.445 541.541 566.599 Q538.696 563.754 538.696 558.902 Q538.696 553.886 541.395 550.949 Q544.112 547.994 548.708 547.994 Q552.83 547.994 555.22 550.657 Q557.627 553.302 557.627 557.862 M554.271 556.877 Q554.235 554.123 552.721 552.481 Q551.225 550.84 548.745 550.84 Q545.936 550.84 544.24 552.427 Q542.562 554.014 542.307 556.896 L554.271 556.877 Z" fill="#000000" fill-rule="evenodd" fill-opacity="1" /><polyline clip-path="url(#clip112)" style="stroke:#000000; stroke-linecap:butt; stroke-linejoin:round; stroke-width:1.40085; stroke-opacity:0.1; fill:none" points="
  118.809,467.97 906.912,467.97 
  "/>
<polyline clip-path="url(#clip112)" style="stroke:#000000; stroke-linecap:butt; stroke-linejoin:round; stroke-width:1.40085; stroke-opacity:0.1; fill:none" points="
  118.809,357.804 906.912,357.804 
  "/>
<polyline clip-path="url(#clip112)" style="stroke:#000000; stroke-linecap:butt; stroke-linejoin:round; stroke-width:1.40085; stroke-opacity:0.1; fill:none" points="
  118.809,247.639 906.912,247.639 
  "/>
<polyline clip-path="url(#clip112)" style="stroke:#000000; stroke-linecap:butt; stroke-linejoin:round; stroke-width:1.40085; stroke-opacity:0.1; fill:none" points="
  118.809,137.474 906.912,137.474 
  "/>
<polyline clip-path="url(#clip110)" style="stroke:#000000; stroke-linecap:butt; stroke-linejoin:round; stroke-width:2.80169; stroke-opacity:1; fill:none" points="
  118.809,490.365 118.809,33.0909 
  "/>
<polyline clip-path="url(#clip110)" style="stroke:#000000; stroke-linecap:butt; stroke-linejoin:round; stroke-width:2.80169; stroke-opacity:1; fill:none" points="
  118.809,467.97 137.717,467.97 
  "/>
<polyline clip-path="url(#clip110)" style="stroke:#000000; stroke-linecap:butt; stroke-linejoin:round; stroke-width:2.80169; stroke-opacity:1; fill:none" points="
  118.809,357.804 137.717,357.804 
  "/>
<polyline clip-path="url(#clip110)" style="stroke:#000000; stroke-linecap:butt; stroke-linejoin:round; stroke-width:2.80169; stroke-opacity:1; fill:none" points="
  118.809,247.639 137.717,247.639 
  "/>
<polyline clip-path="url(#clip110)" style="stroke:#000000; stroke-linecap:butt; stroke-linejoin:round; stroke-width:2.80169; stroke-opacity:1; fill:none" points="
  118.809,137.474 137.717,137.474 
  "/>
<path clip-path="url(#clip110)" d="M48.4068 468.246 L66.5926 468.246 L66.5926 470.658 L48.4068 470.658 L48.4068 468.246 Z" fill="#000000" fill-rule="evenodd" fill-opacity="1" /><path clip-path="url(#clip110)" d="M75.2458 476.148 L85.2467 476.148 L85.2467 478.56 L71.7987 478.56 L71.7987 476.148 Q73.4301 474.46 76.2388 471.623 Q79.0618 468.771 79.7852 467.948 Q81.1612 466.402 81.7003 465.338 Q82.2535 464.26 82.2535 463.224 Q82.2535 461.536 81.0619 460.472 Q79.8845 459.408 77.9836 459.408 Q76.636 459.408 75.1324 459.876 Q73.6429 460.344 71.9406 461.295 L71.9406 458.401 Q73.6712 457.706 75.1749 457.351 Q76.6786 456.996 77.9269 456.996 Q81.218 456.996 83.1756 458.642 Q85.1332 460.288 85.1332 463.04 Q85.1332 464.345 84.6367 465.522 Q84.1544 466.686 82.8635 468.275 Q82.5088 468.686 80.608 470.658 Q78.7071 472.616 75.2458 476.148 Z" fill="#000000" fill-rule="evenodd" fill-opacity="1" /><path clip-path="url(#clip110)" d="M97.3895 459.266 Q95.1765 459.266 94.0559 461.451 Q92.9494 463.621 92.9494 467.991 Q92.9494 472.346 94.0559 474.531 Q95.1765 476.702 97.3895 476.702 Q99.6166 476.702 100.723 474.531 Q101.844 472.346 101.844 467.991 Q101.844 463.621 100.723 461.451 Q99.6166 459.266 97.3895 459.266 M97.3895 456.996 Q100.95 456.996 102.823 459.819 Q104.709 462.628 104.709 467.991 Q104.709 473.339 102.823 476.162 Q100.95 478.971 97.3895 478.971 Q93.8289 478.971 91.9422 476.162 Q90.0697 473.339 90.0697 467.991 Q90.0697 462.628 91.9422 459.819 Q93.8289 456.996 97.3895 456.996 Z" fill="#000000" fill-rule="evenodd" fill-opacity="1" /><path clip-path="url(#clip110)" d="M48.4068 358.081 L66.5926 358.081 L66.5926 360.493 L48.4068 360.493 L48.4068 358.081 Z" fill="#000000" fill-rule="evenodd" fill-opacity="1" /><path clip-path="url(#clip110)" d="M73.274 365.983 L77.9553 365.983 L77.9553 349.824 L72.8627 350.846 L72.8627 348.235 L77.9269 347.214 L80.7924 347.214 L80.7924 365.983 L85.4736 365.983 L85.4736 368.395 L73.274 368.395 L73.274 365.983 Z" fill="#000000" fill-rule="evenodd" fill-opacity="1" /><path clip-path="url(#clip110)" d="M97.3895 349.101 Q95.1765 349.101 94.0559 351.285 Q92.9494 353.456 92.9494 357.826 Q92.9494 362.181 94.0559 364.366 Q95.1765 366.536 97.3895 366.536 Q99.6166 366.536 100.723 364.366 Q101.844 362.181 101.844 357.826 Q101.844 353.456 100.723 351.285 Q99.6166 349.101 97.3895 349.101 M97.3895 346.831 Q100.95 346.831 102.823 349.654 Q104.709 352.463 104.709 357.826 Q104.709 363.174 102.823 365.997 Q100.95 368.806 97.3895 368.806 Q93.8289 368.806 91.9422 365.997 Q90.0697 363.174 90.0697 357.826 Q90.0697 352.463 91.9422 349.654 Q93.8289 346.831 97.3895 346.831 Z" fill="#000000" fill-rule="evenodd" fill-opacity="1" /><path clip-path="url(#clip110)" d="M97.3895 238.935 Q95.1765 238.935 94.0559 241.12 Q92.9494 243.291 92.9494 247.66 Q92.9494 252.016 94.0559 254.2 Q95.1765 256.371 97.3895 256.371 Q99.6166 256.371 100.723 254.2 Q101.844 252.016 101.844 247.66 Q101.844 243.291 100.723 241.12 Q99.6166 238.935 97.3895 238.935 M97.3895 236.665 Q100.95 236.665 102.823 239.489 Q104.709 242.298 104.709 247.66 Q104.709 253.009 102.823 255.832 Q100.95 258.641 97.3895 258.641 Q93.8289 258.641 91.9422 255.832 Q90.0697 253.009 90.0697 247.66 Q90.0697 242.298 91.9422 239.489 Q93.8289 236.665 97.3895 236.665 Z" fill="#000000" fill-rule="evenodd" fill-opacity="1" /><path clip-path="url(#clip110)" d="M73.274 145.652 L77.9553 145.652 L77.9553 129.493 L72.8627 130.515 L72.8627 127.905 L77.9269 126.883 L80.7924 126.883 L80.7924 145.652 L85.4736 145.652 L85.4736 148.064 L73.274 148.064 L73.274 145.652 Z" fill="#000000" fill-rule="evenodd" fill-opacity="1" /><path clip-path="url(#clip110)" d="M97.3895 128.77 Q95.1765 128.77 94.0559 130.955 Q92.9494 133.125 92.9494 137.495 Q92.9494 141.85 94.0559 144.035 Q95.1765 146.205 97.3895 146.205 Q99.6166 146.205 100.723 144.035 Q101.844 141.85 101.844 137.495 Q101.844 133.125 100.723 130.955 Q99.6166 128.77 97.3895 128.77 M97.3895 126.5 Q100.95 126.5 102.823 129.323 Q104.709 132.132 104.709 137.495 Q104.709 142.843 102.823 145.666 Q100.95 148.475 97.3895 148.475 Q93.8289 148.475 91.9422 145.666 Q90.0697 142.843 90.0697 137.495 Q90.0697 132.132 91.9422 129.323 Q93.8289 126.5 97.3895 126.5 Z" fill="#000000" fill-rule="evenodd" fill-opacity="1" /><path clip-path="url(#clip110)" d="M1.40619 429.856 Q1.40619 433.868 4.39732 436.24 Q7.38844 438.593 12.55 438.593 Q17.6932 438.593 20.6844 436.24 Q23.6755 433.868 23.6755 429.856 Q23.6755 425.843 20.6844 423.508 Q17.6932 421.155 12.55 421.155 Q7.38844 421.155 4.39732 423.508 Q1.40619 425.843 1.40619 429.856 M25.6453 424.694 L30.9527 419.842 L30.9527 424.292 L26.5937 428.323 Q26.6301 428.925 26.6484 429.254 Q26.6666 429.564 26.6666 429.856 Q26.6666 435.601 22.8365 439.049 Q18.9882 442.478 12.55 442.478 Q6.0935 442.478 2.2634 439.049 Q-1.58494 435.601 -1.58494 429.856 Q-1.58494 424.128 2.2634 420.699 Q6.0935 417.27 12.55 417.27 Q17.292 417.27 20.6661 419.185 Q24.0403 421.082 25.6453 424.694 Z" fill="#000000" fill-rule="evenodd" fill-opacity="1" /><path clip-path="url(#clip110)" d="M18.0762 411.999 L5.71049 411.999 L5.71049 408.642 L17.9486 408.642 Q20.8485 408.642 22.3076 407.512 Q23.7484 406.381 23.7484 404.119 Q23.7484 401.401 22.0158 399.832 Q20.2831 398.246 17.292 398.246 L5.71049 398.246 L5.71049 394.889 L26.1377 394.889 L26.1377 398.246 L23.0007 398.246 Q24.861 399.468 25.7729 401.091 Q26.6666 402.696 26.6666 404.83 Q26.6666 408.351 24.478 410.175 Q22.2894 411.999 18.0762 411.999 M5.21805 403.553 L5.21805 403.553 Z" fill="#000000" fill-rule="evenodd" fill-opacity="1" /><path clip-path="url(#clip110)" d="M15.8694 378.692 Q15.8694 382.76 16.7995 384.328 Q17.7297 385.897 19.9731 385.897 Q21.7604 385.897 22.8183 384.73 Q23.8579 383.544 23.8579 381.519 Q23.8579 378.729 21.8881 377.051 Q19.9001 375.354 16.6172 375.354 L15.8694 375.354 L15.8694 378.692 M14.4832 371.998 L26.1377 371.998 L26.1377 375.354 L23.0371 375.354 Q24.8975 376.503 25.7912 378.218 Q26.6666 379.933 26.6666 382.413 Q26.6666 385.55 24.9157 387.411 Q23.1466 389.253 20.1919 389.253 Q16.7448 389.253 14.9939 386.955 Q13.243 384.638 13.243 380.06 L13.243 375.354 L12.9147 375.354 Q10.5984 375.354 9.33997 376.886 Q8.06327 378.4 8.06327 381.155 Q8.06327 382.906 8.48276 384.566 Q8.90224 386.225 9.74122 387.758 L6.64066 387.758 Q5.92936 385.915 5.58282 384.182 Q5.21805 382.45 5.21805 380.808 Q5.21805 376.376 7.51611 374.187 Q9.81417 371.998 14.4832 371.998 Z" fill="#000000" fill-rule="evenodd" fill-opacity="1" /><path clip-path="url(#clip110)" d="M13.8084 348.104 L26.1377 348.104 L26.1377 351.46 L13.9179 351.46 Q11.0179 351.46 9.57707 352.591 Q8.13622 353.722 8.13622 355.983 Q8.13622 358.701 9.86889 360.27 Q11.6016 361.838 14.5927 361.838 L26.1377 361.838 L26.1377 365.213 L5.71049 365.213 L5.71049 361.838 L8.884 361.838 Q7.04191 360.635 6.12998 359.011 Q5.21805 357.37 5.21805 355.235 Q5.21805 351.715 7.40668 349.909 Q9.57707 348.104 13.8084 348.104 Z" fill="#000000" fill-rule="evenodd" fill-opacity="1" /><path clip-path="url(#clip110)" d="M-0.0893747 338.09 L5.71049 338.09 L5.71049 331.177 L8.31861 331.177 L8.31861 338.09 L19.4077 338.09 Q21.9063 338.09 22.6177 337.415 Q23.329 336.722 23.329 334.624 L23.329 331.177 L26.1377 331.177 L26.1377 334.624 Q26.1377 338.509 24.6969 339.987 Q23.2378 341.464 19.4077 341.464 L8.31861 341.464 L8.31861 343.927 L5.71049 343.927 L5.71049 341.464 L-0.0893747 341.464 L-0.0893747 338.09 Z" fill="#000000" fill-rule="evenodd" fill-opacity="1" /><path clip-path="url(#clip110)" d="M5.71049 326.763 L5.71049 323.407 L26.1377 323.407 L26.1377 326.763 L5.71049 326.763 M-2.24153 326.763 L-2.24153 323.407 L2.00806 323.407 L2.00806 326.763 L-2.24153 326.763 Z" fill="#000000" fill-rule="evenodd" fill-opacity="1" /><path clip-path="url(#clip110)" d="M-0.0893747 313.064 L5.71049 313.064 L5.71049 306.151 L8.31861 306.151 L8.31861 313.064 L19.4077 313.064 Q21.9063 313.064 22.6177 312.39 Q23.329 311.696 23.329 309.599 L23.329 306.151 L26.1377 306.151 L26.1377 309.599 Q26.1377 313.484 24.6969 314.961 Q23.2378 316.439 19.4077 316.439 L8.31861 316.439 L8.31861 318.901 L5.71049 318.901 L5.71049 316.439 L-0.0893747 316.439 L-0.0893747 313.064 Z" fill="#000000" fill-rule="evenodd" fill-opacity="1" /><path clip-path="url(#clip110)" d="M28.0345 293.237 Q31.6822 294.66 32.7948 296.01 Q33.9073 297.36 33.9073 299.621 L33.9073 302.303 L31.0986 302.303 L31.0986 300.333 Q31.0986 298.947 30.442 298.18 Q29.7854 297.414 27.3414 296.484 L25.8094 295.882 L5.71049 304.145 L5.71049 300.588 L21.6875 294.204 L5.71049 287.82 L5.71049 284.263 L28.0345 293.237 Z" fill="#000000" fill-rule="evenodd" fill-opacity="1" /><path clip-path="url(#clip110)" d="M8.06327 259.84 Q8.06327 262.539 10.1789 264.108 Q12.2764 265.677 15.9423 265.677 Q19.6083 265.677 21.724 264.126 Q23.8214 262.558 23.8214 259.84 Q23.8214 257.159 21.7057 255.59 Q19.59 254.021 15.9423 254.021 Q12.3129 254.021 10.1972 255.59 Q8.06327 257.159 8.06327 259.84 M5.21805 259.84 Q5.21805 255.462 8.06327 252.963 Q10.9085 250.464 15.9423 250.464 Q20.9579 250.464 23.8214 252.963 Q26.6666 255.462 26.6666 259.84 Q26.6666 264.236 23.8214 266.735 Q20.9579 269.215 15.9423 269.215 Q10.9085 269.215 8.06327 266.735 Q5.21805 264.236 5.21805 259.84 Z" fill="#000000" fill-rule="evenodd" fill-opacity="1" /><path clip-path="url(#clip110)" d="M-2.24153 234.559 L0.548976 234.559 L0.548976 237.769 Q0.548976 239.575 1.27852 240.286 Q2.00806 240.98 3.90487 240.98 L5.71049 240.98 L5.71049 235.453 L8.31861 235.453 L8.31861 240.98 L26.1377 240.98 L26.1377 244.354 L8.31861 244.354 L8.31861 247.564 L5.71049 247.564 L5.71049 244.354 L4.28788 244.354 Q0.87727 244.354 -0.673009 242.767 Q-2.24153 241.18 -2.24153 237.733 L-2.24153 234.559 Z" fill="#000000" fill-rule="evenodd" fill-opacity="1" /><path clip-path="url(#clip110)" d="M5.71049 219.876 L5.71049 216.52 L26.1377 216.52 L26.1377 219.876 L5.71049 219.876 M-2.24153 219.876 L-2.24153 216.52 L2.00806 216.52 L2.00806 219.876 L-2.24153 219.876 Z" fill="#000000" fill-rule="evenodd" fill-opacity="1" /><path clip-path="url(#clip110)" d="M13.8084 192.516 L26.1377 192.516 L26.1377 195.872 L13.9179 195.872 Q11.0179 195.872 9.57707 197.003 Q8.13622 198.134 8.13622 200.395 Q8.13622 203.113 9.86889 204.682 Q11.6016 206.25 14.5927 206.25 L26.1377 206.25 L26.1377 209.625 L5.71049 209.625 L5.71049 206.25 L8.884 206.25 Q7.04191 205.047 6.12998 203.423 Q5.21805 201.782 5.21805 199.648 Q5.21805 196.127 7.40668 194.321 Q9.57707 192.516 13.8084 192.516 Z" fill="#000000" fill-rule="evenodd" fill-opacity="1" /><path clip-path="url(#clip110)" d="M-0.0893747 182.502 L5.71049 182.502 L5.71049 175.589 L8.31861 175.589 L8.31861 182.502 L19.4077 182.502 Q21.9063 182.502 22.6177 181.827 Q23.329 181.134 23.329 179.036 L23.329 175.589 L26.1377 175.589 L26.1377 179.036 Q26.1377 182.921 24.6969 184.399 Q23.2378 185.876 19.4077 185.876 L8.31861 185.876 L8.31861 188.339 L5.71049 188.339 L5.71049 185.876 L-0.0893747 185.876 L-0.0893747 182.502 Z" fill="#000000" fill-rule="evenodd" fill-opacity="1" /><path clip-path="url(#clip110)" d="M15.0851 153.701 L16.7266 153.701 L16.7266 169.132 Q20.1919 168.913 22.0158 167.053 Q23.8214 165.174 23.8214 161.836 Q23.8214 159.902 23.3472 158.097 Q22.873 156.273 21.9246 154.485 L25.0981 154.485 Q25.8641 156.291 26.2654 158.188 Q26.6666 160.085 26.6666 162.036 Q26.6666 166.925 23.8214 169.789 Q20.9762 172.634 16.1247 172.634 Q11.1091 172.634 8.1727 169.934 Q5.21805 167.217 5.21805 162.62 Q5.21805 158.498 7.88088 156.108 Q10.5255 153.701 15.0851 153.701 M14.1002 157.057 Q11.3462 157.093 9.70474 158.607 Q8.06327 160.103 8.06327 162.584 Q8.06327 165.393 9.65003 167.089 Q11.2368 168.767 14.1185 169.022 L14.1002 157.057 Z" fill="#000000" fill-rule="evenodd" fill-opacity="1" /><path clip-path="url(#clip110)" d="M8.84753 136.354 Q8.51923 136.92 8.37332 137.595 Q8.20918 138.251 8.20918 139.054 Q8.20918 141.899 10.0695 143.432 Q11.9116 144.946 15.3769 144.946 L26.1377 144.946 L26.1377 148.32 L5.71049 148.32 L5.71049 144.946 L8.884 144.946 Q7.02367 143.888 6.12998 142.191 Q5.21805 140.495 5.21805 138.069 Q5.21805 137.722 5.27277 137.303 Q5.30924 136.883 5.40044 136.373 L8.84753 136.354 Z" fill="#000000" fill-rule="evenodd" fill-opacity="1" /><path clip-path="url(#clip110)" d="M15.0851 116.181 L16.7266 116.181 L16.7266 131.612 Q20.1919 131.393 22.0158 129.533 Q23.8214 127.654 23.8214 124.316 Q23.8214 122.383 23.3472 120.577 Q22.873 118.753 21.9246 116.965 L25.0981 116.965 Q25.8641 118.771 26.2654 120.668 Q26.6666 122.565 26.6666 124.517 Q26.6666 129.405 23.8214 132.269 Q20.9762 135.114 16.1247 135.114 Q11.1091 135.114 8.1727 132.415 Q5.21805 129.697 5.21805 125.1 Q5.21805 120.978 7.88088 118.589 Q10.5255 116.181 15.0851 116.181 M14.1002 119.537 Q11.3462 119.574 9.70474 121.088 Q8.06327 122.583 8.06327 125.064 Q8.06327 127.873 9.65003 129.569 Q11.2368 131.247 14.1185 131.503 L14.1002 119.537 Z" fill="#000000" fill-rule="evenodd" fill-opacity="1" /><path clip-path="url(#clip110)" d="M6.31237 97.649 L9.48588 97.649 Q8.75633 99.0717 8.39156 100.604 Q8.02679 102.136 8.02679 103.778 Q8.02679 106.277 8.79281 107.535 Q9.55883 108.775 11.0909 108.775 Q12.2581 108.775 12.933 107.882 Q13.5896 106.988 14.1914 104.288 L14.4468 103.139 Q15.2128 99.5642 16.6172 98.0685 Q18.0033 96.5546 20.502 96.5546 Q23.3472 96.5546 25.0069 98.8164 Q26.6666 101.06 26.6666 105 Q26.6666 106.641 26.3383 108.429 Q26.0283 110.198 25.3899 112.168 L21.9246 112.168 Q22.8912 110.308 23.3837 108.502 Q23.8579 106.696 23.8579 104.927 Q23.8579 102.556 23.0554 101.279 Q22.2346 100.002 20.7573 100.002 Q19.3894 100.002 18.6599 100.932 Q17.9303 101.844 17.2555 104.963 L16.9819 106.131 Q16.3253 109.25 14.9757 110.636 Q13.6078 112.022 11.2368 112.022 Q8.35509 112.022 6.78657 109.979 Q5.21805 107.936 5.21805 104.179 Q5.21805 102.318 5.49163 100.677 Q5.76521 99.0352 6.31237 97.649 Z" fill="#000000" fill-rule="evenodd" fill-opacity="1" /><path clip-path="url(#clip110)" d="M-0.0893747 87.8905 L5.71049 87.8905 L5.71049 80.9776 L8.31861 80.9776 L8.31861 87.8905 L19.4077 87.8905 Q21.9063 87.8905 22.6177 87.2157 Q23.329 86.5225 23.329 84.4249 L23.329 80.9776 L26.1377 80.9776 L26.1377 84.4249 Q26.1377 88.3101 24.6969 89.7875 Q23.2378 91.265 19.4077 91.265 L8.31861 91.265 L8.31861 93.7274 L5.71049 93.7274 L5.71049 91.265 L-0.0893747 91.265 L-0.0893747 87.8905 Z" fill="#000000" fill-rule="evenodd" fill-opacity="1" /><polyline clip-path="url(#clip112)" style="stroke:#009af9; stroke-linecap:butt; stroke-linejoin:round; stroke-width:2.80169; stroke-opacity:1; fill:none" points="
  141.114,263.18 144.831,270.278 148.549,263.326 152.266,278.764 155.984,279.082 159.701,280.373 163.419,304.385 167.136,295.443 170.854,290.06 174.571,283.802 
  178.289,286.329 182.006,297.093 185.724,296.084 189.441,299.072 193.159,295.619 196.876,293.892 200.593,286.893 204.311,287.221 208.028,282.008 211.746,302.422 
  215.463,316.511 219.181,312.896 222.898,311.741 226.616,309.81 230.333,306.643 234.051,286.307 237.768,274.576 241.486,281.492 245.203,291.675 248.921,278.938 
  252.638,264.939 256.355,258.275 260.073,247.625 263.79,263.004 267.508,257.634 271.225,247.239 274.943,251.495 278.66,264.249 282.378,269.438 286.095,285.826 
  289.813,295.542 293.53,297.058 297.248,299.469 300.965,301.415 304.683,284.52 308.4,286.924 312.117,279.241 315.835,286.069 319.552,309.113 323.27,314.336 
  326.987,320.459 330.705,330.893 334.422,338.293 338.14,333.533 341.857,330.407 345.575,332.022 349.292,310.38 353.01,315.451 356.727,325.713 360.444,322.125 
  364.162,323.081 367.879,325.808 371.597,336.971 375.314,341.025 379.032,341.242 382.749,349.346 386.467,335.964 390.184,319.712 393.902,325.559 397.619,334.092 
  401.337,331.457 405.054,336.472 408.772,329.594 412.489,355.771 416.206,335.073 419.924,329.164 423.641,318.369 427.359,320.358 431.076,330.827 434.794,330.111 
  438.511,320.958 442.229,309.148 445.946,317.49 449.664,325.681 453.381,339.484 457.099,344.693 460.816,354.045 464.534,353.434 468.251,351.589 471.968,366.618 
  475.686,359.887 479.403,351.456 483.121,341.79 486.838,335.219 490.556,340.747 494.273,336.994 497.991,316.919 501.708,306.157 505.426,308.324 509.143,324.112 
  512.861,319.479 516.578,317.04 520.295,318.57 524.013,343.288 527.73,339.213 531.448,336.251 535.165,340.165 538.883,339.631 542.6,331.864 546.318,350.851 
  550.035,350.196 553.753,368.22 557.47,379.897 561.188,402.77 564.905,416.159 568.623,422.704 572.34,437.526 576.057,447.789 579.775,446.001 583.492,442.596 
  587.21,446.883 590.927,454.87 594.645,465.254 598.362,454.725 602.08,439.467 605.797,440.141 609.515,445.536 613.232,445.036 616.95,456.552 620.667,456.876 
  624.385,477.423 628.102,462.351 631.819,452.381 635.537,461.359 639.254,456.634 642.972,455.358 646.689,464.483 650.407,456.423 654.124,470.565 657.842,468.115 
  661.559,458.428 665.277,461.098 668.994,447.511 672.712,444.578 676.429,432.47 680.147,424.82 683.864,407.979 687.581,402.304 691.299,407.643 695.016,389.685 
  698.734,385.552 702.451,371.637 706.169,372.33 709.886,379.689 713.604,388.173 717.321,387.59 721.039,367.032 724.756,372.193 728.474,378.559 732.191,369.539 
  735.908,378.022 739.626,389.536 743.343,392.621 747.061,399.452 750.778,384.416 754.496,376.844 758.213,386.483 761.931,384.311 765.648,359.649 769.366,349.846 
  773.083,357.655 776.801,357.384 780.518,347.568 784.236,335.904 787.953,333.945 791.67,332.457 795.388,339.839 799.105,347.915 802.823,353.429 806.54,347.515 
  810.258,344.173 813.975,352.084 817.693,356.998 821.41,369.701 825.128,362.758 828.845,385.701 832.563,372.965 836.28,371.868 839.998,367.414 843.715,358.146 
  847.432,363.936 851.15,371.397 854.867,377.63 858.585,382.291 862.302,385.041 866.02,386.98 869.737,394.32 873.455,389.149 877.172,385.952 880.89,383.115 
  884.607,369.64 
  "/>
<polyline clip-path="url(#clip112)" style="stroke:#e26f46; stroke-linecap:butt; stroke-linejoin:round; stroke-width:2.80169; stroke-opacity:1; fill:none" points="
  141.114,260.842 144.831,247.012 148.549,249.583 152.266,257.945 155.984,256.612 159.701,247.019 163.419,234.762 167.136,230.102 170.854,228.353 174.571,251.592 
  178.289,258.882 182.006,261.884 185.724,263.632 189.441,258.763 193.159,262.5 196.876,262.275 200.593,264.788 204.311,255.178 208.028,245.021 211.746,271.509 
  215.463,265.428 219.181,259.677 222.898,259.975 226.616,255.047 230.333,245.294 234.051,224.359 237.768,215.998 241.486,207.851 245.203,207.335 248.921,205.765 
  252.638,188.968 256.355,190.322 260.073,185.166 263.79,189.406 267.508,188.852 271.225,175.885 274.943,165.537 278.66,177.948 282.378,175.67 286.095,159.199 
  289.813,148.222 293.53,136.211 297.248,132.135 300.965,147.652 304.683,140.145 308.4,130.721 312.117,121.292 315.835,118.646 319.552,101.072 323.27,97.7332 
  326.987,83.4148 330.705,76.8517 334.422,70.1621 338.14,62.7829 341.857,82.7035 345.575,96.3407 349.292,102.191 353.01,108.522 356.727,118.454 360.444,99.7457 
  364.162,106.044 367.879,111.542 371.597,111.148 375.314,123.56 379.032,131.529 382.749,127.435 386.467,138.302 390.184,119.172 393.902,107.098 397.619,110.956 
  401.337,107.75 405.054,108.869 408.772,92.9761 412.489,83.6402 416.206,83.9014 419.924,87.9297 423.641,80.3266 427.359,83.2764 431.076,86.1136 434.794,101.789 
  438.511,81.9372 442.229,72.9048 445.946,53.3079 449.664,46.0326 453.381,47.2903 457.099,52.8422 460.816,65.9713 464.534,66.801 468.251,75.8995 471.968,74.043 
  475.686,79.5037 479.403,80.6005 483.121,91.9547 486.838,99.2356 490.556,105.392 494.273,112.715 497.991,115.722 501.708,114.415 505.426,148.555 509.143,153.605 
  512.861,152.271 516.578,158.079 520.295,144.915 524.013,149.94 527.73,158.432 531.448,160.673 535.165,147.868 538.883,141.606 542.6,146.362 546.318,148.164 
  550.035,124.276 553.753,114.942 557.47,126.359 561.188,125.153 564.905,110.578 568.623,95.2074 572.34,101.343 576.057,99.8287 579.775,118.242 583.492,135.044 
  587.21,142.315 590.927,154.299 594.645,163.13 598.362,171.02 602.08,177.509 605.797,175.284 609.515,155.044 613.232,165.809 616.95,181.793 620.667,166.422 
  624.385,150.609 628.102,163.347 631.819,169.978 635.537,163.811 639.254,170.727 642.972,175.97 646.689,171.432 650.407,178.386 654.124,175.455 657.842,201.773 
  661.559,206.841 665.277,222.156 668.994,250.624 672.712,259.545 676.429,256.268 680.147,266.164 683.864,274.698 687.581,281.228 691.299,278.785 695.016,275.568 
  698.734,270.653 702.451,262.09 706.169,255.173 709.886,251.801 713.604,243.918 717.321,237.274 721.039,243.925 724.756,247.775 728.474,258.22 732.191,277.868 
  735.908,272.872 739.626,276.208 743.343,261.608 747.061,256.197 750.778,239.432 754.496,229.568 758.213,224.31 761.931,224.009 765.648,229.938 769.366,221.457 
  773.083,220.537 776.801,217.037 780.518,227.753 784.236,243.866 787.953,237.971 791.67,240.335 795.388,232.66 799.105,233.309 802.823,236.278 806.54,217.314 
  810.258,208.731 813.975,213.954 817.693,224.585 821.41,213.202 825.128,196.548 828.845,214.537 832.563,204.429 836.28,212.587 839.998,220.965 843.715,211.714 
  847.432,213.082 851.15,200.511 854.867,203.172 858.585,210.689 862.302,199.469 866.02,195.268 869.737,198.274 873.455,181.888 877.172,186.53 880.89,197.265 
  884.607,200.505 
  "/>
<polyline clip-path="url(#clip112)" style="stroke:#3da44d; stroke-linecap:butt; stroke-linejoin:round; stroke-width:2.80169; stroke-opacity:1; fill:none" points="
  141.114,241.055 144.831,243.529 148.549,252.263 152.266,261.316 155.984,276.761 159.701,265.289 163.419,266.677 167.136,289.416 170.854,290.813 174.571,291.63 
  178.289,282.359 182.006,280.935 185.724,271.566 189.441,263.113 193.159,277.682 196.876,290.791 200.593,283.239 204.311,269.333 208.028,281.879 211.746,294.066 
  215.463,296.29 219.181,302.418 222.898,299.804 226.616,314.894 230.333,313.603 234.051,329.762 237.768,337.009 241.486,310.366 245.203,314.231 248.921,313.973 
  252.638,315.453 256.355,315.287 260.073,314.805 263.79,305.811 267.508,329.962 271.225,336.704 274.943,351.947 278.66,360.922 282.378,350.279 286.095,329.705 
  289.813,347.039 293.53,338.943 297.248,334.619 300.965,357.279 304.683,359.017 308.4,349.166 312.117,354.077 315.835,353.125 319.552,352.208 323.27,343.311 
  326.987,334.916 330.705,343.957 334.422,363.365 338.14,354.127 341.857,359.063 345.575,362.548 349.292,357.609 353.01,350.137 356.727,343.64 360.444,335.626 
  364.162,324.712 367.879,327.279 371.597,324.838 375.314,331.531 379.032,330.517 382.749,326.437 386.467,320.233 390.184,321.495 393.902,330.63 397.619,322.372 
  401.337,338.915 405.054,352.183 408.772,349.192 412.489,335.481 416.206,352.049 419.924,349.722 423.641,332.188 427.359,326.976 431.076,338.074 434.794,318.202 
  438.511,310.832 442.229,307.474 445.946,309.582 449.664,287.016 453.381,268.993 457.099,259.659 460.816,240.203 464.534,228.27 468.251,226.755 471.968,207.53 
  475.686,206.058 479.403,194.593 483.121,193.685 486.838,201.99 490.556,209.571 494.273,211.134 497.991,196.989 501.708,206.994 505.426,213.708 509.143,213.626 
  512.861,213.625 516.578,190.737 520.295,196.331 524.013,192.081 527.73,203.541 531.448,198.685 535.165,186.218 538.883,186.897 542.6,189.951 546.318,186.355 
  550.035,181.731 553.753,178.772 557.47,194.65 561.188,194.111 564.905,196.498 568.623,210.276 572.34,209.953 576.057,203.488 579.775,181.947 583.492,183.168 
  587.21,168.986 590.927,170.754 594.645,164.305 598.362,165.538 602.08,183.251 605.797,182.799 609.515,191.326 613.232,186.692 616.95,193.498 620.667,171.667 
  624.385,158.031 628.102,168.103 631.819,172.773 635.537,185.861 639.254,178.623 642.972,195.137 646.689,183.263 650.407,190.896 654.124,192.703 657.842,185.739 
  661.559,183.576 665.277,170.992 668.994,172.374 672.712,176.122 676.429,170.908 680.147,176.097 683.864,167.965 687.581,167.866 691.299,171.999 695.016,162.911 
  698.734,176.733 702.451,185.362 706.169,173.742 709.886,183.425 713.604,170.102 717.321,174.227 721.039,168.418 724.756,145.025 728.474,150.746 732.191,150.695 
  735.908,150.636 739.626,156.331 743.343,157.048 747.061,162.373 750.778,167.795 754.496,181.624 758.213,152.81 761.931,143.403 765.648,148.199 769.366,151.106 
  773.083,126.635 776.801,126.556 780.518,138.864 784.236,147.148 787.953,169.424 791.67,163.14 795.388,181.301 799.105,188.347 802.823,177.598 806.54,178.045 
  810.258,172.489 813.975,186.286 817.693,203.146 821.41,204.042 825.128,197.91 828.845,178.096 832.563,176.4 836.28,171.919 839.998,179.058 843.715,179.617 
  847.432,169.378 851.15,167.462 854.867,176.55 858.585,169.032 862.302,176.444 866.02,181.831 869.737,189.866 873.455,207.576 877.172,229.44 880.89,241.511 
  884.607,218.143 
  "/>
<polyline clip-path="url(#clip112)" style="stroke:#c271d2; stroke-linecap:butt; stroke-linejoin:round; stroke-width:2.80169; stroke-opacity:1; fill:none" points="
  141.114,248.932 144.831,275.964 148.549,272.894 152.266,290.312 155.984,308.61 159.701,318.588 163.419,309.155 167.136,296.862 170.854,285.559 174.571,286.49 
  178.289,265.426 182.006,278.932 185.724,305.077 189.441,308.052 193.159,313.482 196.876,317.95 200.593,317.786 204.311,316.472 208.028,314.324 211.746,298.867 
  215.463,307.522 219.181,299.568 222.898,300.851 226.616,292.974 230.333,301.492 234.051,315.819 237.768,316.02 241.486,317.472 245.203,327.977 248.921,338.297 
  252.638,347.541 256.355,359.538 260.073,383.221 263.79,400.163 267.508,392.73 271.225,397.339 274.943,393.573 278.66,372.689 282.378,382.982 286.095,375.848 
  289.813,367.247 293.53,394.128 297.248,404.662 300.965,405.296 304.683,407.906 308.4,405.847 312.117,407.22 315.835,413.143 319.552,414.153 323.27,424.781 
  326.987,411.054 330.705,407.243 334.422,404.86 338.14,400.013 341.857,391.304 345.575,393.814 349.292,378.358 353.01,380.518 356.727,363.558 360.444,363.143 
  364.162,364.531 367.879,383.27 371.597,385.227 375.314,390.645 379.032,395.523 382.749,391.219 386.467,400.045 390.184,407.434 393.902,407.643 397.619,406.696 
  401.337,405.478 405.054,412.946 408.772,401.61 412.489,402.733 416.206,398.017 419.924,391.549 423.641,395.703 427.359,392.212 431.076,400.397 434.794,408.328 
  438.511,413.569 442.229,414.701 445.946,424.649 449.664,413.216 453.381,408.488 457.099,395.625 460.816,386.491 464.534,372.146 468.251,382.667 471.968,374.393 
  475.686,383.549 479.403,379.836 483.121,383.692 486.838,376.626 490.556,393.82 494.273,396.417 497.991,383.573 501.708,394.91 505.426,376.753 509.143,381.382 
  512.861,382.051 516.578,377.806 520.295,372.972 524.013,395.989 527.73,410.477 531.448,411.117 535.165,408.892 538.883,399.206 542.6,409.233 546.318,415.364 
  550.035,452.537 553.753,444.611 557.47,438.798 561.188,426.656 564.905,428.299 568.623,431.188 572.34,425.669 576.057,419.331 579.775,411.439 583.492,402.112 
  587.21,400.134 590.927,399.114 594.645,404.689 598.362,400.252 602.08,394.556 605.797,376.398 609.515,389.248 613.232,382.158 616.95,382.66 620.667,382.54 
  624.385,388.181 628.102,393.685 631.819,407.276 635.537,402.459 639.254,397.347 642.972,394.227 646.689,418.448 650.407,439.395 654.124,460.61 657.842,463.233 
  661.559,463.855 665.277,473.003 668.994,472.101 672.712,474.749 676.429,468.749 680.147,457.902 683.864,458.013 687.581,470.92 691.299,474.591 695.016,469.435 
  698.734,464.206 702.451,458.764 706.169,450.041 709.886,442.497 713.604,442.387 717.321,429.286 721.039,423.118 724.756,407.055 728.474,411.614 732.191,409.046 
  735.908,415.569 739.626,404.787 743.343,402.384 747.061,379.799 750.778,395.397 754.496,407.018 758.213,399.783 761.931,385.866 765.648,399.842 769.366,406.795 
  773.083,392.367 776.801,384.422 780.518,384.461 784.236,380.539 787.953,368.882 791.67,392.672 795.388,391.372 799.105,409.147 802.823,426.252 806.54,434.248 
  810.258,442.507 813.975,445.482 817.693,425.79 821.41,419.298 825.128,409.054 828.845,401.486 832.563,383.299 836.28,404.246 839.998,387.036 843.715,383.724 
  847.432,358.028 851.15,375.153 854.867,375.393 858.585,389.192 862.302,407.864 866.02,395.787 869.737,392.836 873.455,405.374 877.172,402.219 880.89,396.115 
  884.607,389.76 
  "/>
<path clip-path="url(#clip110)" d="
M672.718 252.577 L880.642 252.577 L880.642 48.3333 L672.718 48.3333  Z
  " fill="#ffffff" fill-rule="evenodd" fill-opacity="1"/>
<polyline clip-path="url(#clip110)" style="stroke:#000000; stroke-linecap:butt; stroke-linejoin:round; stroke-width:2.80169; stroke-opacity:1; fill:none" points="
  672.718,252.577 880.642,252.577 880.642,48.3333 672.718,48.3333 672.718,252.577 
  "/>
<polyline clip-path="url(#clip110)" style="stroke:#009af9; stroke-linecap:butt; stroke-linejoin:round; stroke-width:3.1519; stroke-opacity:1; fill:none" points="
  681.475,89.182 734.015,89.182 
  "/>
<path clip-path="url(#clip110)" d="M742.772 74.4166 L746.128 74.4166 L746.128 102.798 L742.772 102.798 L742.772 74.4166 Z" fill="#000000" fill-rule="evenodd" fill-opacity="1" /><path clip-path="url(#clip110)" d="M762.433 92.529 Q758.366 92.529 756.798 93.4593 Q755.229 94.3895 755.229 96.6331 Q755.229 98.4206 756.396 99.4785 Q757.582 100.518 759.606 100.518 Q762.397 100.518 764.075 98.5483 Q765.771 96.5601 765.771 93.2769 L765.771 92.529 L762.433 92.529 M769.127 91.1428 L769.127 102.798 L765.771 102.798 L765.771 99.6974 Q764.622 101.558 762.907 102.452 Q761.193 103.327 758.713 103.327 Q755.576 103.327 753.715 101.576 Q751.873 99.8068 751.873 96.8519 Q751.873 93.4046 754.171 91.6535 Q756.487 89.9025 761.065 89.9025 L765.771 89.9025 L765.771 89.5741 Q765.771 87.2576 764.239 85.9991 Q762.725 84.7223 759.971 84.7223 Q758.22 84.7223 756.56 85.1418 Q754.901 85.5613 753.369 86.4004 L753.369 83.2995 Q755.211 82.5882 756.943 82.2416 Q758.676 81.8768 760.318 81.8768 Q764.75 81.8768 766.938 84.1751 Q769.127 86.4733 769.127 91.1428 Z" fill="#000000" fill-rule="evenodd" fill-opacity="1" /><path clip-path="url(#clip110)" d="M790.703 92.602 Q790.703 88.8993 789.171 86.8016 Q787.657 84.6858 784.994 84.6858 Q782.332 84.6858 780.799 86.8016 Q779.286 88.8993 779.286 92.602 Q779.286 96.3047 780.799 98.4206 Q782.332 100.518 784.994 100.518 Q787.657 100.518 789.171 98.4206 Q790.703 96.3047 790.703 92.602 M779.286 85.4701 Q780.344 83.6461 781.949 82.7706 Q783.572 81.8768 785.815 81.8768 Q789.536 81.8768 791.852 84.8317 Q794.187 87.7866 794.187 92.602 Q794.187 97.4174 791.852 100.372 Q789.536 103.327 785.815 103.327 Q783.572 103.327 781.949 102.452 Q780.344 101.558 779.286 99.7339 L779.286 102.798 L775.912 102.798 L775.912 74.4166 L779.286 74.4166 L779.286 85.4701 Z" fill="#000000" fill-rule="evenodd" fill-opacity="1" /><path clip-path="url(#clip110)" d="M817.222 91.7447 L817.222 93.3863 L801.792 93.3863 Q802.011 96.8519 803.871 98.6759 Q805.75 100.482 809.088 100.482 Q811.021 100.482 812.826 100.007 Q814.65 99.5332 816.438 98.5847 L816.438 101.759 Q814.632 102.525 812.735 102.926 Q810.838 103.327 808.887 103.327 Q803.999 103.327 801.135 100.482 Q798.29 97.6363 798.29 92.7844 Q798.29 87.7684 800.99 84.8317 Q803.707 81.8768 808.303 81.8768 Q812.425 81.8768 814.814 84.5399 Q817.222 87.1847 817.222 91.7447 M813.866 90.7597 Q813.83 88.0055 812.316 86.3639 Q810.82 84.7223 808.34 84.7223 Q805.531 84.7223 803.835 86.3092 Q802.157 87.8961 801.902 90.778 L813.866 90.7597 Z" fill="#000000" fill-rule="evenodd" fill-opacity="1" /><path clip-path="url(#clip110)" d="M822.73 74.4166 L826.086 74.4166 L826.086 102.798 L822.73 102.798 L822.73 74.4166 Z" fill="#000000" fill-rule="evenodd" fill-opacity="1" /><path clip-path="url(#clip110)" d="M846.094 99.6974 L852.112 99.6974 L852.112 78.9219 L845.565 80.2352 L845.565 76.879 L852.076 75.5658 L855.76 75.5658 L855.76 99.6974 L861.779 99.6974 L861.779 102.798 L846.094 102.798 L846.094 99.6974 Z" fill="#000000" fill-rule="evenodd" fill-opacity="1" /><polyline clip-path="url(#clip110)" style="stroke:#e26f46; stroke-linecap:butt; stroke-linejoin:round; stroke-width:3.1519; stroke-opacity:1; fill:none" points="
  681.475,130.031 734.015,130.031 
  "/>
<path clip-path="url(#clip110)" d="M742.772 115.265 L746.128 115.265 L746.128 143.647 L742.772 143.647 L742.772 115.265 Z" fill="#000000" fill-rule="evenodd" fill-opacity="1" /><path clip-path="url(#clip110)" d="M762.433 133.378 Q758.366 133.378 756.798 134.308 Q755.229 135.238 755.229 137.482 Q755.229 139.269 756.396 140.327 Q757.582 141.367 759.606 141.367 Q762.397 141.367 764.075 139.397 Q765.771 137.409 765.771 134.126 L765.771 133.378 L762.433 133.378 M769.127 131.991 L769.127 143.647 L765.771 143.647 L765.771 140.546 Q764.622 142.407 762.907 143.3 Q761.193 144.176 758.713 144.176 Q755.576 144.176 753.715 142.425 Q751.873 140.655 751.873 137.701 Q751.873 134.253 754.171 132.502 Q756.487 130.751 761.065 130.751 L765.771 130.751 L765.771 130.423 Q765.771 128.106 764.239 126.848 Q762.725 125.571 759.971 125.571 Q758.22 125.571 756.56 125.99 Q754.901 126.41 753.369 127.249 L753.369 124.148 Q755.211 123.437 756.943 123.09 Q758.676 122.725 760.318 122.725 Q764.75 122.725 766.938 125.024 Q769.127 127.322 769.127 131.991 Z" fill="#000000" fill-rule="evenodd" fill-opacity="1" /><path clip-path="url(#clip110)" d="M790.703 133.451 Q790.703 129.748 789.171 127.65 Q787.657 125.534 784.994 125.534 Q782.332 125.534 780.799 127.65 Q779.286 129.748 779.286 133.451 Q779.286 137.153 780.799 139.269 Q782.332 141.367 784.994 141.367 Q787.657 141.367 789.171 139.269 Q790.703 137.153 790.703 133.451 M779.286 126.319 Q780.344 124.495 781.949 123.619 Q783.572 122.725 785.815 122.725 Q789.536 122.725 791.852 125.68 Q794.187 128.635 794.187 133.451 Q794.187 138.266 791.852 141.221 Q789.536 144.176 785.815 144.176 Q783.572 144.176 781.949 143.3 Q780.344 142.407 779.286 140.583 L779.286 143.647 L775.912 143.647 L775.912 115.265 L779.286 115.265 L779.286 126.319 Z" fill="#000000" fill-rule="evenodd" fill-opacity="1" /><path clip-path="url(#clip110)" d="M817.222 132.593 L817.222 134.235 L801.792 134.235 Q802.011 137.701 803.871 139.525 Q805.75 141.33 809.088 141.33 Q811.021 141.33 812.826 140.856 Q814.65 140.382 816.438 139.433 L816.438 142.607 Q814.632 143.373 812.735 143.775 Q810.838 144.176 808.887 144.176 Q803.999 144.176 801.135 141.33 Q798.29 138.485 798.29 133.633 Q798.29 128.617 800.99 125.68 Q803.707 122.725 808.303 122.725 Q812.425 122.725 814.814 125.389 Q817.222 128.033 817.222 132.593 M813.866 131.608 Q813.83 128.854 812.316 127.213 Q810.82 125.571 808.34 125.571 Q805.531 125.571 803.835 127.158 Q802.157 128.745 801.902 131.627 L813.866 131.608 Z" fill="#000000" fill-rule="evenodd" fill-opacity="1" /><path clip-path="url(#clip110)" d="M822.73 115.265 L826.086 115.265 L826.086 143.647 L822.73 143.647 L822.73 115.265 Z" fill="#000000" fill-rule="evenodd" fill-opacity="1" /><path clip-path="url(#clip110)" d="M848.629 140.546 L861.487 140.546 L861.487 143.647 L844.197 143.647 L844.197 140.546 Q846.294 138.375 849.905 134.727 Q853.535 131.061 854.465 130.003 Q856.234 128.015 856.927 126.647 Q857.639 125.261 857.639 123.929 Q857.639 121.759 856.107 120.391 Q854.593 119.023 852.149 119.023 Q850.416 119.023 848.483 119.625 Q846.568 120.227 844.379 121.449 L844.379 117.728 Q846.604 116.834 848.538 116.378 Q850.471 115.922 852.076 115.922 Q856.307 115.922 858.824 118.038 Q861.341 120.154 861.341 123.692 Q861.341 125.37 860.703 126.884 Q860.083 128.38 858.423 130.423 Q857.967 130.952 855.523 133.487 Q853.079 136.004 848.629 140.546 Z" fill="#000000" fill-rule="evenodd" fill-opacity="1" /><polyline clip-path="url(#clip110)" style="stroke:#3da44d; stroke-linecap:butt; stroke-linejoin:round; stroke-width:3.1519; stroke-opacity:1; fill:none" points="
  681.475,170.879 734.015,170.879 
  "/>
<path clip-path="url(#clip110)" d="M742.772 156.114 L746.128 156.114 L746.128 184.496 L742.772 184.496 L742.772 156.114 Z" fill="#000000" fill-rule="evenodd" fill-opacity="1" /><path clip-path="url(#clip110)" d="M762.433 174.226 Q758.366 174.226 756.798 175.157 Q755.229 176.087 755.229 178.33 Q755.229 180.118 756.396 181.176 Q757.582 182.216 759.606 182.216 Q762.397 182.216 764.075 180.246 Q765.771 178.257 765.771 174.974 L765.771 174.226 L762.433 174.226 M769.127 172.84 L769.127 184.496 L765.771 184.496 L765.771 181.395 Q764.622 183.255 762.907 184.149 Q761.193 185.025 758.713 185.025 Q755.576 185.025 753.715 183.273 Q751.873 181.504 751.873 178.549 Q751.873 175.102 754.171 173.351 Q756.487 171.6 761.065 171.6 L765.771 171.6 L765.771 171.271 Q765.771 168.955 764.239 167.696 Q762.725 166.42 759.971 166.42 Q758.22 166.42 756.56 166.839 Q754.901 167.259 753.369 168.098 L753.369 164.997 Q755.211 164.286 756.943 163.939 Q758.676 163.574 760.318 163.574 Q764.75 163.574 766.938 165.872 Q769.127 168.171 769.127 172.84 Z" fill="#000000" fill-rule="evenodd" fill-opacity="1" /><path clip-path="url(#clip110)" d="M790.703 174.299 Q790.703 170.597 789.171 168.499 Q787.657 166.383 784.994 166.383 Q782.332 166.383 780.799 168.499 Q779.286 170.597 779.286 174.299 Q779.286 178.002 780.799 180.118 Q782.332 182.216 784.994 182.216 Q787.657 182.216 789.171 180.118 Q790.703 178.002 790.703 174.299 M779.286 167.167 Q780.344 165.343 781.949 164.468 Q783.572 163.574 785.815 163.574 Q789.536 163.574 791.852 166.529 Q794.187 169.484 794.187 174.299 Q794.187 179.115 791.852 182.07 Q789.536 185.025 785.815 185.025 Q783.572 185.025 781.949 184.149 Q780.344 183.255 779.286 181.431 L779.286 184.496 L775.912 184.496 L775.912 156.114 L779.286 156.114 L779.286 167.167 Z" fill="#000000" fill-rule="evenodd" fill-opacity="1" /><path clip-path="url(#clip110)" d="M817.222 173.442 L817.222 175.084 L801.792 175.084 Q802.011 178.549 803.871 180.373 Q805.75 182.179 809.088 182.179 Q811.021 182.179 812.826 181.705 Q814.65 181.231 816.438 180.282 L816.438 183.456 Q814.632 184.222 812.735 184.623 Q810.838 185.025 808.887 185.025 Q803.999 185.025 801.135 182.179 Q798.29 179.334 798.29 174.482 Q798.29 169.466 800.99 166.529 Q803.707 163.574 808.303 163.574 Q812.425 163.574 814.814 166.237 Q817.222 168.882 817.222 173.442 M813.866 172.457 Q813.83 169.703 812.316 168.061 Q810.82 166.42 808.34 166.42 Q805.531 166.42 803.835 168.007 Q802.157 169.593 801.902 172.475 L813.866 172.457 Z" fill="#000000" fill-rule="evenodd" fill-opacity="1" /><path clip-path="url(#clip110)" d="M822.73 156.114 L826.086 156.114 L826.086 184.496 L822.73 184.496 L822.73 156.114 Z" fill="#000000" fill-rule="evenodd" fill-opacity="1" /><path clip-path="url(#clip110)" d="M856.617 169.812 Q859.262 170.378 860.739 172.165 Q862.235 173.953 862.235 176.579 Q862.235 180.61 859.462 182.817 Q856.69 185.025 851.583 185.025 Q849.869 185.025 848.045 184.678 Q846.239 184.35 844.306 183.675 L844.306 180.118 Q845.838 181.012 847.662 181.468 Q849.486 181.924 851.474 181.924 Q854.939 181.924 856.745 180.556 Q858.569 179.188 858.569 176.579 Q858.569 174.172 856.873 172.822 Q855.195 171.454 852.185 171.454 L849.012 171.454 L849.012 168.426 L852.331 168.426 Q855.049 168.426 856.49 167.35 Q857.93 166.255 857.93 164.213 Q857.93 162.115 856.435 161.002 Q854.958 159.871 852.185 159.871 Q850.671 159.871 848.939 160.2 Q847.206 160.528 845.127 161.221 L845.127 157.938 Q847.224 157.354 849.048 157.062 Q850.89 156.771 852.514 156.771 Q856.708 156.771 859.152 158.686 Q861.596 160.583 861.596 163.83 Q861.596 166.091 860.301 167.66 Q859.006 169.21 856.617 169.812 Z" fill="#000000" fill-rule="evenodd" fill-opacity="1" /><polyline clip-path="url(#clip110)" style="stroke:#c271d2; stroke-linecap:butt; stroke-linejoin:round; stroke-width:3.1519; stroke-opacity:1; fill:none" points="
  681.475,211.728 734.015,211.728 
  "/>
<path clip-path="url(#clip110)" d="M742.772 196.963 L746.128 196.963 L746.128 225.344 L742.772 225.344 L742.772 196.963 Z" fill="#000000" fill-rule="evenodd" fill-opacity="1" /><path clip-path="url(#clip110)" d="M762.433 215.075 Q758.366 215.075 756.798 216.005 Q755.229 216.936 755.229 219.179 Q755.229 220.967 756.396 222.025 Q757.582 223.064 759.606 223.064 Q762.397 223.064 764.075 221.094 Q765.771 219.106 765.771 215.823 L765.771 215.075 L762.433 215.075 M769.127 213.689 L769.127 225.344 L765.771 225.344 L765.771 222.243 Q764.622 224.104 762.907 224.998 Q761.193 225.873 758.713 225.873 Q755.576 225.873 753.715 224.122 Q751.873 222.353 751.873 219.398 Q751.873 215.951 754.171 214.2 Q756.487 212.448 761.065 212.448 L765.771 212.448 L765.771 212.12 Q765.771 209.804 764.239 208.545 Q762.725 207.268 759.971 207.268 Q758.22 207.268 756.56 207.688 Q754.901 208.107 753.369 208.946 L753.369 205.846 Q755.211 205.134 756.943 204.788 Q758.676 204.423 760.318 204.423 Q764.75 204.423 766.938 206.721 Q769.127 209.019 769.127 213.689 Z" fill="#000000" fill-rule="evenodd" fill-opacity="1" /><path clip-path="url(#clip110)" d="M790.703 215.148 Q790.703 211.445 789.171 209.348 Q787.657 207.232 784.994 207.232 Q782.332 207.232 780.799 209.348 Q779.286 211.445 779.286 215.148 Q779.286 218.851 780.799 220.967 Q782.332 223.064 784.994 223.064 Q787.657 223.064 789.171 220.967 Q790.703 218.851 790.703 215.148 M779.286 208.016 Q780.344 206.192 781.949 205.317 Q783.572 204.423 785.815 204.423 Q789.536 204.423 791.852 207.378 Q794.187 210.333 794.187 215.148 Q794.187 219.963 791.852 222.918 Q789.536 225.873 785.815 225.873 Q783.572 225.873 781.949 224.998 Q780.344 224.104 779.286 222.28 L779.286 225.344 L775.912 225.344 L775.912 196.963 L779.286 196.963 L779.286 208.016 Z" fill="#000000" fill-rule="evenodd" fill-opacity="1" /><path clip-path="url(#clip110)" d="M817.222 214.291 L817.222 215.932 L801.792 215.932 Q802.011 219.398 803.871 221.222 Q805.75 223.028 809.088 223.028 Q811.021 223.028 812.826 222.553 Q814.65 222.079 816.438 221.131 L816.438 224.305 Q814.632 225.071 812.735 225.472 Q810.838 225.873 808.887 225.873 Q803.999 225.873 801.135 223.028 Q798.29 220.182 798.29 215.33 Q798.29 210.314 800.99 207.378 Q803.707 204.423 808.303 204.423 Q812.425 204.423 814.814 207.086 Q817.222 209.731 817.222 214.291 M813.866 213.306 Q813.83 210.552 812.316 208.91 Q810.82 207.268 808.34 207.268 Q805.531 207.268 803.835 208.855 Q802.157 210.442 801.902 213.324 L813.866 213.306 Z" fill="#000000" fill-rule="evenodd" fill-opacity="1" /><path clip-path="url(#clip110)" d="M822.73 196.963 L826.086 196.963 L826.086 225.344 L822.73 225.344 L822.73 196.963 Z" fill="#000000" fill-rule="evenodd" fill-opacity="1" /><path clip-path="url(#clip110)" d="M855.578 201.322 L846.276 215.859 L855.578 215.859 L855.578 201.322 M854.611 198.112 L859.244 198.112 L859.244 215.859 L863.128 215.859 L863.128 218.924 L859.244 218.924 L859.244 225.344 L855.578 225.344 L855.578 218.924 L843.285 218.924 L843.285 215.367 L854.611 198.112 Z" fill="#000000" fill-rule="evenodd" fill-opacity="1" /></svg>
