<?xml version="1.0" encoding="utf-8"?>
<svg xmlns="http://www.w3.org/2000/svg" xmlns:xlink="http://www.w3.org/1999/xlink" width="235" height="145.25" viewBox="0 0 940 581">
<defs>
  <clipPath id="clip400">
    <rect x="0" y="0" width="940" height="581"/>
  </clipPath>
</defs>
<path clip-path="url(#clip400)" d="
M0 581 L940 581 L940 0 L0 0  Z
  " fill="#ffffff" fill-rule="evenodd" fill-opacity="1"/>
<defs>
  <clipPath id="clip401">
    <rect x="188" y="0" width="659" height="581"/>
  </clipPath>
</defs>
<path clip-path="url(#clip400)" d="
M90.1111 502.308 L909.275 502.308 L909.275 30.7272 L90.1111 30.7272  Z
  " fill="#ffffff" fill-rule="evenodd" fill-opacity="1"/>
<defs>
  <clipPath id="clip402">
    <rect x="90" y="30" width="820" height="473"/>
  </clipPath>
</defs>
<polyline clip-path="url(#clip402)" style="stroke:#000000; stroke-linecap:butt; stroke-linejoin:round; stroke-width:1.30079; stroke-opacity:0.1; fill:none" points="
  105.567,502.308 105.567,30.7272 
  "/>
<polyline clip-path="url(#clip402)" style="stroke:#000000; stroke-linecap:butt; stroke-linejoin:round; stroke-width:1.30079; stroke-opacity:0.1; fill:none" points="
  298.766,502.308 298.766,30.7272 
  "/>
<polyline clip-path="url(#clip402)" style="stroke:#000000; stroke-linecap:butt; stroke-linejoin:round; stroke-width:1.30079; stroke-opacity:0.1; fill:none" points="
  491.965,502.308 491.965,30.7272 
  "/>
<polyline clip-path="url(#clip402)" style="stroke:#000000; stroke-linecap:butt; stroke-linejoin:round; stroke-width:1.30079; stroke-opacity:0.1; fill:none" points="
  685.164,502.308 685.164,30.7272 
  "/>
<polyline clip-path="url(#clip402)" style="stroke:#000000; stroke-linecap:butt; stroke-linejoin:round; stroke-width:1.30079; stroke-opacity:0.1; fill:none" points="
  878.363,502.308 878.363,30.7272 
  "/>
<polyline clip-path="url(#clip400)" style="stroke:#000000; stroke-linecap:butt; stroke-linejoin:round; stroke-width:2.60157; stroke-opacity:1; fill:none" points="
  90.1111,502.308 909.275,502.308 
  "/>
<polyline clip-path="url(#clip400)" style="stroke:#000000; stroke-linecap:butt; stroke-linejoin:round; stroke-width:2.60157; stroke-opacity:1; fill:none" points="
  105.567,502.308 105.567,483.399 
  "/>
<polyline clip-path="url(#clip400)" style="stroke:#000000; stroke-linecap:butt; stroke-linejoin:round; stroke-width:2.60157; stroke-opacity:1; fill:none" points="
  298.766,502.308 298.766,483.399 
  "/>
<polyline clip-path="url(#clip400)" style="stroke:#000000; stroke-linecap:butt; stroke-linejoin:round; stroke-width:2.60157; stroke-opacity:1; fill:none" points="
  491.965,502.308 491.965,483.399 
  "/>
<polyline clip-path="url(#clip400)" style="stroke:#000000; stroke-linecap:butt; stroke-linejoin:round; stroke-width:2.60157; stroke-opacity:1; fill:none" points="
  685.164,502.308 685.164,483.399 
  "/>
<polyline clip-path="url(#clip400)" style="stroke:#000000; stroke-linecap:butt; stroke-linejoin:round; stroke-width:2.60157; stroke-opacity:1; fill:none" points="
  878.363,502.308 878.363,483.399 
  "/>
<path clip-path="url(#clip400)" d="M105.567 515.545 Q103.806 515.545 102.914 517.284 Q102.033 519.012 102.033 522.49 Q102.033 525.956 102.914 527.695 Q103.806 529.423 105.567 529.423 Q107.34 529.423 108.22 527.695 Q109.112 525.956 109.112 522.49 Q109.112 519.012 108.22 517.284 Q107.34 515.545 105.567 515.545 M105.567 513.739 Q108.401 513.739 109.891 515.986 Q111.393 518.221 111.393 522.49 Q111.393 526.746 109.891 528.993 Q108.401 531.229 105.567 531.229 Q102.733 531.229 101.231 528.993 Q99.7411 526.746 99.7411 522.49 Q99.7411 518.221 101.231 515.986 Q102.733 513.739 105.567 513.739 Z" fill="#000000" fill-rule="evenodd" fill-opacity="1" /><path clip-path="url(#clip400)" d="M288.655 528.982 L296.615 528.982 L296.615 530.902 L285.912 530.902 L285.912 528.982 Q287.21 527.639 289.446 525.38 Q291.693 523.111 292.268 522.456 Q293.364 521.225 293.793 520.378 Q294.233 519.52 294.233 518.696 Q294.233 517.352 293.285 516.505 Q292.347 515.658 290.835 515.658 Q289.762 515.658 288.565 516.031 Q287.38 516.403 286.025 517.16 L286.025 514.857 Q287.402 514.303 288.599 514.021 Q289.796 513.739 290.789 513.739 Q293.409 513.739 294.967 515.049 Q296.525 516.358 296.525 518.549 Q296.525 519.588 296.13 520.525 Q295.746 521.451 294.718 522.715 Q294.436 523.043 292.923 524.612 Q291.41 526.171 288.655 528.982 Z" fill="#000000" fill-rule="evenodd" fill-opacity="1" /><path clip-path="url(#clip400)" d="M301.425 514.044 L310.378 514.044 L310.378 515.963 L303.514 515.963 L303.514 520.096 Q304.011 519.926 304.507 519.847 Q305.004 519.757 305.501 519.757 Q308.324 519.757 309.972 521.304 Q311.62 522.851 311.62 525.493 Q311.62 528.214 309.927 529.727 Q308.233 531.229 305.151 531.229 Q304.09 531.229 302.983 531.049 Q301.888 530.868 300.714 530.507 L300.714 528.214 Q301.73 528.768 302.814 529.039 Q303.898 529.31 305.106 529.31 Q307.059 529.31 308.199 528.282 Q309.34 527.255 309.34 525.493 Q309.34 523.732 308.199 522.704 Q307.059 521.677 305.106 521.677 Q304.191 521.677 303.277 521.88 Q302.373 522.083 301.425 522.512 L301.425 514.044 Z" fill="#000000" fill-rule="evenodd" fill-opacity="1" /><path clip-path="url(#clip400)" d="M479.625 514.044 L488.578 514.044 L488.578 515.963 L481.713 515.963 L481.713 520.096 Q482.21 519.926 482.707 519.847 Q483.204 519.757 483.701 519.757 Q486.523 519.757 488.172 521.304 Q489.82 522.851 489.82 525.493 Q489.82 528.214 488.126 529.727 Q486.433 531.229 483.351 531.229 Q482.289 531.229 481.183 531.049 Q480.088 530.868 478.913 530.507 L478.913 528.214 Q479.93 528.768 481.013 529.039 Q482.097 529.31 483.305 529.31 Q485.259 529.31 486.399 528.282 Q487.539 527.255 487.539 525.493 Q487.539 523.732 486.399 522.704 Q485.259 521.677 483.305 521.677 Q482.391 521.677 481.476 521.88 Q480.573 522.083 479.625 522.512 L479.625 514.044 Z" fill="#000000" fill-rule="evenodd" fill-opacity="1" /><path clip-path="url(#clip400)" d="M499.191 515.545 Q497.43 515.545 496.538 517.284 Q495.657 519.012 495.657 522.49 Q495.657 525.956 496.538 527.695 Q497.43 529.423 499.191 529.423 Q500.964 529.423 501.844 527.695 Q502.736 525.956 502.736 522.49 Q502.736 519.012 501.844 517.284 Q500.964 515.545 499.191 515.545 M499.191 513.739 Q502.025 513.739 503.515 515.986 Q505.017 518.221 505.017 522.49 Q505.017 526.746 503.515 528.993 Q502.025 531.229 499.191 531.229 Q496.357 531.229 494.856 528.993 Q493.365 526.746 493.365 522.49 Q493.365 518.221 494.856 515.986 Q496.357 513.739 499.191 513.739 Z" fill="#000000" fill-rule="evenodd" fill-opacity="1" /><path clip-path="url(#clip400)" d="M672.412 514.044 L683.251 514.044 L683.251 515.015 L677.131 530.902 L674.749 530.902 L680.507 515.963 L672.412 515.963 L672.412 514.044 Z" fill="#000000" fill-rule="evenodd" fill-opacity="1" /><path clip-path="url(#clip400)" d="M687.722 514.044 L696.675 514.044 L696.675 515.963 L689.81 515.963 L689.81 520.096 Q690.307 519.926 690.804 519.847 Q691.301 519.757 691.798 519.757 Q694.62 519.757 696.269 521.304 Q697.917 522.851 697.917 525.493 Q697.917 528.214 696.223 529.727 Q694.53 531.229 691.448 531.229 Q690.386 531.229 689.28 531.049 Q688.185 530.868 687.01 530.507 L687.01 528.214 Q688.027 528.768 689.11 529.039 Q690.194 529.31 691.402 529.31 Q693.356 529.31 694.496 528.282 Q695.636 527.255 695.636 525.493 Q695.636 523.732 694.496 522.704 Q693.356 521.677 691.402 521.677 Q690.488 521.677 689.573 521.88 Q688.67 522.083 687.722 522.512 L687.722 514.044 Z" fill="#000000" fill-rule="evenodd" fill-opacity="1" /><path clip-path="url(#clip400)" d="M858.661 528.982 L862.387 528.982 L862.387 516.121 L858.334 516.934 L858.334 514.857 L862.365 514.044 L864.645 514.044 L864.645 528.982 L868.371 528.982 L868.371 530.902 L858.661 530.902 L858.661 528.982 Z" fill="#000000" fill-rule="evenodd" fill-opacity="1" /><path clip-path="url(#clip400)" d="M877.855 515.545 Q876.094 515.545 875.202 517.284 Q874.321 519.012 874.321 522.49 Q874.321 525.956 875.202 527.695 Q876.094 529.423 877.855 529.423 Q879.628 529.423 880.509 527.695 Q881.401 525.956 881.401 522.49 Q881.401 519.012 880.509 517.284 Q879.628 515.545 877.855 515.545 M877.855 513.739 Q880.689 513.739 882.18 515.986 Q883.681 518.221 883.681 522.49 Q883.681 526.746 882.18 528.993 Q880.689 531.229 877.855 531.229 Q875.021 531.229 873.52 528.993 Q872.029 526.746 872.029 522.49 Q872.029 518.221 873.52 515.986 Q875.021 513.739 877.855 513.739 Z" fill="#000000" fill-rule="evenodd" fill-opacity="1" /><path clip-path="url(#clip400)" d="M892.567 515.545 Q890.806 515.545 889.914 517.284 Q889.033 519.012 889.033 522.49 Q889.033 525.956 889.914 527.695 Q890.806 529.423 892.567 529.423 Q894.34 529.423 895.22 527.695 Q896.112 525.956 896.112 522.49 Q896.112 519.012 895.22 517.284 Q894.34 515.545 892.567 515.545 M892.567 513.739 Q895.401 513.739 896.891 515.986 Q898.393 518.221 898.393 522.49 Q898.393 526.746 896.891 528.993 Q895.401 531.229 892.567 531.229 Q889.733 531.229 888.231 528.993 Q886.741 526.746 886.741 522.49 Q886.741 518.221 888.231 515.986 Q889.733 513.739 892.567 513.739 Z" fill="#000000" fill-rule="evenodd" fill-opacity="1" /><path clip-path="url(#clip400)" d="M462.743 546.192 L481.756 546.192 L481.756 548.752 L473.778 548.752 L473.778 568.67 L470.722 568.67 L470.722 548.752 L462.743 548.752 L462.743 546.192 Z" fill="#000000" fill-rule="evenodd" fill-opacity="1" /><path clip-path="url(#clip400)" d="M483.623 551.808 L486.393 551.808 L486.393 568.67 L483.623 568.67 L483.623 551.808 M483.623 545.244 L486.393 545.244 L486.393 548.752 L483.623 548.752 L483.623 545.244 Z" fill="#000000" fill-rule="evenodd" fill-opacity="1" /><path clip-path="url(#clip400)" d="M505.316 555.045 Q506.355 553.178 507.8 552.29 Q509.245 551.401 511.202 551.401 Q513.837 551.401 515.267 553.253 Q516.697 555.09 516.697 558.493 L516.697 568.67 L513.912 568.67 L513.912 558.583 Q513.912 556.159 513.054 554.985 Q512.196 553.81 510.434 553.81 Q508.282 553.81 507.032 555.241 Q505.783 556.671 505.783 559.14 L505.783 568.67 L502.998 568.67 L502.998 558.583 Q502.998 556.144 502.139 554.985 Q501.281 553.81 499.49 553.81 Q497.367 553.81 496.118 555.256 Q494.868 556.686 494.868 559.14 L494.868 568.67 L492.083 568.67 L492.083 551.808 L494.868 551.808 L494.868 554.428 Q495.817 552.877 497.142 552.139 Q498.466 551.401 500.288 551.401 Q502.124 551.401 503.404 552.335 Q504.699 553.268 505.316 555.045 Z" fill="#000000" fill-rule="evenodd" fill-opacity="1" /><path clip-path="url(#clip400)" d="M536.643 559.546 L536.643 560.901 L523.908 560.901 Q524.088 563.762 525.624 565.267 Q527.174 566.758 529.929 566.758 Q531.525 566.758 533.015 566.366 Q534.521 565.975 535.996 565.192 L535.996 567.812 Q534.506 568.444 532.94 568.775 Q531.374 569.107 529.764 569.107 Q525.729 569.107 523.366 566.758 Q521.017 564.409 521.017 560.405 Q521.017 556.264 523.245 553.84 Q525.488 551.401 529.282 551.401 Q532.684 551.401 534.656 553.6 Q536.643 555.783 536.643 559.546 M533.873 558.733 Q533.843 556.46 532.594 555.105 Q531.359 553.75 529.312 553.75 Q526.994 553.75 525.594 555.06 Q524.209 556.37 523.998 558.748 L533.873 558.733 Z" fill="#000000" fill-rule="evenodd" fill-opacity="1" /><polyline clip-path="url(#clip402)" style="stroke:#000000; stroke-linecap:butt; stroke-linejoin:round; stroke-width:1.30079; stroke-opacity:0.1; fill:none" points="
  90.1111,483.076 909.275,483.076 
  "/>
<polyline clip-path="url(#clip402)" style="stroke:#000000; stroke-linecap:butt; stroke-linejoin:round; stroke-width:1.30079; stroke-opacity:0.1; fill:none" points="
  90.1111,367.645 909.275,367.645 
  "/>
<polyline clip-path="url(#clip402)" style="stroke:#000000; stroke-linecap:butt; stroke-linejoin:round; stroke-width:1.30079; stroke-opacity:0.1; fill:none" points="
  90.1111,252.214 909.275,252.214 
  "/>
<polyline clip-path="url(#clip402)" style="stroke:#000000; stroke-linecap:butt; stroke-linejoin:round; stroke-width:1.30079; stroke-opacity:0.1; fill:none" points="
  90.1111,136.784 909.275,136.784 
  "/>
<polyline clip-path="url(#clip400)" style="stroke:#000000; stroke-linecap:butt; stroke-linejoin:round; stroke-width:2.60157; stroke-opacity:1; fill:none" points="
  90.1111,502.308 90.1111,30.7272 
  "/>
<polyline clip-path="url(#clip400)" style="stroke:#000000; stroke-linecap:butt; stroke-linejoin:round; stroke-width:2.60157; stroke-opacity:1; fill:none" points="
  90.1111,483.076 109.019,483.076 
  "/>
<polyline clip-path="url(#clip400)" style="stroke:#000000; stroke-linecap:butt; stroke-linejoin:round; stroke-width:2.60157; stroke-opacity:1; fill:none" points="
  90.1111,367.645 109.019,367.645 
  "/>
<polyline clip-path="url(#clip400)" style="stroke:#000000; stroke-linecap:butt; stroke-linejoin:round; stroke-width:2.60157; stroke-opacity:1; fill:none" points="
  90.1111,252.214 109.019,252.214 
  "/>
<polyline clip-path="url(#clip400)" style="stroke:#000000; stroke-linecap:butt; stroke-linejoin:round; stroke-width:2.60157; stroke-opacity:1; fill:none" points="
  90.1111,136.784 109.019,136.784 
  "/>
<path clip-path="url(#clip400)" d="M46.396 483.296 L60.8705 483.296 L60.8705 485.215 L46.396 485.215 L46.396 483.296 Z" fill="#000000" fill-rule="evenodd" fill-opacity="1" /><path clip-path="url(#clip400)" d="M65.8157 474.647 L74.7691 474.647 L74.7691 476.566 L67.9045 476.566 L67.9045 480.699 Q68.4013 480.529 68.8981 480.45 Q69.3948 480.36 69.8916 480.36 Q72.7143 480.36 74.3627 481.907 Q76.0111 483.454 76.0111 486.096 Q76.0111 488.817 74.3175 490.33 Q72.6239 491.832 69.5416 491.832 Q68.4803 491.832 67.3738 491.652 Q66.2787 491.471 65.1044 491.11 L65.1044 488.817 Q66.1206 489.371 67.2045 489.642 Q68.2884 489.913 69.4965 489.913 Q71.4497 489.913 72.5901 488.885 Q73.7304 487.858 73.7304 486.096 Q73.7304 484.335 72.5901 483.307 Q71.4497 482.28 69.4965 482.28 Q68.5819 482.28 67.6674 482.483 Q66.7641 482.686 65.8157 483.115 L65.8157 474.647 Z" fill="#000000" fill-rule="evenodd" fill-opacity="1" /><path clip-path="url(#clip400)" d="M70.1852 360.718 Q68.4239 360.718 67.5319 362.457 Q66.6512 364.184 66.6512 367.662 Q66.6512 371.128 67.5319 372.867 Q68.4239 374.595 70.1852 374.595 Q71.9578 374.595 72.8385 372.867 Q73.7304 371.128 73.7304 367.662 Q73.7304 364.184 72.8385 362.457 Q71.9578 360.718 70.1852 360.718 M70.1852 358.911 Q73.0191 358.911 74.5095 361.158 Q76.0111 363.394 76.0111 367.662 Q76.0111 371.919 74.5095 374.166 Q73.0191 376.402 70.1852 376.402 Q67.3513 376.402 65.8496 374.166 Q64.3593 371.919 64.3593 367.662 Q64.3593 363.394 65.8496 361.158 Q67.3513 358.911 70.1852 358.911 Z" fill="#000000" fill-rule="evenodd" fill-opacity="1" /><path clip-path="url(#clip400)" d="M65.8157 243.785 L74.7691 243.785 L74.7691 245.705 L67.9045 245.705 L67.9045 249.838 Q68.4013 249.668 68.8981 249.589 Q69.3948 249.499 69.8916 249.499 Q72.7143 249.499 74.3627 251.046 Q76.0111 252.593 76.0111 255.235 Q76.0111 257.956 74.3175 259.469 Q72.6239 260.971 69.5416 260.971 Q68.4803 260.971 67.3738 260.79 Q66.2787 260.61 65.1044 260.248 L65.1044 257.956 Q66.1206 258.509 67.2045 258.78 Q68.2884 259.051 69.4965 259.051 Q71.4497 259.051 72.5901 258.024 Q73.7304 256.996 73.7304 255.235 Q73.7304 253.473 72.5901 252.446 Q71.4497 251.418 69.4965 251.418 Q68.5819 251.418 67.6674 251.622 Q66.7641 251.825 65.8157 252.254 L65.8157 243.785 Z" fill="#000000" fill-rule="evenodd" fill-opacity="1" /><path clip-path="url(#clip400)" d="M50.9912 143.293 L54.7171 143.293 L54.7171 130.432 L50.6638 131.245 L50.6638 129.168 L54.6945 128.355 L56.9752 128.355 L56.9752 143.293 L60.7011 143.293 L60.7011 145.213 L50.9912 145.213 L50.9912 143.293 Z" fill="#000000" fill-rule="evenodd" fill-opacity="1" /><path clip-path="url(#clip400)" d="M70.1852 129.856 Q68.4239 129.856 67.5319 131.595 Q66.6512 133.323 66.6512 136.801 Q66.6512 140.267 67.5319 142.006 Q68.4239 143.734 70.1852 143.734 Q71.9578 143.734 72.8385 142.006 Q73.7304 140.267 73.7304 136.801 Q73.7304 133.323 72.8385 131.595 Q71.9578 129.856 70.1852 129.856 M70.1852 128.05 Q73.0191 128.05 74.5095 130.297 Q76.0111 132.533 76.0111 136.801 Q76.0111 141.058 74.5095 143.305 Q73.0191 145.54 70.1852 145.54 Q67.3513 145.54 65.8496 143.305 Q64.3593 141.058 64.3593 136.801 Q64.3593 132.533 65.8496 130.297 Q67.3513 128.05 70.1852 128.05 Z" fill="#000000" fill-rule="evenodd" fill-opacity="1" /><path clip-path="url(#clip400)" d="M5.13997 405.29 Q5.13997 408.602 7.60884 410.559 Q10.0777 412.502 14.338 412.502 Q18.5833 412.502 21.0521 410.559 Q23.521 408.602 23.521 405.29 Q23.521 401.978 21.0521 400.051 Q18.5833 398.109 14.338 398.109 Q10.0777 398.109 7.60884 400.051 Q5.13997 401.978 5.13997 405.29 M25.1468 401.029 L29.5276 397.025 L29.5276 400.698 L25.9296 404.025 Q25.9597 404.522 25.9748 404.793 Q25.9898 405.049 25.9898 405.29 Q25.9898 410.033 22.8285 412.878 Q19.6521 415.708 14.338 415.708 Q9.00887 415.708 5.84751 412.878 Q2.67111 410.033 2.67111 405.29 Q2.67111 400.563 5.84751 397.732 Q9.00887 394.902 14.338 394.902 Q18.2521 394.902 21.0371 396.483 Q23.8221 398.049 25.1468 401.029 Z" fill="#000000" fill-rule="evenodd" fill-opacity="1" /><path clip-path="url(#clip400)" d="M18.8994 390.551 L8.69273 390.551 L8.69273 387.781 L18.794 387.781 Q21.1876 387.781 22.3919 386.847 Q23.5812 385.914 23.5812 384.047 Q23.5812 381.804 22.1511 380.509 Q20.7209 379.199 18.2521 379.199 L8.69273 379.199 L8.69273 376.429 L25.5533 376.429 L25.5533 379.199 L22.964 379.199 Q24.4995 380.208 25.2522 381.548 Q25.9898 382.873 25.9898 384.634 Q25.9898 387.54 24.1834 389.045 Q22.3769 390.551 18.8994 390.551 M8.28627 383.58 L8.28627 383.58 Z" fill="#000000" fill-rule="evenodd" fill-opacity="1" /><path clip-path="url(#clip400)" d="M17.0778 363.06 Q17.0778 366.417 17.8456 367.712 Q18.6134 369.007 20.465 369.007 Q21.9403 369.007 22.8134 368.043 Q23.6715 367.065 23.6715 365.394 Q23.6715 363.09 22.0457 361.705 Q20.4048 360.305 17.6951 360.305 L17.0778 360.305 L17.0778 363.06 M15.9337 357.535 L25.5533 357.535 L25.5533 360.305 L22.9941 360.305 Q24.5296 361.253 25.2673 362.669 Q25.9898 364.084 25.9898 366.131 Q25.9898 368.721 24.5447 370.256 Q23.0844 371.777 20.6457 371.777 Q17.8004 371.777 16.3552 369.88 Q14.9101 367.968 14.9101 364.189 L14.9101 360.305 L14.6391 360.305 Q12.7272 360.305 11.6885 361.569 Q10.6347 362.819 10.6347 365.092 Q10.6347 366.538 10.9809 367.908 Q11.3272 369.278 12.0197 370.542 L9.46049 370.542 Q8.87338 369.022 8.58735 367.592 Q8.28627 366.161 8.28627 364.806 Q8.28627 361.148 10.1831 359.341 Q12.0799 357.535 15.9337 357.535 Z" fill="#000000" fill-rule="evenodd" fill-opacity="1" /><path clip-path="url(#clip400)" d="M15.3767 337.812 L25.5533 337.812 L25.5533 340.582 L15.4671 340.582 Q13.0735 340.582 11.8842 341.516 Q10.6949 342.449 10.6949 344.316 Q10.6949 346.559 12.1251 347.854 Q13.5552 349.149 16.0241 349.149 L25.5533 349.149 L25.5533 351.934 L8.69273 351.934 L8.69273 349.149 L11.3121 349.149 Q9.79168 348.155 9.03897 346.815 Q8.28627 345.46 8.28627 343.699 Q8.28627 340.793 10.0928 339.303 Q11.8842 337.812 15.3767 337.812 Z" fill="#000000" fill-rule="evenodd" fill-opacity="1" /><path clip-path="url(#clip400)" d="M3.90554 329.547 L8.69273 329.547 L8.69273 323.841 L10.8455 323.841 L10.8455 329.547 L19.9983 329.547 Q22.0607 329.547 22.6478 328.99 Q23.235 328.418 23.235 326.686 L23.235 323.841 L25.5533 323.841 L25.5533 326.686 Q25.5533 329.893 24.364 331.113 Q23.1597 332.332 19.9983 332.332 L10.8455 332.332 L10.8455 334.365 L8.69273 334.365 L8.69273 332.332 L3.90554 332.332 L3.90554 329.547 Z" fill="#000000" fill-rule="evenodd" fill-opacity="1" /><path clip-path="url(#clip400)" d="M8.69273 320.198 L8.69273 317.427 L25.5533 317.427 L25.5533 320.198 L8.69273 320.198 M2.12916 320.198 L2.12916 317.427 L5.63676 317.427 L5.63676 320.198 L2.12916 320.198 Z" fill="#000000" fill-rule="evenodd" fill-opacity="1" /><path clip-path="url(#clip400)" d="M3.90554 308.891 L8.69273 308.891 L8.69273 303.185 L10.8455 303.185 L10.8455 308.891 L19.9983 308.891 Q22.0607 308.891 22.6478 308.334 Q23.235 307.762 23.235 306.03 L23.235 303.185 L25.5533 303.185 L25.5533 306.03 Q25.5533 309.237 24.364 310.457 Q23.1597 311.676 19.9983 311.676 L10.8455 311.676 L10.8455 313.709 L8.69273 313.709 L8.69273 311.676 L3.90554 311.676 L3.90554 308.891 Z" fill="#000000" fill-rule="evenodd" fill-opacity="1" /><path clip-path="url(#clip400)" d="M27.1189 292.526 Q30.1297 293.7 31.048 294.814 Q31.9663 295.928 31.9663 297.795 L31.9663 300.008 L29.648 300.008 L29.648 298.382 Q29.648 297.238 29.106 296.606 Q28.5641 295.974 26.5468 295.206 L25.2823 294.709 L8.69273 301.529 L8.69273 298.593 L21.8801 293.324 L8.69273 288.054 L8.69273 285.119 L27.1189 292.526 Z" fill="#000000" fill-rule="evenodd" fill-opacity="1" /><path clip-path="url(#clip400)" d="M10.6347 264.96 Q10.6347 267.188 12.381 268.483 Q14.1122 269.777 17.1381 269.777 Q20.1639 269.777 21.9102 268.498 Q23.6414 267.203 23.6414 264.96 Q23.6414 262.746 21.8951 261.452 Q20.1489 260.157 17.1381 260.157 Q14.1423 260.157 12.396 261.452 Q10.6347 262.746 10.6347 264.96 M8.28627 264.96 Q8.28627 261.346 10.6347 259.284 Q12.9831 257.221 17.1381 257.221 Q21.2779 257.221 23.6414 259.284 Q25.9898 261.346 25.9898 264.96 Q25.9898 268.588 23.6414 270.65 Q21.2779 272.698 17.1381 272.698 Q12.9831 272.698 10.6347 270.65 Q8.28627 268.588 8.28627 264.96 Z" fill="#000000" fill-rule="evenodd" fill-opacity="1" /><path clip-path="url(#clip400)" d="M2.12916 244.093 L4.43243 244.093 L4.43243 246.743 Q4.43243 248.233 5.03459 248.82 Q5.63676 249.392 7.20238 249.392 L8.69273 249.392 L8.69273 244.831 L10.8455 244.831 L10.8455 249.392 L25.5533 249.392 L25.5533 252.178 L10.8455 252.178 L10.8455 254.827 L8.69273 254.827 L8.69273 252.178 L7.51851 252.178 Q4.7034 252.178 3.42381 250.868 Q2.12916 249.558 2.12916 246.713 L2.12916 244.093 Z" fill="#000000" fill-rule="evenodd" fill-opacity="1" /><path clip-path="url(#clip400)" d="M8.69273 231.973 L8.69273 229.203 L25.5533 229.203 L25.5533 231.973 L8.69273 231.973 M2.12916 231.973 L2.12916 229.203 L5.63676 229.203 L5.63676 231.973 L2.12916 231.973 Z" fill="#000000" fill-rule="evenodd" fill-opacity="1" /><path clip-path="url(#clip400)" d="M15.3767 209.39 L25.5533 209.39 L25.5533 212.161 L15.4671 212.161 Q13.0735 212.161 11.8842 213.094 Q10.6949 214.027 10.6949 215.894 Q10.6949 218.138 12.1251 219.432 Q13.5552 220.727 16.0241 220.727 L25.5533 220.727 L25.5533 223.512 L8.69273 223.512 L8.69273 220.727 L11.3121 220.727 Q9.79168 219.733 9.03897 218.394 Q8.28627 217.039 8.28627 215.277 Q8.28627 212.371 10.0928 210.881 Q11.8842 209.39 15.3767 209.39 Z" fill="#000000" fill-rule="evenodd" fill-opacity="1" /><path clip-path="url(#clip400)" d="M3.90554 201.125 L8.69273 201.125 L8.69273 195.419 L10.8455 195.419 L10.8455 201.125 L19.9983 201.125 Q22.0607 201.125 22.6478 200.568 Q23.235 199.996 23.235 198.265 L23.235 195.419 L25.5533 195.419 L25.5533 198.265 Q25.5533 201.471 24.364 202.691 Q23.1597 203.91 19.9983 203.91 L10.8455 203.91 L10.8455 205.943 L8.69273 205.943 L8.69273 203.91 L3.90554 203.91 L3.90554 201.125 Z" fill="#000000" fill-rule="evenodd" fill-opacity="1" /><path clip-path="url(#clip400)" d="M16.4305 177.353 L17.7854 177.353 L17.7854 190.09 Q20.6457 189.909 22.1511 188.373 Q23.6414 186.823 23.6414 184.067 Q23.6414 182.472 23.25 180.981 Q22.8586 179.476 22.0758 178 L24.6952 178 Q25.3275 179.491 25.6587 181.056 Q25.9898 182.622 25.9898 184.233 Q25.9898 188.268 23.6414 190.632 Q21.293 192.98 17.2886 192.98 Q13.1487 192.98 10.725 190.752 Q8.28627 188.509 8.28627 184.715 Q8.28627 181.312 10.4842 179.34 Q12.667 177.353 16.4305 177.353 M15.6176 180.123 Q13.3444 180.153 11.9896 181.403 Q10.6347 182.637 10.6347 184.685 Q10.6347 187.003 11.9444 188.403 Q13.2541 189.788 15.6327 189.999 L15.6176 180.123 Z" fill="#000000" fill-rule="evenodd" fill-opacity="1" /><path clip-path="url(#clip400)" d="M11.282 163.035 Q11.0111 163.502 10.8906 164.059 Q10.7551 164.601 10.7551 165.263 Q10.7551 167.612 12.2907 168.877 Q13.8111 170.126 16.6714 170.126 L25.5533 170.126 L25.5533 172.911 L8.69273 172.911 L8.69273 170.126 L11.3121 170.126 Q9.77662 169.253 9.03897 167.853 Q8.28627 166.453 8.28627 164.45 Q8.28627 164.164 8.33143 163.818 Q8.36154 163.472 8.43681 163.05 L11.282 163.035 Z" fill="#000000" fill-rule="evenodd" fill-opacity="1" /><path clip-path="url(#clip400)" d="M16.4305 146.384 L17.7854 146.384 L17.7854 159.121 Q20.6457 158.94 22.1511 157.404 Q23.6414 155.854 23.6414 153.099 Q23.6414 151.503 23.25 150.012 Q22.8586 148.507 22.0758 147.031 L24.6952 147.031 Q25.3275 148.522 25.6587 150.088 Q25.9898 151.653 25.9898 153.264 Q25.9898 157.299 23.6414 159.663 Q21.293 162.011 17.2886 162.011 Q13.1487 162.011 10.725 159.783 Q8.28627 157.54 8.28627 153.746 Q8.28627 150.344 10.4842 148.371 Q12.667 146.384 16.4305 146.384 M15.6176 149.154 Q13.3444 149.184 11.9896 150.434 Q10.6347 151.668 10.6347 153.716 Q10.6347 156.034 11.9444 157.435 Q13.2541 158.82 15.6327 159.03 L15.6176 149.154 Z" fill="#000000" fill-rule="evenodd" fill-opacity="1" /><path clip-path="url(#clip400)" d="M9.18952 131.088 L11.8089 131.088 Q11.2068 132.262 10.9057 133.527 Q10.6046 134.791 10.6046 136.146 Q10.6046 138.209 11.2369 139.248 Q11.8691 140.272 13.1337 140.272 Q14.0971 140.272 14.6541 139.534 Q15.1961 138.796 15.6929 136.568 L15.9036 135.619 Q16.5359 132.669 17.6951 131.434 Q18.8392 130.184 20.9016 130.184 Q23.25 130.184 24.6199 132.051 Q25.9898 133.903 25.9898 137.155 Q25.9898 138.51 25.7189 139.985 Q25.463 141.446 24.9361 143.072 L22.0758 143.072 Q22.8737 141.536 23.2801 140.046 Q23.6715 138.555 23.6715 137.095 Q23.6715 135.138 23.0091 134.084 Q22.3317 133.03 21.1123 133.03 Q19.9833 133.03 19.3811 133.798 Q18.779 134.551 18.222 137.125 L17.9961 138.089 Q17.4542 140.663 16.3402 141.807 Q15.2111 142.951 13.2541 142.951 Q10.8756 142.951 9.58092 141.265 Q8.28627 139.579 8.28627 136.478 Q8.28627 134.942 8.51208 133.587 Q8.73789 132.232 9.18952 131.088 Z" fill="#000000" fill-rule="evenodd" fill-opacity="1" /><path clip-path="url(#clip400)" d="M3.90554 123.033 L8.69273 123.033 L8.69273 117.327 L10.8455 117.327 L10.8455 123.033 L19.9983 123.033 Q22.0607 123.033 22.6478 122.476 Q23.235 121.904 23.235 120.173 L23.235 117.327 L25.5533 117.327 L25.5533 120.173 Q25.5533 123.379 24.364 124.599 Q23.1597 125.818 19.9983 125.818 L10.8455 125.818 L10.8455 127.851 L8.69273 127.851 L8.69273 125.818 L3.90554 125.818 L3.90554 123.033 Z" fill="#000000" fill-rule="evenodd" fill-opacity="1" /><polyline clip-path="url(#clip402)" style="stroke:#009af9; stroke-linecap:butt; stroke-linejoin:round; stroke-width:2.60157; stroke-opacity:1; fill:none" points="
  113.295,336.508 121.023,359.623 128.751,318.505 136.479,308.827 144.207,311.615 151.935,273.375 159.663,292.862 167.391,268.159 175.119,251.539 182.847,245.169 
  190.575,272.091 198.303,233.442 206.031,253.374 213.759,253.41 221.486,241.446 229.214,232.554 236.942,262.144 244.67,281.291 252.398,309.681 260.126,299.239 
  267.854,318.747 275.582,316.148 283.31,285.397 291.038,256.219 298.766,247.355 306.494,249.139 314.222,216.69 321.95,174.32 329.678,141.738 337.406,131.09 
  345.134,116.708 352.862,86.3983 360.59,84.5383 368.318,104.544 376.046,113.522 383.774,100.196 391.502,87.6688 399.23,44.0739 406.958,65.5718 414.686,94.0757 
  422.414,110.721 430.142,146.313 437.869,109.596 445.597,130.984 453.325,128.712 461.053,140.082 468.781,188.426 476.509,150.407 484.237,149.892 491.965,179.163 
  499.693,163.651 507.421,164.116 515.149,164.496 522.877,170.37 530.605,182.725 538.333,207.244 546.061,227.553 553.789,218.869 561.517,202.843 569.245,197.706 
  576.973,181.704 584.701,194.434 592.429,205.208 600.157,189.013 607.885,212.223 615.613,219.822 623.341,243.938 631.069,213.601 638.797,185.397 646.525,212.061 
  654.252,202.32 661.98,201.518 669.708,215.59 677.436,206.075 685.164,225.914 692.892,224.597 700.62,200.575 708.348,217.475 716.076,184.14 723.804,187.96 
  731.532,165.838 739.26,207.741 746.988,227.674 754.716,228.579 762.444,218.307 770.172,201.133 777.9,203.155 785.628,220.39 793.356,152.665 801.084,152.361 
  808.812,136.51 816.54,160.02 824.268,144.619 831.996,180.746 839.724,169.332 847.452,147.382 855.18,154.816 862.908,156.454 870.636,134.431 878.363,115.672 
  886.091,135.004 
  "/>
<polyline clip-path="url(#clip402)" style="stroke:#e26f46; stroke-linecap:butt; stroke-linejoin:round; stroke-width:2.60157; stroke-opacity:1; fill:none" points="
  113.295,366.363 121.023,373.139 128.751,369.017 136.479,345.049 144.207,279.017 151.935,246.871 159.663,293.426 167.391,279.129 175.119,281.05 182.847,248.571 
  190.575,215.87 198.303,179.892 206.031,171.246 213.759,186.19 221.486,181.799 229.214,204.346 236.942,214.102 244.67,230.391 252.398,243.891 260.126,222.566 
  267.854,246.632 275.582,253.774 283.31,271.021 291.038,277.34 298.766,256.32 306.494,254.684 314.222,230.687 321.95,205.239 329.678,235.73 337.406,246.739 
  345.134,262.423 352.862,243.044 360.59,234.736 368.318,229.371 376.046,210.344 383.774,227.668 391.502,268.338 399.23,298.092 406.958,299.919 414.686,313.868 
  422.414,360.729 430.142,337.914 437.869,355.335 445.597,375.217 453.325,354.809 461.053,328.251 468.781,343.949 476.509,401.798 484.237,386.593 491.965,393.068 
  499.693,395.822 507.421,373.444 515.149,349.901 522.877,356.915 530.605,342.126 538.333,321.885 546.061,296.513 553.789,272.057 561.517,267.242 569.245,266.849 
  576.973,271.377 584.701,291.805 592.429,285.366 600.157,304.994 607.885,324.754 615.613,333.918 623.341,353.434 631.069,330.279 638.797,329.145 646.525,317.838 
  654.252,333.643 661.98,355.946 669.708,365.824 677.436,364.553 685.164,345.489 692.892,325.3 700.62,362.054 708.348,384.747 716.076,409.704 723.804,406.232 
  731.532,365.801 739.26,388.501 746.988,366.547 754.716,377.408 762.444,407.892 770.172,412.149 777.9,377.752 785.628,402.771 793.356,414.883 801.084,419.757 
  808.812,405.938 816.54,404.139 824.268,433.282 831.996,421.408 839.724,418.989 847.452,424.32 855.18,435.019 862.908,409.922 870.636,376.057 878.363,399.658 
  886.091,404.734 
  "/>
<polyline clip-path="url(#clip402)" style="stroke:#3da44d; stroke-linecap:butt; stroke-linejoin:round; stroke-width:2.60157; stroke-opacity:1; fill:none" points="
  113.295,381.936 121.023,430.487 128.751,414.277 136.479,415.122 144.207,398.607 151.935,405.461 159.663,454.854 167.391,457.018 175.119,445.205 182.847,407.459 
  190.575,397.381 198.303,401.981 206.031,405.52 213.759,409.921 221.486,395.137 229.214,409.233 236.942,396.553 244.67,398.113 252.398,376.938 260.126,334.663 
  267.854,342.999 275.582,346.781 283.31,313.905 291.038,301.481 298.766,343.222 306.494,378.179 314.222,361.373 321.95,333.216 329.678,347.485 337.406,376.061 
  345.134,399.676 352.862,393.346 360.59,393.55 368.318,370.145 376.046,363.309 383.774,385.731 391.502,398.943 399.23,397.525 406.958,362.315 414.686,329.659 
  422.414,354.112 430.142,356.749 437.869,410.53 445.597,400.795 453.325,444.915 461.053,458.375 468.781,461.394 476.509,442.342 484.237,446.32 491.965,449.018 
  499.693,434.279 507.421,444.749 515.149,488.962 522.877,446.529 530.605,481.945 538.333,478.795 546.061,476.028 553.789,454.533 561.517,456.282 569.245,430.119 
  576.973,446.735 584.701,419.404 592.429,416.735 600.157,377.23 607.885,376.823 615.613,350.064 623.341,358.456 631.069,358.741 638.797,387.34 646.525,387 
  654.252,401.663 661.98,423.41 669.708,437.6 677.436,436.196 685.164,405.087 692.892,388.003 700.62,390.925 708.348,420.183 716.076,419.809 723.804,390.801 
  731.532,367.36 739.26,339.697 746.988,312.04 754.716,287.713 762.444,281.579 770.172,259.44 777.9,276.514 785.628,301.45 793.356,319.064 801.084,304.816 
  808.812,329.679 816.54,317.763 824.268,374.305 831.996,353.177 839.724,373.575 847.452,332.641 855.18,327.193 862.908,353.019 870.636,360.584 878.363,349.174 
  886.091,315.477 
  "/>
<polyline clip-path="url(#clip402)" style="stroke:#c271d2; stroke-linecap:butt; stroke-linejoin:round; stroke-width:2.60157; stroke-opacity:1; fill:none" points="
  113.295,384.743 121.023,372.688 128.751,369.306 136.479,368.007 144.207,383.672 151.935,375.326 159.663,378.694 167.391,404.189 175.119,425.098 182.847,437.688 
  190.575,419.008 198.303,411.991 206.031,414.988 213.759,379.309 221.486,387.511 229.214,396.332 236.942,424.71 244.67,398.67 252.398,358.735 260.126,318.198 
  267.854,334.002 275.582,307.727 283.31,318.254 291.038,343.695 298.766,285.377 306.494,274.05 314.222,264.314 321.95,261.739 329.678,247.842 337.406,232.255 
  345.134,213.915 352.862,206.764 360.59,203.181 368.318,221.574 376.046,282.039 383.774,310.709 391.502,301.7 399.23,332.13 406.958,335.491 414.686,312.979 
  422.414,316.018 430.142,322.942 437.869,323.042 445.597,341.195 453.325,341.325 461.053,349.105 468.781,350.33 476.509,322.786 484.237,320.122 491.965,318.791 
  499.693,332.783 507.421,316.485 515.149,329.124 522.877,331.772 530.605,296.262 538.333,322.116 546.061,325.08 553.789,324.592 561.517,327.941 569.245,280.918 
  576.973,268.798 584.701,278.231 592.429,253.689 600.157,240.162 607.885,213.227 615.613,208.701 623.341,174.117 631.069,183.174 638.797,212.206 646.525,231.082 
  654.252,246.395 661.98,281.272 669.708,278.529 677.436,244.326 685.164,222.719 692.892,243.827 700.62,231.147 708.348,220.255 716.076,229.049 723.804,215.733 
  731.532,202.23 739.26,240.931 746.988,260.517 754.716,230.81 762.444,236.079 770.172,240.422 777.9,250.046 785.628,252.563 793.356,216.807 801.084,212.581 
  808.812,204.238 816.54,219.929 824.268,218.392 831.996,169.383 839.724,171.257 847.452,153.828 855.18,146.118 862.908,123.052 870.636,110.227 878.363,122.081 
  886.091,110.976 
  "/>
<path clip-path="url(#clip400)" d="
M716.445 172.883 L881.97 172.883 L881.97 46.4466 L716.445 46.4466  Z
  " fill="#ffffff" fill-rule="evenodd" fill-opacity="1"/>
<polyline clip-path="url(#clip400)" style="stroke:#000000; stroke-linecap:butt; stroke-linejoin:round; stroke-width:2.60157; stroke-opacity:1; fill:none" points="
  716.445,172.883 881.97,172.883 881.97,46.4466 716.445,46.4466 716.445,172.883 
  "/>
<polyline clip-path="url(#clip400)" style="stroke:#009af9; stroke-linecap:butt; stroke-linejoin:round; stroke-width:1.95118; stroke-opacity:1; fill:none" points="
  725.547,71.7339 780.158,71.7339 
  "/>
<path clip-path="url(#clip400)" d="M789.26 62.5934 L791.337 62.5934 L791.337 80.163 L789.26 80.163 L789.26 62.5934 Z" fill="#000000" fill-rule="evenodd" fill-opacity="1" /><path clip-path="url(#clip400)" d="M801.431 73.8059 Q798.913 73.8059 797.942 74.3817 Q796.971 74.9576 796.971 76.3464 Q796.971 77.453 797.694 78.1079 Q798.428 78.7515 799.681 78.7515 Q801.409 78.7515 802.447 77.532 Q803.497 76.3013 803.497 74.2688 L803.497 73.8059 L801.431 73.8059 M805.575 72.9477 L805.575 80.163 L803.497 80.163 L803.497 78.2434 Q802.786 79.3951 801.725 79.9484 Q800.663 80.4904 799.128 80.4904 Q797.186 80.4904 796.034 79.4064 Q794.894 78.3112 794.894 76.4819 Q794.894 74.3478 796.316 73.2639 Q797.75 72.1799 800.584 72.1799 L803.497 72.1799 L803.497 71.9766 Q803.497 70.5426 802.549 69.7635 Q801.612 68.9731 799.907 68.9731 Q798.823 68.9731 797.796 69.2328 Q796.768 69.4925 795.82 70.0119 L795.82 68.0924 Q796.96 67.652 798.033 67.4375 Q799.105 67.2116 800.121 67.2116 Q802.865 67.2116 804.22 68.6344 Q805.575 70.0571 805.575 72.9477 Z" fill="#000000" fill-rule="evenodd" fill-opacity="1" /><path clip-path="url(#clip400)" d="M818.931 73.851 Q818.931 71.5588 817.983 70.2603 Q817.046 68.9505 815.397 68.9505 Q813.749 68.9505 812.801 70.2603 Q811.864 71.5588 811.864 73.851 Q811.864 76.1432 812.801 77.453 Q813.749 78.7515 815.397 78.7515 Q817.046 78.7515 817.983 77.453 Q818.931 76.1432 818.931 73.851 M811.864 69.436 Q812.518 68.3069 813.512 67.7649 Q814.517 67.2116 815.906 67.2116 Q818.209 67.2116 819.643 69.0408 Q821.088 70.8701 821.088 73.851 Q821.088 76.832 819.643 78.6612 Q818.209 80.4904 815.906 80.4904 Q814.517 80.4904 813.512 79.9484 Q812.518 79.3951 811.864 78.266 L811.864 80.163 L809.775 80.163 L809.775 62.5934 L811.864 62.5934 L811.864 69.436 Z" fill="#000000" fill-rule="evenodd" fill-opacity="1" /><path clip-path="url(#clip400)" d="M835.348 73.3203 L835.348 74.3365 L825.796 74.3365 Q825.932 76.4819 827.083 77.6111 Q828.246 78.7289 830.312 78.7289 Q831.509 78.7289 832.627 78.4354 Q833.756 78.1418 834.862 77.5546 L834.862 79.5193 Q833.745 79.9936 832.57 80.242 Q831.396 80.4904 830.188 80.4904 Q827.162 80.4904 825.39 78.7289 Q823.628 76.9675 823.628 73.9639 Q823.628 70.8588 825.299 69.0408 Q826.982 67.2116 829.827 67.2116 Q832.378 67.2116 833.858 68.8602 Q835.348 70.4974 835.348 73.3203 M833.27 72.7106 Q833.248 71.0056 832.311 69.9893 Q831.385 68.9731 829.849 68.9731 Q828.111 68.9731 827.061 69.9555 Q826.022 70.9378 825.864 72.7219 L833.27 72.7106 Z" fill="#000000" fill-rule="evenodd" fill-opacity="1" /><path clip-path="url(#clip400)" d="M838.758 62.5934 L840.835 62.5934 L840.835 80.163 L838.758 80.163 L838.758 62.5934 Z" fill="#000000" fill-rule="evenodd" fill-opacity="1" /><path clip-path="url(#clip400)" d="M853.221 78.2434 L856.947 78.2434 L856.947 65.3824 L852.893 66.1954 L852.893 64.1178 L856.924 63.3048 L859.205 63.3048 L859.205 78.2434 L862.931 78.2434 L862.931 80.163 L853.221 80.163 L853.221 78.2434 Z" fill="#000000" fill-rule="evenodd" fill-opacity="1" /><polyline clip-path="url(#clip400)" style="stroke:#e26f46; stroke-linecap:butt; stroke-linejoin:round; stroke-width:1.95118; stroke-opacity:1; fill:none" points="
  725.547,97.0211 780.158,97.0211 
  "/>
<path clip-path="url(#clip400)" d="M789.26 87.8807 L791.337 87.8807 L791.337 105.45 L789.26 105.45 L789.26 87.8807 Z" fill="#000000" fill-rule="evenodd" fill-opacity="1" /><path clip-path="url(#clip400)" d="M801.431 99.0931 Q798.913 99.0931 797.942 99.669 Q796.971 100.245 796.971 101.634 Q796.971 102.74 797.694 103.395 Q798.428 104.039 799.681 104.039 Q801.409 104.039 802.447 102.819 Q803.497 101.589 803.497 99.5561 L803.497 99.0931 L801.431 99.0931 M805.575 98.235 L805.575 105.45 L803.497 105.45 L803.497 103.531 Q802.786 104.682 801.725 105.236 Q800.663 105.778 799.128 105.778 Q797.186 105.778 796.034 104.694 Q794.894 103.598 794.894 101.769 Q794.894 99.6351 796.316 98.5511 Q797.75 97.4671 800.584 97.4671 L803.497 97.4671 L803.497 97.2639 Q803.497 95.8299 802.549 95.0508 Q801.612 94.2604 799.907 94.2604 Q798.823 94.2604 797.796 94.5201 Q796.768 94.7798 795.82 95.2992 L795.82 93.3796 Q796.96 92.9393 798.033 92.7247 Q799.105 92.4989 800.121 92.4989 Q802.865 92.4989 804.22 93.9216 Q805.575 95.3444 805.575 98.235 Z" fill="#000000" fill-rule="evenodd" fill-opacity="1" /><path clip-path="url(#clip400)" d="M818.931 99.1383 Q818.931 96.8461 817.983 95.5476 Q817.046 94.2378 815.397 94.2378 Q813.749 94.2378 812.801 95.5476 Q811.864 96.8461 811.864 99.1383 Q811.864 101.43 812.801 102.74 Q813.749 104.039 815.397 104.039 Q817.046 104.039 817.983 102.74 Q818.931 101.43 818.931 99.1383 M811.864 94.7233 Q812.518 93.5942 813.512 93.0522 Q814.517 92.4989 815.906 92.4989 Q818.209 92.4989 819.643 94.3281 Q821.088 96.1573 821.088 99.1383 Q821.088 102.119 819.643 103.948 Q818.209 105.778 815.906 105.778 Q814.517 105.778 813.512 105.236 Q812.518 104.682 811.864 103.553 L811.864 105.45 L809.775 105.45 L809.775 87.8807 L811.864 87.8807 L811.864 94.7233 Z" fill="#000000" fill-rule="evenodd" fill-opacity="1" /><path clip-path="url(#clip400)" d="M835.348 98.6076 L835.348 99.6238 L825.796 99.6238 Q825.932 101.769 827.083 102.898 Q828.246 104.016 830.312 104.016 Q831.509 104.016 832.627 103.723 Q833.756 103.429 834.862 102.842 L834.862 104.807 Q833.745 105.281 832.57 105.529 Q831.396 105.778 830.188 105.778 Q827.162 105.778 825.39 104.016 Q823.628 102.255 823.628 99.2512 Q823.628 96.146 825.299 94.3281 Q826.982 92.4989 829.827 92.4989 Q832.378 92.4989 833.858 94.1475 Q835.348 95.7847 835.348 98.6076 M833.27 97.9978 Q833.248 96.2928 832.311 95.2766 Q831.385 94.2604 829.849 94.2604 Q828.111 94.2604 827.061 95.2427 Q826.022 96.2251 825.864 98.0091 L833.27 97.9978 Z" fill="#000000" fill-rule="evenodd" fill-opacity="1" /><path clip-path="url(#clip400)" d="M838.758 87.8807 L840.835 87.8807 L840.835 105.45 L838.758 105.45 L838.758 87.8807 Z" fill="#000000" fill-rule="evenodd" fill-opacity="1" /><path clip-path="url(#clip400)" d="M854.79 103.531 L862.75 103.531 L862.75 105.45 L852.047 105.45 L852.047 103.531 Q853.345 102.187 855.581 99.9287 Q857.827 97.6591 858.403 97.0042 Q859.498 95.7734 859.927 94.9266 Q860.368 94.0684 860.368 93.2441 Q860.368 91.9004 859.419 91.0536 Q858.482 90.2067 856.969 90.2067 Q855.897 90.2067 854.7 90.5793 Q853.514 90.952 852.16 91.7085 L852.16 89.405 Q853.537 88.8517 854.734 88.5695 Q855.931 88.2872 856.924 88.2872 Q859.544 88.2872 861.102 89.597 Q862.66 90.9068 862.66 93.0973 Q862.66 94.1362 862.265 95.0734 Q861.881 95.9993 860.853 97.2639 Q860.571 97.5914 859.058 99.1609 Q857.545 100.719 854.79 103.531 Z" fill="#000000" fill-rule="evenodd" fill-opacity="1" /><polyline clip-path="url(#clip400)" style="stroke:#3da44d; stroke-linecap:butt; stroke-linejoin:round; stroke-width:1.95118; stroke-opacity:1; fill:none" points="
  725.547,122.308 780.158,122.308 
  "/>
<path clip-path="url(#clip400)" d="M789.26 113.168 L791.337 113.168 L791.337 130.737 L789.26 130.737 L789.26 113.168 Z" fill="#000000" fill-rule="evenodd" fill-opacity="1" /><path clip-path="url(#clip400)" d="M801.431 124.38 Q798.913 124.38 797.942 124.956 Q796.971 125.532 796.971 126.921 Q796.971 128.028 797.694 128.682 Q798.428 129.326 799.681 129.326 Q801.409 129.326 802.447 128.107 Q803.497 126.876 803.497 124.843 L803.497 124.38 L801.431 124.38 M805.575 123.522 L805.575 130.737 L803.497 130.737 L803.497 128.818 Q802.786 129.97 801.725 130.523 Q800.663 131.065 799.128 131.065 Q797.186 131.065 796.034 129.981 Q794.894 128.886 794.894 127.056 Q794.894 124.922 796.316 123.838 Q797.75 122.754 800.584 122.754 L803.497 122.754 L803.497 122.551 Q803.497 121.117 802.549 120.338 Q801.612 119.548 799.907 119.548 Q798.823 119.548 797.796 119.807 Q796.768 120.067 795.82 120.586 L795.82 118.667 Q796.96 118.227 798.033 118.012 Q799.105 117.786 800.121 117.786 Q802.865 117.786 804.22 119.209 Q805.575 120.632 805.575 123.522 Z" fill="#000000" fill-rule="evenodd" fill-opacity="1" /><path clip-path="url(#clip400)" d="M818.931 124.426 Q818.931 122.133 817.983 120.835 Q817.046 119.525 815.397 119.525 Q813.749 119.525 812.801 120.835 Q811.864 122.133 811.864 124.426 Q811.864 126.718 812.801 128.028 Q813.749 129.326 815.397 129.326 Q817.046 129.326 817.983 128.028 Q818.931 126.718 818.931 124.426 M811.864 120.011 Q812.518 118.881 813.512 118.339 Q814.517 117.786 815.906 117.786 Q818.209 117.786 819.643 119.615 Q821.088 121.445 821.088 124.426 Q821.088 127.407 819.643 129.236 Q818.209 131.065 815.906 131.065 Q814.517 131.065 813.512 130.523 Q812.518 129.97 811.864 128.841 L811.864 130.737 L809.775 130.737 L809.775 113.168 L811.864 113.168 L811.864 120.011 Z" fill="#000000" fill-rule="evenodd" fill-opacity="1" /><path clip-path="url(#clip400)" d="M835.348 123.895 L835.348 124.911 L825.796 124.911 Q825.932 127.056 827.083 128.186 Q828.246 129.303 830.312 129.303 Q831.509 129.303 832.627 129.01 Q833.756 128.716 834.862 128.129 L834.862 130.094 Q833.745 130.568 832.57 130.817 Q831.396 131.065 830.188 131.065 Q827.162 131.065 825.39 129.303 Q823.628 127.542 823.628 124.538 Q823.628 121.433 825.299 119.615 Q826.982 117.786 829.827 117.786 Q832.378 117.786 833.858 119.435 Q835.348 121.072 835.348 123.895 M833.27 123.285 Q833.248 121.58 832.311 120.564 Q831.385 119.548 829.849 119.548 Q828.111 119.548 827.061 120.53 Q826.022 121.512 825.864 123.296 L833.27 123.285 Z" fill="#000000" fill-rule="evenodd" fill-opacity="1" /><path clip-path="url(#clip400)" d="M838.758 113.168 L840.835 113.168 L840.835 130.737 L838.758 130.737 L838.758 113.168 Z" fill="#000000" fill-rule="evenodd" fill-opacity="1" /><path clip-path="url(#clip400)" d="M859.735 121.648 Q861.373 121.998 862.287 123.104 Q863.213 124.211 863.213 125.837 Q863.213 128.332 861.497 129.699 Q859.781 131.065 856.619 131.065 Q855.558 131.065 854.429 130.85 Q853.311 130.647 852.114 130.229 L852.114 128.028 Q853.063 128.581 854.192 128.863 Q855.321 129.145 856.552 129.145 Q858.697 129.145 859.815 128.299 Q860.944 127.452 860.944 125.837 Q860.944 124.347 859.894 123.511 Q858.855 122.664 856.992 122.664 L855.027 122.664 L855.027 120.79 L857.082 120.79 Q858.764 120.79 859.656 120.124 Q860.548 119.446 860.548 118.181 Q860.548 116.883 859.623 116.194 Q858.708 115.494 856.992 115.494 Q856.055 115.494 854.982 115.697 Q853.91 115.9 852.622 116.33 L852.622 114.297 Q853.921 113.936 855.05 113.755 Q856.19 113.574 857.195 113.574 Q859.792 113.574 861.305 114.76 Q862.818 115.934 862.818 117.944 Q862.818 119.344 862.016 120.315 Q861.215 121.275 859.735 121.648 Z" fill="#000000" fill-rule="evenodd" fill-opacity="1" /><polyline clip-path="url(#clip400)" style="stroke:#c271d2; stroke-linecap:butt; stroke-linejoin:round; stroke-width:1.95118; stroke-opacity:1; fill:none" points="
  725.547,147.596 780.158,147.596 
  "/>
<path clip-path="url(#clip400)" d="M789.26 138.455 L791.337 138.455 L791.337 156.025 L789.26 156.025 L789.26 138.455 Z" fill="#000000" fill-rule="evenodd" fill-opacity="1" /><path clip-path="url(#clip400)" d="M801.431 149.668 Q798.913 149.668 797.942 150.244 Q796.971 150.819 796.971 152.208 Q796.971 153.315 797.694 153.97 Q798.428 154.613 799.681 154.613 Q801.409 154.613 802.447 153.394 Q803.497 152.163 803.497 150.131 L803.497 149.668 L801.431 149.668 M805.575 148.81 L805.575 156.025 L803.497 156.025 L803.497 154.105 Q802.786 155.257 801.725 155.81 Q800.663 156.352 799.128 156.352 Q797.186 156.352 796.034 155.268 Q794.894 154.173 794.894 152.344 Q794.894 150.21 796.316 149.126 Q797.75 148.042 800.584 148.042 L803.497 148.042 L803.497 147.838 Q803.497 146.404 802.549 145.625 Q801.612 144.835 799.907 144.835 Q798.823 144.835 797.796 145.095 Q796.768 145.354 795.82 145.874 L795.82 143.954 Q796.96 143.514 798.033 143.299 Q799.105 143.073 800.121 143.073 Q802.865 143.073 804.22 144.496 Q805.575 145.919 805.575 148.81 Z" fill="#000000" fill-rule="evenodd" fill-opacity="1" /><path clip-path="url(#clip400)" d="M818.931 149.713 Q818.931 147.421 817.983 146.122 Q817.046 144.812 815.397 144.812 Q813.749 144.812 812.801 146.122 Q811.864 147.421 811.864 149.713 Q811.864 152.005 812.801 153.315 Q813.749 154.613 815.397 154.613 Q817.046 154.613 817.983 153.315 Q818.931 152.005 818.931 149.713 M811.864 145.298 Q812.518 144.169 813.512 143.627 Q814.517 143.073 815.906 143.073 Q818.209 143.073 819.643 144.903 Q821.088 146.732 821.088 149.713 Q821.088 152.694 819.643 154.523 Q818.209 156.352 815.906 156.352 Q814.517 156.352 813.512 155.81 Q812.518 155.257 811.864 154.128 L811.864 156.025 L809.775 156.025 L809.775 138.455 L811.864 138.455 L811.864 145.298 Z" fill="#000000" fill-rule="evenodd" fill-opacity="1" /><path clip-path="url(#clip400)" d="M835.348 149.182 L835.348 150.198 L825.796 150.198 Q825.932 152.344 827.083 153.473 Q828.246 154.591 830.312 154.591 Q831.509 154.591 832.627 154.297 Q833.756 154.004 834.862 153.416 L834.862 155.381 Q833.745 155.855 832.57 156.104 Q831.396 156.352 830.188 156.352 Q827.162 156.352 825.39 154.591 Q823.628 152.829 823.628 149.826 Q823.628 146.721 825.299 144.903 Q826.982 143.073 829.827 143.073 Q832.378 143.073 833.858 144.722 Q835.348 146.359 835.348 149.182 M833.27 148.572 Q833.248 146.867 832.311 145.851 Q831.385 144.835 829.849 144.835 Q828.111 144.835 827.061 145.817 Q826.022 146.8 825.864 148.584 L833.27 148.572 Z" fill="#000000" fill-rule="evenodd" fill-opacity="1" /><path clip-path="url(#clip400)" d="M838.758 138.455 L840.835 138.455 L840.835 156.025 L838.758 156.025 L838.758 138.455 Z" fill="#000000" fill-rule="evenodd" fill-opacity="1" /><path clip-path="url(#clip400)" d="M859.092 141.154 L853.334 150.153 L859.092 150.153 L859.092 141.154 M858.494 139.167 L861.361 139.167 L861.361 150.153 L863.766 150.153 L863.766 152.05 L861.361 152.05 L861.361 156.025 L859.092 156.025 L859.092 152.05 L851.482 152.05 L851.482 149.848 L858.494 139.167 Z" fill="#000000" fill-rule="evenodd" fill-opacity="1" /></svg>
