<?xml version="1.0" encoding="utf-8"?>
<svg xmlns="http://www.w3.org/2000/svg" xmlns:xlink="http://www.w3.org/1999/xlink" width="235" height="145.25" viewBox="0 0 940 581">
<defs>
  <clipPath id="clip800">
    <rect x="0" y="0" width="940" height="581"/>
  </clipPath>
</defs>
<path clip-path="url(#clip800)" d="
M0 581 L940 581 L940 0 L0 0  Z
  " fill="#ffffff" fill-rule="evenodd" fill-opacity="1"/>
<defs>
  <clipPath id="clip801">
    <rect x="188" y="0" width="659" height="581"/>
  </clipPath>
</defs>
<path clip-path="url(#clip800)" d="
M111.216 494.292 L906.912 494.292 L906.912 33.0909 L111.216 33.0909  Z
  " fill="#ffffff" fill-rule="evenodd" fill-opacity="1"/>
<defs>
  <clipPath id="clip802">
    <rect x="111" y="33" width="797" height="462"/>
  </clipPath>
</defs>
<polyline clip-path="url(#clip802)" style="stroke:#000000; stroke-linecap:butt; stroke-linejoin:round; stroke-width:1.40085; stroke-opacity:0.1; fill:none" points="
  129.982,494.292 129.982,33.0909 
  "/>
<polyline clip-path="url(#clip802)" style="stroke:#000000; stroke-linecap:butt; stroke-linejoin:round; stroke-width:1.40085; stroke-opacity:0.1; fill:none" points="
  317.646,494.292 317.646,33.0909 
  "/>
<polyline clip-path="url(#clip802)" style="stroke:#000000; stroke-linecap:butt; stroke-linejoin:round; stroke-width:1.40085; stroke-opacity:0.1; fill:none" points="
  505.31,494.292 505.31,33.0909 
  "/>
<polyline clip-path="url(#clip802)" style="stroke:#000000; stroke-linecap:butt; stroke-linejoin:round; stroke-width:1.40085; stroke-opacity:0.1; fill:none" points="
  692.975,494.292 692.975,33.0909 
  "/>
<polyline clip-path="url(#clip802)" style="stroke:#000000; stroke-linecap:butt; stroke-linejoin:round; stroke-width:1.40085; stroke-opacity:0.1; fill:none" points="
  880.639,494.292 880.639,33.0909 
  "/>
<polyline clip-path="url(#clip800)" style="stroke:#000000; stroke-linecap:butt; stroke-linejoin:round; stroke-width:2.80169; stroke-opacity:1; fill:none" points="
  111.216,494.292 906.912,494.292 
  "/>
<polyline clip-path="url(#clip800)" style="stroke:#000000; stroke-linecap:butt; stroke-linejoin:round; stroke-width:2.80169; stroke-opacity:1; fill:none" points="
  129.982,494.292 129.982,475.383 
  "/>
<polyline clip-path="url(#clip800)" style="stroke:#000000; stroke-linecap:butt; stroke-linejoin:round; stroke-width:2.80169; stroke-opacity:1; fill:none" points="
  317.646,494.292 317.646,475.383 
  "/>
<polyline clip-path="url(#clip800)" style="stroke:#000000; stroke-linecap:butt; stroke-linejoin:round; stroke-width:2.80169; stroke-opacity:1; fill:none" points="
  505.31,494.292 505.31,475.383 
  "/>
<polyline clip-path="url(#clip800)" style="stroke:#000000; stroke-linecap:butt; stroke-linejoin:round; stroke-width:2.80169; stroke-opacity:1; fill:none" points="
  692.975,494.292 692.975,475.383 
  "/>
<polyline clip-path="url(#clip800)" style="stroke:#000000; stroke-linecap:butt; stroke-linejoin:round; stroke-width:2.80169; stroke-opacity:1; fill:none" points="
  880.639,494.292 880.639,475.383 
  "/>
<path clip-path="url(#clip800)" d="M129.982 507.968 Q128.085 507.968 127.125 509.841 Q126.176 511.701 126.176 515.447 Q126.176 519.18 127.125 521.053 Q128.085 522.913 129.982 522.913 Q131.891 522.913 132.839 521.053 Q133.8 519.18 133.8 515.447 Q133.8 511.701 132.839 509.841 Q131.891 507.968 129.982 507.968 M129.982 506.023 Q133.034 506.023 134.639 508.443 Q136.256 510.85 136.256 515.447 Q136.256 520.031 134.639 522.451 Q133.034 524.859 129.982 524.859 Q126.93 524.859 125.313 522.451 Q123.708 520.031 123.708 515.447 Q123.708 510.85 125.313 508.443 Q126.93 506.023 129.982 506.023 Z" fill="#000000" fill-rule="evenodd" fill-opacity="1" /><path clip-path="url(#clip800)" d="M304.356 506.351 L313.999 506.351 L313.999 508.418 L306.606 508.418 L306.606 512.869 Q307.141 512.686 307.676 512.601 Q308.211 512.504 308.746 512.504 Q311.786 512.504 313.561 514.17 Q315.336 515.836 315.336 518.681 Q315.336 521.612 313.512 523.241 Q311.688 524.859 308.369 524.859 Q307.226 524.859 306.034 524.664 Q304.855 524.469 303.59 524.08 L303.59 521.612 Q304.685 522.208 305.852 522.5 Q307.019 522.791 308.32 522.791 Q310.424 522.791 311.652 521.685 Q312.88 520.578 312.88 518.681 Q312.88 516.784 311.652 515.678 Q310.424 514.571 308.32 514.571 Q307.335 514.571 306.35 514.79 Q305.378 515.009 304.356 515.471 L304.356 506.351 Z" fill="#000000" fill-rule="evenodd" fill-opacity="1" /><path clip-path="url(#clip800)" d="M325.428 507.968 Q323.531 507.968 322.571 509.841 Q321.622 511.701 321.622 515.447 Q321.622 519.18 322.571 521.053 Q323.531 522.913 325.428 522.913 Q327.337 522.913 328.285 521.053 Q329.246 519.18 329.246 515.447 Q329.246 511.701 328.285 509.841 Q327.337 507.968 325.428 507.968 M325.428 506.023 Q328.48 506.023 330.085 508.443 Q331.702 510.85 331.702 515.447 Q331.702 520.031 330.085 522.451 Q328.48 524.859 325.428 524.859 Q322.376 524.859 320.759 522.451 Q319.154 520.031 319.154 515.447 Q319.154 510.85 320.759 508.443 Q322.376 506.023 325.428 506.023 Z" fill="#000000" fill-rule="evenodd" fill-opacity="1" /><path clip-path="url(#clip800)" d="M484.093 522.439 L488.105 522.439 L488.105 508.588 L483.74 509.464 L483.74 507.227 L488.081 506.351 L490.537 506.351 L490.537 522.439 L494.55 522.439 L494.55 524.506 L484.093 524.506 L484.093 522.439 Z" fill="#000000" fill-rule="evenodd" fill-opacity="1" /><path clip-path="url(#clip800)" d="M504.763 507.968 Q502.866 507.968 501.906 509.841 Q500.958 511.701 500.958 515.447 Q500.958 519.18 501.906 521.053 Q502.866 522.913 504.763 522.913 Q506.672 522.913 507.621 521.053 Q508.581 519.18 508.581 515.447 Q508.581 511.701 507.621 509.841 Q506.672 507.968 504.763 507.968 M504.763 506.023 Q507.815 506.023 509.42 508.443 Q511.037 510.85 511.037 515.447 Q511.037 520.031 509.42 522.451 Q507.815 524.859 504.763 524.859 Q501.711 524.859 500.094 522.451 Q498.489 520.031 498.489 515.447 Q498.489 510.85 500.094 508.443 Q501.711 506.023 504.763 506.023 Z" fill="#000000" fill-rule="evenodd" fill-opacity="1" /><path clip-path="url(#clip800)" d="M520.607 507.968 Q518.71 507.968 517.749 509.841 Q516.801 511.701 516.801 515.447 Q516.801 519.18 517.749 521.053 Q518.71 522.913 520.607 522.913 Q522.516 522.913 523.464 521.053 Q524.424 519.18 524.424 515.447 Q524.424 511.701 523.464 509.841 Q522.516 507.968 520.607 507.968 M520.607 506.023 Q523.658 506.023 525.263 508.443 Q526.881 510.85 526.881 515.447 Q526.881 520.031 525.263 522.451 Q523.658 524.859 520.607 524.859 Q517.555 524.859 515.937 522.451 Q514.332 520.031 514.332 515.447 Q514.332 510.85 515.937 508.443 Q517.555 506.023 520.607 506.023 Z" fill="#000000" fill-rule="evenodd" fill-opacity="1" /><path clip-path="url(#clip800)" d="M671.757 522.439 L675.77 522.439 L675.77 508.588 L671.405 509.464 L671.405 507.227 L675.745 506.351 L678.201 506.351 L678.201 522.439 L682.214 522.439 L682.214 524.506 L671.757 524.506 L671.757 522.439 Z" fill="#000000" fill-rule="evenodd" fill-opacity="1" /><path clip-path="url(#clip800)" d="M687.199 506.351 L696.841 506.351 L696.841 508.418 L689.449 508.418 L689.449 512.869 Q689.984 512.686 690.519 512.601 Q691.054 512.504 691.589 512.504 Q694.628 512.504 696.404 514.17 Q698.179 515.836 698.179 518.681 Q698.179 521.612 696.355 523.241 Q694.531 524.859 691.212 524.859 Q690.069 524.859 688.877 524.664 Q687.698 524.469 686.433 524.08 L686.433 521.612 Q687.527 522.208 688.695 522.5 Q689.862 522.791 691.163 522.791 Q693.266 522.791 694.495 521.685 Q695.723 520.578 695.723 518.681 Q695.723 516.784 694.495 515.678 Q693.266 514.571 691.163 514.571 Q690.178 514.571 689.193 514.79 Q688.22 515.009 687.199 515.471 L687.199 506.351 Z" fill="#000000" fill-rule="evenodd" fill-opacity="1" /><path clip-path="url(#clip800)" d="M708.271 507.968 Q706.374 507.968 705.413 509.841 Q704.465 511.701 704.465 515.447 Q704.465 519.18 705.413 521.053 Q706.374 522.913 708.271 522.913 Q710.18 522.913 711.128 521.053 Q712.089 519.18 712.089 515.447 Q712.089 511.701 711.128 509.841 Q710.18 507.968 708.271 507.968 M708.271 506.023 Q711.323 506.023 712.928 508.443 Q714.545 510.85 714.545 515.447 Q714.545 520.031 712.928 522.451 Q711.323 524.859 708.271 524.859 Q705.219 524.859 703.602 522.451 Q701.997 520.031 701.997 515.447 Q701.997 510.85 703.602 508.443 Q705.219 506.023 708.271 506.023 Z" fill="#000000" fill-rule="evenodd" fill-opacity="1" /><path clip-path="url(#clip800)" d="M861.567 522.439 L870.14 522.439 L870.14 524.506 L858.613 524.506 L858.613 522.439 Q860.011 520.992 862.419 518.56 Q864.838 516.116 865.458 515.41 Q866.638 514.085 867.1 513.173 Q867.574 512.249 867.574 511.361 Q867.574 509.914 866.553 509.002 Q865.543 508.09 863.914 508.09 Q862.759 508.09 861.47 508.491 Q860.193 508.892 858.734 509.707 L858.734 507.227 Q860.218 506.631 861.507 506.327 Q862.795 506.023 863.865 506.023 Q866.686 506.023 868.364 507.433 Q870.042 508.844 870.042 511.203 Q870.042 512.322 869.617 513.331 Q869.203 514.328 868.097 515.69 Q867.793 516.043 866.164 517.733 Q864.534 519.411 861.567 522.439 Z" fill="#000000" fill-rule="evenodd" fill-opacity="1" /><path clip-path="url(#clip800)" d="M880.548 507.968 Q878.651 507.968 877.69 509.841 Q876.742 511.701 876.742 515.447 Q876.742 519.18 877.69 521.053 Q878.651 522.913 880.548 522.913 Q882.457 522.913 883.405 521.053 Q884.366 519.18 884.366 515.447 Q884.366 511.701 883.405 509.841 Q882.457 507.968 880.548 507.968 M880.548 506.023 Q883.6 506.023 885.205 508.443 Q886.822 510.85 886.822 515.447 Q886.822 520.031 885.205 522.451 Q883.6 524.859 880.548 524.859 Q877.496 524.859 875.879 522.451 Q874.274 520.031 874.274 515.447 Q874.274 510.85 875.879 508.443 Q877.496 506.023 880.548 506.023 Z" fill="#000000" fill-rule="evenodd" fill-opacity="1" /><path clip-path="url(#clip800)" d="M896.391 507.968 Q894.494 507.968 893.534 509.841 Q892.585 511.701 892.585 515.447 Q892.585 519.18 893.534 521.053 Q894.494 522.913 896.391 522.913 Q898.3 522.913 899.248 521.053 Q900.209 519.18 900.209 515.447 Q900.209 511.701 899.248 509.841 Q898.3 507.968 896.391 507.968 M896.391 506.023 Q899.443 506.023 901.048 508.443 Q902.665 510.85 902.665 515.447 Q902.665 520.031 901.048 522.451 Q899.443 524.859 896.391 524.859 Q893.339 524.859 891.722 522.451 Q890.117 520.031 890.117 515.447 Q890.117 510.85 891.722 508.443 Q893.339 506.023 896.391 506.023 Z" fill="#000000" fill-rule="evenodd" fill-opacity="1" /><path clip-path="url(#clip800)" d="M469.271 540.467 L489.747 540.467 L489.747 543.223 L481.155 543.223 L481.155 564.673 L477.864 564.673 L477.864 543.223 L469.271 543.223 L469.271 540.467 Z" fill="#000000" fill-rule="evenodd" fill-opacity="1" /><path clip-path="url(#clip800)" d="M491.757 546.514 L494.74 546.514 L494.74 564.673 L491.757 564.673 L491.757 546.514 M491.757 539.445 L494.74 539.445 L494.74 543.223 L491.757 543.223 L491.757 539.445 Z" fill="#000000" fill-rule="evenodd" fill-opacity="1" /><path clip-path="url(#clip800)" d="M515.119 550 Q516.238 547.99 517.794 547.033 Q519.35 546.076 521.458 546.076 Q524.295 546.076 525.835 548.071 Q527.375 550.049 527.375 553.713 L527.375 564.673 L524.376 564.673 L524.376 553.81 Q524.376 551.2 523.452 549.935 Q522.528 548.671 520.631 548.671 Q518.313 548.671 516.967 550.211 Q515.622 551.751 515.622 554.41 L515.622 564.673 L512.622 564.673 L512.622 553.81 Q512.622 551.184 511.698 549.935 Q510.774 548.671 508.845 548.671 Q506.559 548.671 505.213 550.227 Q503.868 551.767 503.868 554.41 L503.868 564.673 L500.869 564.673 L500.869 546.514 L503.868 546.514 L503.868 549.335 Q504.889 547.665 506.316 546.871 Q507.742 546.076 509.704 546.076 Q511.682 546.076 513.06 547.082 Q514.454 548.087 515.119 550 Z" fill="#000000" fill-rule="evenodd" fill-opacity="1" /><path clip-path="url(#clip800)" d="M548.856 554.848 L548.856 556.307 L535.141 556.307 Q535.335 559.388 536.989 561.009 Q538.659 562.614 541.626 562.614 Q543.344 562.614 544.949 562.193 Q546.57 561.771 548.159 560.928 L548.159 563.749 Q546.554 564.43 544.868 564.787 Q543.182 565.143 541.447 565.143 Q537.103 565.143 534.557 562.614 Q532.028 560.085 532.028 555.772 Q532.028 551.313 534.428 548.703 Q536.843 546.076 540.929 546.076 Q544.592 546.076 546.716 548.444 Q548.856 550.795 548.856 554.848 M545.873 553.972 Q545.841 551.524 544.495 550.065 Q543.166 548.606 540.961 548.606 Q538.464 548.606 536.957 550.016 Q535.465 551.427 535.238 553.989 L545.873 553.972 Z" fill="#000000" fill-rule="evenodd" fill-opacity="1" /><polyline clip-path="url(#clip802)" style="stroke:#000000; stroke-linecap:butt; stroke-linejoin:round; stroke-width:1.40085; stroke-opacity:0.1; fill:none" points="
  111.216,471.704 906.912,471.704 
  "/>
<polyline clip-path="url(#clip802)" style="stroke:#000000; stroke-linecap:butt; stroke-linejoin:round; stroke-width:1.40085; stroke-opacity:0.1; fill:none" points="
  111.216,360.593 906.912,360.593 
  "/>
<polyline clip-path="url(#clip802)" style="stroke:#000000; stroke-linecap:butt; stroke-linejoin:round; stroke-width:1.40085; stroke-opacity:0.1; fill:none" points="
  111.216,249.481 906.912,249.481 
  "/>
<polyline clip-path="url(#clip802)" style="stroke:#000000; stroke-linecap:butt; stroke-linejoin:round; stroke-width:1.40085; stroke-opacity:0.1; fill:none" points="
  111.216,138.37 906.912,138.37 
  "/>
<polyline clip-path="url(#clip800)" style="stroke:#000000; stroke-linecap:butt; stroke-linejoin:round; stroke-width:2.80169; stroke-opacity:1; fill:none" points="
  111.216,494.292 111.216,33.0909 
  "/>
<polyline clip-path="url(#clip800)" style="stroke:#000000; stroke-linecap:butt; stroke-linejoin:round; stroke-width:2.80169; stroke-opacity:1; fill:none" points="
  111.216,471.704 130.123,471.704 
  "/>
<polyline clip-path="url(#clip800)" style="stroke:#000000; stroke-linecap:butt; stroke-linejoin:round; stroke-width:2.80169; stroke-opacity:1; fill:none" points="
  111.216,360.593 130.123,360.593 
  "/>
<polyline clip-path="url(#clip800)" style="stroke:#000000; stroke-linecap:butt; stroke-linejoin:round; stroke-width:2.80169; stroke-opacity:1; fill:none" points="
  111.216,249.481 130.123,249.481 
  "/>
<polyline clip-path="url(#clip800)" style="stroke:#000000; stroke-linecap:butt; stroke-linejoin:round; stroke-width:2.80169; stroke-opacity:1; fill:none" points="
  111.216,138.37 130.123,138.37 
  "/>
<path clip-path="url(#clip800)" d="M48.8563 471.942 L64.4442 471.942 L64.4442 474.009 L48.8563 474.009 L48.8563 471.942 Z" fill="#000000" fill-rule="evenodd" fill-opacity="1" /><path clip-path="url(#clip800)" d="M71.8612 478.715 L80.4334 478.715 L80.4334 480.782 L68.9066 480.782 L68.9066 478.715 Q70.3049 477.268 72.7124 474.836 Q75.132 472.391 75.7521 471.686 Q76.9316 470.361 77.3936 469.449 Q77.8678 468.525 77.8678 467.637 Q77.8678 466.19 76.8465 465.278 Q75.8372 464.366 74.2079 464.366 Q73.0528 464.366 71.764 464.767 Q70.4873 465.168 69.0282 465.983 L69.0282 463.502 Q70.5116 462.907 71.8004 462.603 Q73.0893 462.299 74.1593 462.299 Q76.9802 462.299 78.6581 463.709 Q80.3361 465.12 80.3361 467.479 Q80.3361 468.598 79.9105 469.607 Q79.4971 470.604 78.3906 471.966 Q78.0867 472.319 76.4574 474.009 Q74.828 475.687 71.8612 478.715 Z" fill="#000000" fill-rule="evenodd" fill-opacity="1" /><path clip-path="url(#clip800)" d="M90.8415 464.244 Q88.9447 464.244 87.9841 466.117 Q87.0357 467.977 87.0357 471.723 Q87.0357 475.456 87.9841 477.328 Q88.9447 479.189 90.8415 479.189 Q92.7505 479.189 93.6989 477.328 Q94.6595 475.456 94.6595 471.723 Q94.6595 467.977 93.6989 466.117 Q92.7505 464.244 90.8415 464.244 M90.8415 462.299 Q93.8934 462.299 95.4984 464.718 Q97.1156 467.126 97.1156 471.723 Q97.1156 476.307 95.4984 478.727 Q93.8934 481.135 90.8415 481.135 Q87.7896 481.135 86.1724 478.727 Q84.5674 476.307 84.5674 471.723 Q84.5674 467.126 86.1724 464.718 Q87.7896 462.299 90.8415 462.299 Z" fill="#000000" fill-rule="evenodd" fill-opacity="1" /><path clip-path="url(#clip800)" d="M48.8563 360.83 L64.4442 360.83 L64.4442 362.897 L48.8563 362.897 L48.8563 360.83 Z" fill="#000000" fill-rule="evenodd" fill-opacity="1" /><path clip-path="url(#clip800)" d="M70.1711 367.603 L74.1836 367.603 L74.1836 353.753 L69.8185 354.628 L69.8185 352.391 L74.1593 351.515 L76.6154 351.515 L76.6154 367.603 L80.6279 367.603 L80.6279 369.67 L70.1711 369.67 L70.1711 367.603 Z" fill="#000000" fill-rule="evenodd" fill-opacity="1" /><path clip-path="url(#clip800)" d="M90.8415 353.133 Q88.9447 353.133 87.9841 355.005 Q87.0357 356.866 87.0357 360.611 Q87.0357 364.344 87.9841 366.217 Q88.9447 368.077 90.8415 368.077 Q92.7505 368.077 93.6989 366.217 Q94.6595 364.344 94.6595 360.611 Q94.6595 356.866 93.6989 355.005 Q92.7505 353.133 90.8415 353.133 M90.8415 351.187 Q93.8934 351.187 95.4984 353.607 Q97.1156 356.015 97.1156 360.611 Q97.1156 365.196 95.4984 367.615 Q93.8934 370.023 90.8415 370.023 Q87.7896 370.023 86.1724 367.615 Q84.5674 365.196 84.5674 360.611 Q84.5674 356.015 86.1724 353.607 Q87.7896 351.187 90.8415 351.187 Z" fill="#000000" fill-rule="evenodd" fill-opacity="1" /><path clip-path="url(#clip800)" d="M90.8415 242.021 Q88.9447 242.021 87.9841 243.894 Q87.0357 245.754 87.0357 249.5 Q87.0357 253.233 87.9841 255.106 Q88.9447 256.966 90.8415 256.966 Q92.7505 256.966 93.6989 255.106 Q94.6595 253.233 94.6595 249.5 Q94.6595 245.754 93.6989 243.894 Q92.7505 242.021 90.8415 242.021 M90.8415 240.076 Q93.8934 240.076 95.4984 242.496 Q97.1156 244.903 97.1156 249.5 Q97.1156 254.084 95.4984 256.504 Q93.8934 258.912 90.8415 258.912 Q87.7896 258.912 86.1724 256.504 Q84.5674 254.084 84.5674 249.5 Q84.5674 244.903 86.1724 242.496 Q87.7896 240.076 90.8415 240.076 Z" fill="#000000" fill-rule="evenodd" fill-opacity="1" /><path clip-path="url(#clip800)" d="M70.1711 145.38 L74.1836 145.38 L74.1836 131.53 L69.8185 132.405 L69.8185 130.168 L74.1593 129.293 L76.6154 129.293 L76.6154 145.38 L80.6279 145.38 L80.6279 147.447 L70.1711 147.447 L70.1711 145.38 Z" fill="#000000" fill-rule="evenodd" fill-opacity="1" /><path clip-path="url(#clip800)" d="M90.8415 130.91 Q88.9447 130.91 87.9841 132.782 Q87.0357 134.643 87.0357 138.388 Q87.0357 142.121 87.9841 143.994 Q88.9447 145.855 90.8415 145.855 Q92.7505 145.855 93.6989 143.994 Q94.6595 142.121 94.6595 138.388 Q94.6595 134.643 93.6989 132.782 Q92.7505 130.91 90.8415 130.91 M90.8415 128.964 Q93.8934 128.964 95.4984 131.384 Q97.1156 133.792 97.1156 138.388 Q97.1156 142.973 95.4984 145.392 Q93.8934 147.8 90.8415 147.8 Q87.7896 147.8 86.1724 145.392 Q84.5674 142.973 84.5674 138.388 Q84.5674 133.792 86.1724 131.384 Q87.7896 128.964 90.8415 128.964 Z" fill="#000000" fill-rule="evenodd" fill-opacity="1" /><path clip-path="url(#clip800)" d="M5.51137 413.138 Q5.51137 416.705 8.17015 418.813 Q10.8289 420.905 15.4169 420.905 Q19.9887 420.905 22.6475 418.813 Q25.3063 416.705 25.3063 413.138 Q25.3063 409.571 22.6475 407.496 Q19.9887 405.405 15.4169 405.405 Q10.8289 405.405 8.17015 407.496 Q5.51137 409.571 5.51137 413.138 M27.0572 408.55 L31.7749 404.237 L31.7749 408.193 L27.9002 411.776 Q27.9327 412.311 27.9489 412.603 Q27.9651 412.879 27.9651 413.138 Q27.9651 418.246 24.5605 421.31 Q21.1398 424.358 15.4169 424.358 Q9.67787 424.358 6.27333 421.31 Q2.85259 418.246 2.85259 413.138 Q2.85259 408.047 6.27333 404.999 Q9.67787 401.951 15.4169 401.951 Q19.6321 401.951 22.6313 403.653 Q25.6305 405.34 27.0572 408.55 Z" fill="#000000" fill-rule="evenodd" fill-opacity="1" /><path clip-path="url(#clip800)" d="M20.3292 397.265 L9.33741 397.265 L9.33741 394.282 L20.2157 394.282 Q22.7934 394.282 24.0904 393.277 Q25.3711 392.272 25.3711 390.261 Q25.3711 387.845 23.831 386.451 Q22.2909 385.041 19.6321 385.041 L9.33741 385.041 L9.33741 382.057 L27.4949 382.057 L27.4949 385.041 L24.7065 385.041 Q26.3601 386.127 27.1707 387.57 Q27.9651 388.997 27.9651 390.894 Q27.9651 394.023 26.0196 395.644 Q24.0742 397.265 20.3292 397.265 M8.89969 389.759 L8.89969 389.759 Z" fill="#000000" fill-rule="evenodd" fill-opacity="1" /><path clip-path="url(#clip800)" d="M18.3675 367.66 Q18.3675 371.275 19.1944 372.67 Q20.0212 374.064 22.0153 374.064 Q23.604 374.064 24.5443 373.026 Q25.4684 371.972 25.4684 370.173 Q25.4684 367.692 23.7175 366.201 Q21.9504 364.693 19.0322 364.693 L18.3675 364.693 L18.3675 367.66 M17.1354 361.709 L27.4949 361.709 L27.4949 364.693 L24.7389 364.693 Q26.3925 365.714 27.1869 367.238 Q27.9651 368.762 27.9651 370.967 Q27.9651 373.756 26.4087 375.41 Q24.8362 377.047 22.2098 377.047 Q19.1457 377.047 17.5894 375.004 Q16.033 372.945 16.033 368.876 L16.033 364.693 L15.7412 364.693 Q13.6822 364.693 12.5636 366.055 Q11.4288 367.4 11.4288 369.849 Q11.4288 371.405 11.8016 372.88 Q12.1745 374.356 12.9203 375.718 L10.1642 375.718 Q9.53196 374.08 9.22393 372.54 Q8.89969 371 8.89969 369.54 Q8.89969 365.601 10.9424 363.655 Q12.9851 361.709 17.1354 361.709 Z" fill="#000000" fill-rule="evenodd" fill-opacity="1" /><path clip-path="url(#clip800)" d="M16.5356 340.47 L27.4949 340.47 L27.4949 343.453 L16.6328 343.453 Q14.0551 343.453 12.7744 344.458 Q11.4936 345.464 11.4936 347.474 Q11.4936 349.89 13.0338 351.284 Q14.5739 352.679 17.2327 352.679 L27.4949 352.679 L27.4949 355.678 L9.33741 355.678 L9.33741 352.679 L12.1583 352.679 Q10.5209 351.608 9.71029 350.165 Q8.89969 348.706 8.89969 346.809 Q8.89969 343.68 10.8451 342.075 Q12.7744 340.47 16.5356 340.47 Z" fill="#000000" fill-rule="evenodd" fill-opacity="1" /><path clip-path="url(#clip800)" d="M4.18198 331.569 L9.33741 331.569 L9.33741 325.424 L11.6557 325.424 L11.6557 331.569 L21.5127 331.569 Q23.7337 331.569 24.366 330.969 Q24.9983 330.353 24.9983 328.488 L24.9983 325.424 L27.4949 325.424 L27.4949 328.488 Q27.4949 331.942 26.2142 333.255 Q24.9172 334.568 21.5127 334.568 L11.6557 334.568 L11.6557 336.757 L9.33741 336.757 L9.33741 334.568 L4.18198 334.568 L4.18198 331.569 Z" fill="#000000" fill-rule="evenodd" fill-opacity="1" /><path clip-path="url(#clip800)" d="M9.33741 321.5 L9.33741 318.517 L27.4949 318.517 L27.4949 321.5 L9.33741 321.5 M2.26895 321.5 L2.26895 318.517 L6.04636 318.517 L6.04636 321.5 L2.26895 321.5 Z" fill="#000000" fill-rule="evenodd" fill-opacity="1" /><path clip-path="url(#clip800)" d="M4.18198 309.324 L9.33741 309.324 L9.33741 303.179 L11.6557 303.179 L11.6557 309.324 L21.5127 309.324 Q23.7337 309.324 24.366 308.724 Q24.9983 308.108 24.9983 306.243 L24.9983 303.179 L27.4949 303.179 L27.4949 306.243 Q27.4949 309.697 26.2142 311.01 Q24.9172 312.323 21.5127 312.323 L11.6557 312.323 L11.6557 314.512 L9.33741 314.512 L9.33741 312.323 L4.18198 312.323 L4.18198 309.324 Z" fill="#000000" fill-rule="evenodd" fill-opacity="1" /><path clip-path="url(#clip800)" d="M29.181 291.7 Q32.4234 292.965 33.4123 294.164 Q34.4013 295.364 34.4013 297.375 L34.4013 299.758 L31.9046 299.758 L31.9046 298.007 Q31.9046 296.775 31.321 296.094 Q30.7373 295.413 28.5649 294.586 L27.2031 294.051 L9.33741 301.396 L9.33741 298.234 L23.5392 292.559 L9.33741 286.885 L9.33741 283.723 L29.181 291.7 Z" fill="#000000" fill-rule="evenodd" fill-opacity="1" /><path clip-path="url(#clip800)" d="M11.4288 262.013 Q11.4288 264.413 13.3094 265.807 Q15.1738 267.201 18.4324 267.201 Q21.691 267.201 23.5716 265.823 Q25.436 264.429 25.436 262.013 Q25.436 259.63 23.5554 258.235 Q21.6748 256.841 18.4324 256.841 Q15.2062 256.841 13.3256 258.235 Q11.4288 259.63 11.4288 262.013 M8.89969 262.013 Q8.89969 258.122 11.4288 255.901 Q13.9579 253.679 18.4324 253.679 Q22.8907 253.679 25.436 255.901 Q27.9651 258.122 27.9651 262.013 Q27.9651 265.921 25.436 268.142 Q22.8907 270.347 18.4324 270.347 Q13.9579 270.347 11.4288 268.142 Q8.89969 265.921 8.89969 262.013 Z" fill="#000000" fill-rule="evenodd" fill-opacity="1" /><path clip-path="url(#clip800)" d="M2.26895 239.541 L4.7494 239.541 L4.7494 242.395 Q4.7494 244 5.39788 244.632 Q6.04636 245.248 7.73242 245.248 L9.33741 245.248 L9.33741 240.336 L11.6557 240.336 L11.6557 245.248 L27.4949 245.248 L27.4949 248.248 L11.6557 248.248 L11.6557 251.102 L9.33741 251.102 L9.33741 248.248 L8.07287 248.248 Q5.04122 248.248 3.66319 246.837 Q2.26895 245.427 2.26895 242.363 L2.26895 239.541 Z" fill="#000000" fill-rule="evenodd" fill-opacity="1" /><path clip-path="url(#clip800)" d="M9.33741 226.49 L9.33741 223.506 L27.4949 223.506 L27.4949 226.49 L9.33741 226.49 M2.26895 226.49 L2.26895 223.506 L6.04636 223.506 L6.04636 226.49 L2.26895 226.49 Z" fill="#000000" fill-rule="evenodd" fill-opacity="1" /><path clip-path="url(#clip800)" d="M16.5356 202.169 L27.4949 202.169 L27.4949 205.153 L16.6328 205.153 Q14.0551 205.153 12.7744 206.158 Q11.4936 207.163 11.4936 209.174 Q11.4936 211.589 13.0338 212.984 Q14.5739 214.378 17.2327 214.378 L27.4949 214.378 L27.4949 217.378 L9.33741 217.378 L9.33741 214.378 L12.1583 214.378 Q10.5209 213.308 9.71029 211.865 Q8.89969 210.406 8.89969 208.509 Q8.89969 205.38 10.8451 203.775 Q12.7744 202.169 16.5356 202.169 Z" fill="#000000" fill-rule="evenodd" fill-opacity="1" /><path clip-path="url(#clip800)" d="M4.18198 193.268 L9.33741 193.268 L9.33741 187.123 L11.6557 187.123 L11.6557 193.268 L21.5127 193.268 Q23.7337 193.268 24.366 192.668 Q24.9983 192.052 24.9983 190.188 L24.9983 187.123 L27.4949 187.123 L27.4949 190.188 Q27.4949 193.641 26.2142 194.954 Q24.9172 196.268 21.5127 196.268 L11.6557 196.268 L11.6557 198.457 L9.33741 198.457 L9.33741 196.268 L4.18198 196.268 L4.18198 193.268 Z" fill="#000000" fill-rule="evenodd" fill-opacity="1" /><path clip-path="url(#clip800)" d="M17.6704 167.667 L19.1295 167.667 L19.1295 181.384 Q22.2098 181.189 23.831 179.536 Q25.436 177.866 25.436 174.899 Q25.436 173.18 25.0145 171.575 Q24.593 169.953 23.7499 168.365 L26.5708 168.365 Q27.2517 169.97 27.6084 171.656 Q27.9651 173.342 27.9651 175.077 Q27.9651 179.422 25.436 181.968 Q22.9069 184.497 18.5945 184.497 Q14.1362 184.497 11.526 182.097 Q8.89969 179.681 8.89969 175.596 Q8.89969 171.931 11.2666 169.808 Q13.6174 167.667 17.6704 167.667 M16.795 170.651 Q14.3469 170.683 12.8879 172.029 Q11.4288 173.358 11.4288 175.563 Q11.4288 178.06 12.8392 179.568 Q14.2497 181.06 16.8112 181.287 L16.795 170.651 Z" fill="#000000" fill-rule="evenodd" fill-opacity="1" /><path clip-path="url(#clip800)" d="M12.1259 152.248 Q11.8341 152.751 11.7044 153.351 Q11.5585 153.935 11.5585 154.648 Q11.5585 157.177 13.2121 158.539 Q14.8495 159.885 17.9298 159.885 L27.4949 159.885 L27.4949 162.884 L9.33741 162.884 L9.33741 159.885 L12.1583 159.885 Q10.5047 158.945 9.71029 157.437 Q8.89969 155.929 8.89969 153.772 Q8.89969 153.464 8.94832 153.091 Q8.98075 152.719 9.06181 152.265 L12.1259 152.248 Z" fill="#000000" fill-rule="evenodd" fill-opacity="1" /><path clip-path="url(#clip800)" d="M17.6704 134.316 L19.1295 134.316 L19.1295 148.033 Q22.2098 147.838 23.831 146.185 Q25.436 144.515 25.436 141.548 Q25.436 139.829 25.0145 138.224 Q24.593 136.602 23.7499 135.014 L26.5708 135.014 Q27.2517 136.619 27.6084 138.305 Q27.9651 139.991 27.9651 141.726 Q27.9651 146.071 25.436 148.617 Q22.9069 151.146 18.5945 151.146 Q14.1362 151.146 11.526 148.746 Q8.89969 146.33 8.89969 142.245 Q8.89969 138.58 11.2666 136.457 Q13.6174 134.316 17.6704 134.316 M16.795 137.3 Q14.3469 137.332 12.8879 138.678 Q11.4288 140.007 11.4288 142.212 Q11.4288 144.709 12.8392 146.217 Q14.2497 147.709 16.8112 147.936 L16.795 137.3 Z" fill="#000000" fill-rule="evenodd" fill-opacity="1" /><path clip-path="url(#clip800)" d="M9.87241 117.844 L12.6933 117.844 Q12.0448 119.108 11.7206 120.47 Q11.3963 121.832 11.3963 123.291 Q11.3963 125.512 12.0773 126.631 Q12.7582 127.734 14.12 127.734 Q15.1575 127.734 15.7574 126.939 Q16.341 126.145 16.876 123.745 L17.103 122.724 Q17.7839 119.546 19.0322 118.216 Q20.2643 116.871 22.4854 116.871 Q25.0145 116.871 26.4898 118.881 Q27.9651 120.875 27.9651 124.378 Q27.9651 125.837 27.6733 127.426 Q27.3977 128.998 26.8302 130.749 L23.7499 130.749 Q24.6092 129.096 25.0469 127.491 Q25.4684 125.885 25.4684 124.313 Q25.4684 122.205 24.7551 121.07 Q24.0255 119.935 22.7124 119.935 Q21.4965 119.935 20.848 120.762 Q20.1995 121.573 19.5997 124.345 L19.3565 125.383 Q18.7728 128.155 17.5731 129.387 Q16.3572 130.62 14.2497 130.62 Q11.6882 130.62 10.2939 128.804 Q8.89969 126.988 8.89969 123.648 Q8.89969 121.994 9.14287 120.535 Q9.38605 119.076 9.87241 117.844 Z" fill="#000000" fill-rule="evenodd" fill-opacity="1" /><path clip-path="url(#clip800)" d="M4.18198 109.169 L9.33741 109.169 L9.33741 103.024 L11.6557 103.024 L11.6557 109.169 L21.5127 109.169 Q23.7337 109.169 24.366 108.569 Q24.9983 107.953 24.9983 106.089 L24.9983 103.024 L27.4949 103.024 L27.4949 106.089 Q27.4949 109.542 26.2142 110.856 Q24.9172 112.169 21.5127 112.169 L11.6557 112.169 L11.6557 114.358 L9.33741 114.358 L9.33741 112.169 L4.18198 112.169 L4.18198 109.169 Z" fill="#000000" fill-rule="evenodd" fill-opacity="1" /><polyline clip-path="url(#clip802)" style="stroke:#009af9; stroke-linecap:butt; stroke-linejoin:round; stroke-width:2.80169; stroke-opacity:1; fill:none" points="
  133.735,265.156 137.489,272.315 141.242,265.303 144.995,280.874 148.748,281.195 152.502,282.497 156.255,306.715 160.008,297.696 163.762,292.267 167.515,285.955 
  171.268,288.504 175.021,299.36 178.775,298.343 182.528,301.356 186.281,297.874 190.035,296.131 193.788,289.073 197.541,289.404 201.294,284.146 205.048,304.736 
  208.801,318.945 212.554,315.299 216.308,314.134 220.061,312.186 223.814,308.992 227.567,288.481 231.321,276.65 235.074,283.626 238.827,293.896 242.581,281.049 
  246.334,266.93 250.087,260.209 253.84,249.467 257.594,264.979 261.347,259.562 265.1,249.078 268.854,253.371 272.607,266.234 276.36,271.468 280.113,287.997 
  283.867,297.796 287.62,299.325 291.373,301.756 295.127,303.719 298.88,286.68 302.633,289.104 306.386,281.355 310.14,288.242 313.893,311.483 317.646,316.752 
  321.4,322.927 325.153,333.45 328.906,340.914 332.659,336.113 336.413,332.96 340.166,334.589 343.919,312.761 347.673,317.876 351.426,328.226 355.179,324.607 
  358.932,325.571 362.686,328.322 366.439,339.581 370.192,343.67 373.945,343.888 377.699,352.062 381.452,338.565 385.205,322.173 388.959,328.071 392.712,336.677 
  396.465,334.019 400.218,339.078 403.972,332.14 407.725,358.543 411.478,337.666 415.232,331.707 418.985,320.819 422.738,322.825 426.491,333.384 430.245,332.662 
  433.998,323.431 437.751,311.519 441.505,319.932 445.258,328.194 449.011,342.116 452.764,347.369 456.518,356.802 460.271,356.185 464.024,354.324 467.778,369.483 
  471.531,362.694 475.284,354.19 479.037,344.442 482.791,337.813 486.544,343.389 490.297,339.604 494.051,319.357 497.804,308.502 501.557,310.688 505.31,326.611 
  509.064,321.939 512.817,319.479 516.57,321.022 520.324,345.952 524.077,341.842 527.83,338.855 531.583,342.803 535.337,342.264 539.09,334.43 542.843,353.58 
  546.597,352.92 550.35,371.098 554.103,382.875 557.856,405.945 561.61,419.448 565.363,426.05 569.116,441 572.87,451.351 576.623,449.547 580.376,446.113 
  584.129,450.437 587.883,458.492 591.636,468.965 595.389,458.346 599.143,442.957 602.896,443.637 606.649,449.078 610.402,448.574 614.156,460.189 617.909,460.516 
  621.662,481.239 625.416,466.038 629.169,455.982 632.922,465.037 636.675,460.271 640.429,458.984 644.182,468.188 647.935,460.059 651.689,474.322 655.442,471.851 
  659.195,462.081 662.948,464.773 666.702,451.07 670.455,448.112 674.208,435.9 677.962,428.185 681.715,411.199 685.468,405.475 689.221,410.86 692.975,392.748 
  696.728,388.579 700.481,374.545 704.235,375.243 707.988,382.666 711.741,391.222 715.494,390.634 719.248,369.9 723.001,375.105 726.754,381.526 730.508,372.429 
  734.261,380.985 738.014,392.597 741.767,395.709 745.521,402.598 749.274,387.433 753.027,379.796 756.781,389.518 760.534,387.327 764.287,362.453 768.04,352.567 
  771.794,360.443 775.547,360.169 779.3,350.269 783.053,338.505 786.807,336.529 790.56,335.028 794.313,342.473 798.067,350.619 801.82,356.18 805.573,350.215 
  809.326,346.844 813.08,354.823 816.833,359.78 820.586,372.592 824.34,365.59 828.093,388.729 831.846,375.883 835.599,374.777 839.353,370.285 843.106,360.937 
  846.859,366.777 850.613,374.302 854.366,380.589 858.119,385.29 861.872,388.063 865.626,390.02 869.379,397.422 873.132,392.207 876.886,388.983 880.639,386.121 
  884.392,372.53 
  "/>
<polyline clip-path="url(#clip802)" style="stroke:#e26f46; stroke-linecap:butt; stroke-linejoin:round; stroke-width:2.80169; stroke-opacity:1; fill:none" points="
  133.735,262.798 137.489,248.849 141.242,251.442 144.995,259.876 148.748,258.532 152.502,248.856 156.255,236.494 160.008,231.794 163.762,230.03 167.515,253.469 
  171.268,260.822 175.021,263.849 178.775,265.612 182.528,260.701 186.281,264.47 190.035,264.244 193.788,266.778 197.541,257.085 201.294,246.841 205.048,273.556 
  208.801,267.423 212.554,261.623 216.308,261.923 220.061,256.953 223.814,247.116 227.567,226.001 231.321,217.569 235.074,209.352 238.827,208.832 242.581,207.248 
  246.334,190.307 250.087,191.672 253.84,186.472 257.594,190.749 261.347,190.19 265.1,177.111 268.854,166.675 272.607,179.192 276.36,176.894 280.113,160.282 
  283.867,149.21 287.62,137.097 291.373,132.986 295.127,148.636 298.88,141.064 302.633,131.559 306.386,122.049 310.14,119.38 313.893,101.655 317.646,98.2884 
  321.4,83.8469 325.153,77.2275 328.906,70.4805 332.659,63.0379 336.413,83.1296 340.166,96.8839 343.919,102.784 347.673,109.17 351.426,119.187 355.179,100.318 
  358.932,106.671 362.686,112.215 366.439,111.818 370.192,124.337 373.945,132.375 377.699,128.245 381.452,139.205 385.205,119.912 388.959,107.733 392.712,111.625 
  396.465,108.392 400.218,109.519 403.972,93.4904 407.725,84.0743 411.478,84.3378 415.232,88.4007 418.985,80.7323 422.738,83.7074 426.491,86.5689 430.245,102.379 
  433.998,82.3567 437.751,73.2467 441.505,53.4815 445.258,46.1437 449.011,47.4123 452.764,53.0118 456.518,66.2537 460.271,67.0905 464.024,76.2672 467.778,74.3947 
  471.531,79.9023 475.284,81.0086 479.037,92.4602 482.791,99.8037 486.544,106.013 490.297,113.399 494.051,116.432 497.804,115.114 501.557,149.547 505.31,154.64 
  509.064,153.295 512.817,159.153 516.57,145.875 520.324,150.943 524.077,159.508 527.83,161.769 531.583,148.854 535.337,142.538 539.09,147.335 542.843,149.152 
  546.597,125.059 550.35,115.644 554.103,127.16 557.856,125.944 561.61,111.243 565.363,95.7408 569.116,101.929 572.87,100.402 576.623,118.973 580.376,135.919 
  584.129,143.253 587.883,155.339 591.636,164.247 595.389,172.204 599.143,178.749 602.896,176.505 606.649,156.091 610.402,166.949 614.156,183.07 617.909,167.567 
  621.662,151.619 625.416,164.465 629.169,171.154 632.922,164.934 636.675,171.909 640.429,177.197 644.182,172.62 647.935,179.634 651.689,176.678 655.442,203.222 
  659.195,208.334 662.948,223.78 666.702,252.492 670.455,261.49 674.208,258.184 677.962,268.166 681.715,276.773 685.468,283.359 689.221,280.895 692.975,277.65 
  696.728,272.693 700.481,264.057 704.235,257.08 707.988,253.679 711.741,245.729 715.494,239.028 719.248,245.736 723.001,249.619 726.754,260.154 730.508,279.97 
  734.261,274.932 738.014,278.296 741.767,263.571 745.521,258.113 749.274,241.204 753.027,231.256 756.781,225.952 760.534,225.648 764.287,231.628 768.04,223.075 
  771.794,222.147 775.547,218.617 779.3,229.425 783.053,245.676 786.807,239.731 790.56,242.115 794.313,234.374 798.067,235.029 801.82,238.023 805.573,218.896 
  809.326,210.24 813.08,215.507 816.833,226.229 820.586,214.749 824.34,197.952 828.093,216.095 831.846,205.9 835.599,214.129 839.353,222.578 843.106,213.248 
  846.859,214.628 850.613,201.949 854.366,204.633 858.119,212.215 861.872,200.898 865.626,196.661 869.379,199.693 873.132,183.166 876.886,187.847 880.639,198.675 
  884.392,201.943 
  "/>
<polyline clip-path="url(#clip802)" style="stroke:#3da44d; stroke-linecap:butt; stroke-linejoin:round; stroke-width:2.80169; stroke-opacity:1; fill:none" points="
  133.735,242.841 137.489,245.336 141.242,254.146 144.995,263.276 148.748,278.853 152.502,267.283 156.255,268.683 160.008,291.617 163.762,293.027 167.515,293.851 
  171.268,284.499 175.021,283.064 178.775,273.614 182.528,265.089 186.281,279.783 190.035,293.004 193.788,285.387 197.541,271.362 201.294,284.016 205.048,296.307 
  208.801,298.55 212.554,304.731 216.308,302.095 220.061,317.314 223.814,316.012 227.567,332.309 231.321,339.619 235.074,312.748 238.827,316.646 242.581,316.386 
  246.334,317.878 250.087,317.711 253.84,317.225 257.594,308.153 261.347,332.512 265.1,339.311 268.854,354.685 272.607,363.737 276.36,353.003 280.113,332.252 
  283.867,349.735 287.62,341.57 291.373,337.209 295.127,360.063 298.88,361.816 302.633,351.88 306.386,356.834 310.14,355.873 313.893,354.948 317.646,345.975 
  321.4,337.508 325.153,346.627 328.906,366.202 332.659,356.884 336.413,361.862 340.166,365.378 343.919,360.396 347.673,352.86 351.426,346.308 355.179,338.224 
  358.932,327.217 362.686,329.805 366.439,327.343 370.192,334.094 373.945,333.072 377.699,328.956 381.452,322.699 385.205,323.972 388.959,333.185 392.712,324.856 
  396.465,341.541 400.218,354.924 403.972,351.907 407.725,338.078 411.478,354.789 415.232,352.441 418.985,334.756 422.738,329.5 426.491,340.693 430.245,320.651 
  433.998,313.217 437.751,309.831 441.505,311.957 445.258,289.197 449.011,271.018 452.764,261.605 456.518,241.982 460.271,229.946 464.024,228.418 467.778,209.029 
  471.531,207.543 475.284,195.98 479.037,195.064 482.791,203.44 486.544,211.087 490.297,212.663 494.051,198.397 497.804,208.487 501.557,215.259 505.31,215.177 
  509.064,215.175 512.817,192.091 516.57,197.733 520.324,193.446 524.077,205.005 527.83,200.107 531.583,187.533 535.337,188.218 539.09,191.299 542.843,187.671 
  546.597,183.008 550.35,180.023 554.103,196.038 557.856,195.494 561.61,197.902 565.363,211.798 569.116,211.472 572.87,204.952 576.623,183.225 580.376,184.457 
  584.129,170.153 587.883,171.937 591.636,165.432 595.389,166.675 599.143,184.54 602.896,184.085 606.649,192.685 610.402,188.011 614.156,194.875 617.909,172.858 
  621.662,159.104 625.416,169.263 629.169,173.972 632.922,187.173 636.675,179.873 640.429,196.529 644.182,184.552 647.935,192.251 651.689,194.074 655.442,187.05 
  659.195,184.869 662.948,172.176 666.702,173.57 670.455,177.35 674.208,172.092 677.962,177.325 681.715,169.123 685.468,169.023 689.221,173.192 692.975,164.026 
  696.728,177.967 700.481,186.67 704.235,174.95 707.988,184.716 711.741,171.279 715.494,175.439 719.248,169.58 723.001,145.987 726.754,151.756 730.508,151.705 
  734.261,151.646 738.014,157.389 741.767,158.112 745.521,163.484 749.274,168.952 753.027,182.9 756.781,153.839 760.534,144.351 764.287,149.188 768.04,152.12 
  771.794,127.439 775.547,127.358 779.3,139.772 783.053,148.127 786.807,170.595 790.56,164.256 794.313,182.573 798.067,189.681 801.82,178.839 805.573,179.29 
  809.326,173.686 813.08,187.602 816.833,204.607 820.586,205.51 824.34,199.325 828.093,179.342 831.846,177.631 835.599,173.111 839.353,180.312 843.106,180.875 
  846.859,170.549 850.613,168.616 854.366,177.782 858.119,170.199 861.872,177.675 865.626,183.108 869.379,191.213 873.132,209.074 876.886,231.126 880.639,243.301 
  884.392,219.732 
  "/>
<polyline clip-path="url(#clip802)" style="stroke:#c271d2; stroke-linecap:butt; stroke-linejoin:round; stroke-width:2.80169; stroke-opacity:1; fill:none" points="
  133.735,250.786 137.489,278.05 141.242,274.954 144.995,292.521 148.748,310.977 152.502,321.04 156.255,311.526 160.008,299.127 163.762,287.727 167.515,288.667 
  171.268,267.422 175.021,281.043 178.775,307.413 182.528,310.413 186.281,315.89 190.035,320.397 193.788,320.231 197.541,318.905 201.294,316.739 205.048,301.15 
  208.801,309.879 212.554,301.857 216.308,303.15 220.061,295.206 223.814,303.797 227.567,318.247 231.321,318.449 235.074,319.914 238.827,330.51 242.581,340.918 
  246.334,350.242 250.087,362.341 253.84,386.228 257.594,403.315 261.347,395.819 265.1,400.467 268.854,396.668 272.607,375.605 276.36,385.987 280.113,378.791 
  283.867,370.117 287.62,397.229 291.373,407.853 295.127,408.493 298.88,411.125 302.633,409.049 306.386,410.433 310.14,416.407 313.893,417.426 317.646,428.144 
  321.4,414.3 325.153,410.456 328.906,408.053 332.659,403.164 336.413,394.38 340.166,396.912 343.919,381.324 347.673,383.502 351.426,366.396 355.179,365.978 
  358.932,367.378 362.686,386.278 366.439,388.251 370.192,393.715 373.945,398.636 377.699,394.295 381.452,403.197 385.205,410.649 388.959,410.86 392.712,409.905 
  396.465,408.677 400.218,416.209 403.972,404.775 407.725,405.907 411.478,401.151 415.232,394.628 418.985,398.817 422.738,395.296 426.491,403.551 430.245,411.55 
  433.998,416.836 437.751,417.979 441.505,428.012 445.258,416.481 449.011,411.712 452.764,398.739 456.518,389.526 460.271,375.058 464.024,385.67 467.778,377.324 
  471.531,386.559 475.284,382.814 479.037,386.703 482.791,379.577 486.544,396.918 490.297,399.537 494.051,386.583 497.804,398.017 501.557,379.704 505.31,384.373 
  509.064,385.048 512.817,380.766 516.57,375.891 520.324,399.106 524.077,413.718 527.83,414.364 531.583,412.119 535.337,402.35 539.09,412.463 542.843,418.647 
  546.597,456.139 550.35,448.145 554.103,442.282 557.856,430.036 561.61,431.693 565.363,434.607 569.116,429.041 572.87,422.648 576.623,414.688 580.376,405.281 
  584.129,403.286 587.883,402.258 591.636,407.88 595.389,403.406 599.143,397.661 602.896,379.346 606.649,392.307 610.402,385.156 614.156,385.662 617.909,385.541 
  621.662,391.231 625.416,396.782 629.169,410.49 632.922,405.631 636.675,400.475 640.429,397.328 644.182,421.758 647.935,442.885 651.689,464.282 655.442,466.927 
  659.195,467.554 662.948,476.781 666.702,475.872 670.455,478.542 674.208,472.491 677.962,461.55 681.715,461.662 685.468,474.68 689.221,478.383 692.975,473.182 
  696.728,467.909 700.481,462.419 704.235,453.622 707.988,446.013 711.741,445.902 715.494,432.689 719.248,426.468 723.001,410.267 726.754,414.865 730.508,412.275 
  734.261,418.854 738.014,407.98 741.767,405.556 745.521,382.777 749.274,398.509 753.027,410.229 756.781,402.932 760.534,388.895 764.287,402.992 768.04,410.004 
  771.794,395.452 775.547,387.439 779.3,387.478 783.053,383.523 786.807,371.766 790.56,395.76 794.313,394.449 798.067,412.377 801.82,429.628 805.573,437.694 
  809.326,446.023 813.08,449.024 816.833,429.163 820.586,422.615 824.34,412.283 828.093,404.65 831.846,386.306 835.599,407.434 839.353,390.075 843.106,386.735 
  846.859,360.818 850.613,378.091 854.366,378.332 858.119,392.251 861.872,411.082 865.626,398.902 869.379,395.926 873.132,408.572 876.886,405.389 880.639,399.233 
  884.392,392.823 
  "/>
<path clip-path="url(#clip800)" d="
M684.995 230.014 L880.389 230.014 L880.389 48.4642 L684.995 48.4642  Z
  " fill="#ffffff" fill-rule="evenodd" fill-opacity="1"/>
<polyline clip-path="url(#clip800)" style="stroke:#000000; stroke-linecap:butt; stroke-linejoin:round; stroke-width:2.80169; stroke-opacity:1; fill:none" points="
  684.995,230.014 880.389,230.014 880.389,48.4642 684.995,48.4642 684.995,230.014 
  "/>
<polyline clip-path="url(#clip800)" style="stroke:#009af9; stroke-linecap:butt; stroke-linejoin:round; stroke-width:2.80169; stroke-opacity:1; fill:none" points="
  693.836,84.7741 746.882,84.7741 
  "/>
<path clip-path="url(#clip800)" d="M755.723 71.6494 L758.706 71.6494 L758.706 96.8774 L755.723 96.8774 L755.723 71.6494 Z" fill="#000000" fill-rule="evenodd" fill-opacity="1" /><path clip-path="url(#clip800)" d="M773.2 87.7493 Q769.584 87.7493 768.19 88.5762 Q766.796 89.4031 766.796 91.3973 Q766.796 92.9862 767.834 93.9266 Q768.887 94.8508 770.687 94.8508 Q773.167 94.8508 774.659 93.0997 Q776.167 91.3325 776.167 88.414 L776.167 87.7493 L773.2 87.7493 M779.15 86.5171 L779.15 96.8774 L776.167 96.8774 L776.167 94.1212 Q775.145 95.7749 773.621 96.5694 Q772.097 97.3476 769.892 97.3476 Q767.104 97.3476 765.45 95.7912 Q763.813 94.2184 763.813 91.5919 Q763.813 88.5275 765.856 86.9711 Q767.915 85.4146 771.984 85.4146 L776.167 85.4146 L776.167 85.1227 Q776.167 83.0636 774.805 81.9449 Q773.459 80.81 771.011 80.81 Q769.455 80.81 767.979 81.1829 Q766.504 81.5558 765.142 82.3016 L765.142 79.5453 Q766.78 78.913 768.32 78.6049 Q769.86 78.2807 771.319 78.2807 Q775.259 78.2807 777.204 80.3236 Q779.15 82.3664 779.15 86.5171 Z" fill="#000000" fill-rule="evenodd" fill-opacity="1" /><path clip-path="url(#clip800)" d="M798.328 87.8142 Q798.328 84.5228 796.967 82.6583 Q795.621 80.7775 793.254 80.7775 Q790.887 80.7775 789.525 82.6583 Q788.18 84.5228 788.18 87.8142 Q788.18 91.1055 789.525 92.9862 Q790.887 94.8508 793.254 94.8508 Q795.621 94.8508 796.967 92.9862 Q798.328 91.1055 798.328 87.8142 M788.18 81.4747 Q789.12 79.8534 790.547 79.0751 Q791.989 78.2807 793.984 78.2807 Q797.291 78.2807 799.35 80.9072 Q801.425 83.5338 801.425 87.8142 Q801.425 92.0945 799.35 94.7211 Q797.291 97.3476 793.984 97.3476 Q791.989 97.3476 790.547 96.5694 Q789.12 95.7749 788.18 94.1536 L788.18 96.8774 L785.18 96.8774 L785.18 71.6494 L788.18 71.6494 L788.18 81.4747 Z" fill="#000000" fill-rule="evenodd" fill-opacity="1" /><path clip-path="url(#clip800)" d="M821.901 87.0521 L821.901 88.5113 L808.185 88.5113 Q808.38 91.5919 810.034 93.2132 Q811.703 94.8183 814.67 94.8183 Q816.389 94.8183 817.994 94.3968 Q819.615 93.9752 821.204 93.1322 L821.204 95.9533 Q819.599 96.6342 817.913 96.9909 Q816.227 97.3476 814.492 97.3476 Q810.147 97.3476 807.602 94.8183 Q805.073 92.2891 805.073 87.9763 Q805.073 83.5176 807.472 80.9072 Q809.888 78.2807 813.973 78.2807 Q817.637 78.2807 819.761 80.6478 Q821.901 82.9988 821.901 87.0521 M818.918 86.1766 Q818.885 83.7284 817.54 82.2692 Q816.21 80.81 814.005 80.81 Q811.509 80.81 810.001 82.2205 Q808.51 83.6311 808.283 86.1928 L818.918 86.1766 Z" fill="#000000" fill-rule="evenodd" fill-opacity="1" /><path clip-path="url(#clip800)" d="M826.797 71.6494 L829.78 71.6494 L829.78 96.8774 L826.797 96.8774 L826.797 71.6494 Z" fill="#000000" fill-rule="evenodd" fill-opacity="1" /><path clip-path="url(#clip800)" d="M847.564 94.1212 L852.914 94.1212 L852.914 75.6541 L847.094 76.8215 L847.094 73.8382 L852.882 72.6708 L856.157 72.6708 L856.157 94.1212 L861.507 94.1212 L861.507 96.8774 L847.564 96.8774 L847.564 94.1212 Z" fill="#000000" fill-rule="evenodd" fill-opacity="1" /><polyline clip-path="url(#clip800)" style="stroke:#e26f46; stroke-linecap:butt; stroke-linejoin:round; stroke-width:2.80169; stroke-opacity:1; fill:none" points="
  693.836,121.084 746.882,121.084 
  "/>
<path clip-path="url(#clip800)" d="M755.723 107.959 L758.706 107.959 L758.706 133.187 L755.723 133.187 L755.723 107.959 Z" fill="#000000" fill-rule="evenodd" fill-opacity="1" /><path clip-path="url(#clip800)" d="M773.2 124.059 Q769.584 124.059 768.19 124.886 Q766.796 125.713 766.796 127.707 Q766.796 129.296 767.834 130.237 Q768.887 131.161 770.687 131.161 Q773.167 131.161 774.659 129.41 Q776.167 127.642 776.167 124.724 L776.167 124.059 L773.2 124.059 M779.15 122.827 L779.15 133.187 L776.167 133.187 L776.167 130.431 Q775.145 132.085 773.621 132.879 Q772.097 133.658 769.892 133.658 Q767.104 133.658 765.45 132.101 Q763.813 130.528 763.813 127.902 Q763.813 124.837 765.856 123.281 Q767.915 121.724 771.984 121.724 L776.167 121.724 L776.167 121.433 Q776.167 119.374 774.805 118.255 Q773.459 117.12 771.011 117.12 Q769.455 117.12 767.979 117.493 Q766.504 117.866 765.142 118.612 L765.142 115.855 Q766.78 115.223 768.32 114.915 Q769.86 114.591 771.319 114.591 Q775.259 114.591 777.204 116.633 Q779.15 118.676 779.15 122.827 Z" fill="#000000" fill-rule="evenodd" fill-opacity="1" /><path clip-path="url(#clip800)" d="M798.328 124.124 Q798.328 120.833 796.967 118.968 Q795.621 117.087 793.254 117.087 Q790.887 117.087 789.525 118.968 Q788.18 120.833 788.18 124.124 Q788.18 127.415 789.525 129.296 Q790.887 131.161 793.254 131.161 Q795.621 131.161 796.967 129.296 Q798.328 127.415 798.328 124.124 M788.18 117.785 Q789.12 116.163 790.547 115.385 Q791.989 114.591 793.984 114.591 Q797.291 114.591 799.35 117.217 Q801.425 119.844 801.425 124.124 Q801.425 128.404 799.35 131.031 Q797.291 133.658 793.984 133.658 Q791.989 133.658 790.547 132.879 Q789.12 132.085 788.18 130.464 L788.18 133.187 L785.18 133.187 L785.18 107.959 L788.18 107.959 L788.18 117.785 Z" fill="#000000" fill-rule="evenodd" fill-opacity="1" /><path clip-path="url(#clip800)" d="M821.901 123.362 L821.901 124.821 L808.185 124.821 Q808.38 127.902 810.034 129.523 Q811.703 131.128 814.67 131.128 Q816.389 131.128 817.994 130.707 Q819.615 130.285 821.204 129.442 L821.204 132.263 Q819.599 132.944 817.913 133.301 Q816.227 133.658 814.492 133.658 Q810.147 133.658 807.602 131.128 Q805.073 128.599 805.073 124.286 Q805.073 119.828 807.472 117.217 Q809.888 114.591 813.973 114.591 Q817.637 114.591 819.761 116.958 Q821.901 119.309 821.901 123.362 M818.918 122.487 Q818.885 120.038 817.54 118.579 Q816.21 117.12 814.005 117.12 Q811.509 117.12 810.001 118.53 Q808.51 119.941 808.283 122.503 L818.918 122.487 Z" fill="#000000" fill-rule="evenodd" fill-opacity="1" /><path clip-path="url(#clip800)" d="M826.797 107.959 L829.78 107.959 L829.78 133.187 L826.797 133.187 L826.797 107.959 Z" fill="#000000" fill-rule="evenodd" fill-opacity="1" /><path clip-path="url(#clip800)" d="M849.818 130.431 L861.247 130.431 L861.247 133.187 L845.878 133.187 L845.878 130.431 Q847.743 128.502 850.953 125.259 Q854.179 122 855.006 121.06 Q856.578 119.292 857.194 118.076 Q857.827 116.844 857.827 115.661 Q857.827 113.731 856.465 112.515 Q855.119 111.299 852.947 111.299 Q851.407 111.299 849.688 111.834 Q847.986 112.369 846.041 113.456 L846.041 110.148 Q848.018 109.354 849.737 108.948 Q851.455 108.543 852.882 108.543 Q856.643 108.543 858.88 110.424 Q861.118 112.305 861.118 115.45 Q861.118 116.942 860.55 118.287 Q859.999 119.617 858.524 121.433 Q858.119 121.903 855.946 124.157 Q853.774 126.394 849.818 130.431 Z" fill="#000000" fill-rule="evenodd" fill-opacity="1" /><polyline clip-path="url(#clip800)" style="stroke:#3da44d; stroke-linecap:butt; stroke-linejoin:round; stroke-width:2.80169; stroke-opacity:1; fill:none" points="
  693.836,157.394 746.882,157.394 
  "/>
<path clip-path="url(#clip800)" d="M755.723 144.269 L758.706 144.269 L758.706 169.497 L755.723 169.497 L755.723 144.269 Z" fill="#000000" fill-rule="evenodd" fill-opacity="1" /><path clip-path="url(#clip800)" d="M773.2 160.369 Q769.584 160.369 768.19 161.196 Q766.796 162.023 766.796 164.017 Q766.796 165.606 767.834 166.546 Q768.887 167.471 770.687 167.471 Q773.167 167.471 774.659 165.72 Q776.167 163.952 776.167 161.034 L776.167 160.369 L773.2 160.369 M779.15 159.137 L779.15 169.497 L776.167 169.497 L776.167 166.741 Q775.145 168.395 773.621 169.189 Q772.097 169.967 769.892 169.967 Q767.104 169.967 765.45 168.411 Q763.813 166.838 763.813 164.212 Q763.813 161.147 765.856 159.591 Q767.915 158.034 771.984 158.034 L776.167 158.034 L776.167 157.743 Q776.167 155.683 774.805 154.565 Q773.459 153.43 771.011 153.43 Q769.455 153.43 767.979 153.803 Q766.504 154.176 765.142 154.921 L765.142 152.165 Q766.78 151.533 768.32 151.225 Q769.86 150.901 771.319 150.901 Q775.259 150.901 777.204 152.943 Q779.15 154.986 779.15 159.137 Z" fill="#000000" fill-rule="evenodd" fill-opacity="1" /><path clip-path="url(#clip800)" d="M798.328 160.434 Q798.328 157.143 796.967 155.278 Q795.621 153.397 793.254 153.397 Q790.887 153.397 789.525 155.278 Q788.18 157.143 788.18 160.434 Q788.18 163.725 789.525 165.606 Q790.887 167.471 793.254 167.471 Q795.621 167.471 796.967 165.606 Q798.328 163.725 798.328 160.434 M788.18 154.095 Q789.12 152.473 790.547 151.695 Q791.989 150.901 793.984 150.901 Q797.291 150.901 799.35 153.527 Q801.425 156.154 801.425 160.434 Q801.425 164.714 799.35 167.341 Q797.291 169.967 793.984 169.967 Q791.989 169.967 790.547 169.189 Q789.12 168.395 788.18 166.773 L788.18 169.497 L785.18 169.497 L785.18 144.269 L788.18 144.269 L788.18 154.095 Z" fill="#000000" fill-rule="evenodd" fill-opacity="1" /><path clip-path="url(#clip800)" d="M821.901 159.672 L821.901 161.131 L808.185 161.131 Q808.38 164.212 810.034 165.833 Q811.703 167.438 814.67 167.438 Q816.389 167.438 817.994 167.017 Q819.615 166.595 821.204 165.752 L821.204 168.573 Q819.599 169.254 817.913 169.611 Q816.227 169.967 814.492 169.967 Q810.147 169.967 807.602 167.438 Q805.073 164.909 805.073 160.596 Q805.073 156.137 807.472 153.527 Q809.888 150.901 813.973 150.901 Q817.637 150.901 819.761 153.268 Q821.901 155.619 821.901 159.672 M818.918 158.796 Q818.885 156.348 817.54 154.889 Q816.21 153.43 814.005 153.43 Q811.509 153.43 810.001 154.84 Q808.51 156.251 808.283 158.813 L818.918 158.796 Z" fill="#000000" fill-rule="evenodd" fill-opacity="1" /><path clip-path="url(#clip800)" d="M826.797 144.269 L829.78 144.269 L829.78 169.497 L826.797 169.497 L826.797 144.269 Z" fill="#000000" fill-rule="evenodd" fill-opacity="1" /><path clip-path="url(#clip800)" d="M856.919 156.446 Q859.27 156.948 860.583 158.537 Q861.912 160.126 861.912 162.461 Q861.912 166.044 859.448 168.006 Q856.984 169.967 852.444 169.967 Q850.92 169.967 849.299 169.659 Q847.694 169.368 845.976 168.768 L845.976 165.606 Q847.337 166.401 848.959 166.806 Q850.58 167.211 852.347 167.211 Q855.427 167.211 857.032 165.995 Q858.654 164.779 858.654 162.461 Q858.654 160.321 857.146 159.121 Q855.654 157.905 852.979 157.905 L850.158 157.905 L850.158 155.213 L853.109 155.213 Q855.525 155.213 856.805 154.257 Q858.086 153.284 858.086 151.468 Q858.086 149.603 856.757 148.614 Q855.444 147.609 852.979 147.609 Q851.634 147.609 850.094 147.901 Q848.553 148.193 846.705 148.809 L846.705 145.891 Q848.57 145.372 850.191 145.112 Q851.828 144.853 853.271 144.853 Q857 144.853 859.172 146.555 Q861.345 148.242 861.345 151.128 Q861.345 153.138 860.194 154.532 Q859.043 155.91 856.919 156.446 Z" fill="#000000" fill-rule="evenodd" fill-opacity="1" /><polyline clip-path="url(#clip800)" style="stroke:#c271d2; stroke-linecap:butt; stroke-linejoin:round; stroke-width:2.80169; stroke-opacity:1; fill:none" points="
  693.836,193.704 746.882,193.704 
  "/>
<path clip-path="url(#clip800)" d="M755.723 180.579 L758.706 180.579 L758.706 205.807 L755.723 205.807 L755.723 180.579 Z" fill="#000000" fill-rule="evenodd" fill-opacity="1" /><path clip-path="url(#clip800)" d="M773.2 196.679 Q769.584 196.679 768.19 197.506 Q766.796 198.333 766.796 200.327 Q766.796 201.916 767.834 202.856 Q768.887 203.781 770.687 203.781 Q773.167 203.781 774.659 202.03 Q776.167 200.262 776.167 197.344 L776.167 196.679 L773.2 196.679 M779.15 195.447 L779.15 205.807 L776.167 205.807 L776.167 203.051 Q775.145 204.705 773.621 205.499 Q772.097 206.277 769.892 206.277 Q767.104 206.277 765.45 204.721 Q763.813 203.148 763.813 200.522 Q763.813 197.457 765.856 195.901 Q767.915 194.344 771.984 194.344 L776.167 194.344 L776.167 194.053 Q776.167 191.993 774.805 190.875 Q773.459 189.74 771.011 189.74 Q769.455 189.74 767.979 190.113 Q766.504 190.486 765.142 191.231 L765.142 188.475 Q766.78 187.843 768.32 187.535 Q769.86 187.21 771.319 187.21 Q775.259 187.21 777.204 189.253 Q779.15 191.296 779.15 195.447 Z" fill="#000000" fill-rule="evenodd" fill-opacity="1" /><path clip-path="url(#clip800)" d="M798.328 196.744 Q798.328 193.453 796.967 191.588 Q795.621 189.707 793.254 189.707 Q790.887 189.707 789.525 191.588 Q788.18 193.453 788.18 196.744 Q788.18 200.035 789.525 201.916 Q790.887 203.781 793.254 203.781 Q795.621 203.781 796.967 201.916 Q798.328 200.035 798.328 196.744 M788.18 190.404 Q789.12 188.783 790.547 188.005 Q791.989 187.21 793.984 187.21 Q797.291 187.21 799.35 189.837 Q801.425 192.464 801.425 196.744 Q801.425 201.024 799.35 203.651 Q797.291 206.277 793.984 206.277 Q791.989 206.277 790.547 205.499 Q789.12 204.705 788.18 203.083 L788.18 205.807 L785.18 205.807 L785.18 180.579 L788.18 180.579 L788.18 190.404 Z" fill="#000000" fill-rule="evenodd" fill-opacity="1" /><path clip-path="url(#clip800)" d="M821.901 195.982 L821.901 197.441 L808.185 197.441 Q808.38 200.522 810.034 202.143 Q811.703 203.748 814.67 203.748 Q816.389 203.748 817.994 203.327 Q819.615 202.905 821.204 202.062 L821.204 204.883 Q819.599 205.564 817.913 205.921 Q816.227 206.277 814.492 206.277 Q810.147 206.277 807.602 203.748 Q805.073 201.219 805.073 196.906 Q805.073 192.447 807.472 189.837 Q809.888 187.21 813.973 187.21 Q817.637 187.21 819.761 189.578 Q821.901 191.929 821.901 195.982 M818.918 195.106 Q818.885 192.658 817.54 191.199 Q816.21 189.74 814.005 189.74 Q811.509 189.74 810.001 191.15 Q808.51 192.561 808.283 195.123 L818.918 195.106 Z" fill="#000000" fill-rule="evenodd" fill-opacity="1" /><path clip-path="url(#clip800)" d="M826.797 180.579 L829.78 180.579 L829.78 205.807 L826.797 205.807 L826.797 180.579 Z" fill="#000000" fill-rule="evenodd" fill-opacity="1" /><path clip-path="url(#clip800)" d="M855.995 184.454 L847.727 197.376 L855.995 197.376 L855.995 184.454 M855.136 181.601 L859.253 181.601 L859.253 197.376 L862.707 197.376 L862.707 200.1 L859.253 200.1 L859.253 205.807 L855.995 205.807 L855.995 200.1 L845.068 200.1 L845.068 196.939 L855.136 181.601 Z" fill="#000000" fill-rule="evenodd" fill-opacity="1" /></svg>
