<?xml version="1.0" encoding="utf-8"?>
<svg xmlns="http://www.w3.org/2000/svg" xmlns:xlink="http://www.w3.org/1999/xlink" width="235" height="145.25" viewBox="0 0 940 581">
<defs>
  <clipPath id="clip370">
    <rect x="0" y="0" width="940" height="581"/>
  </clipPath>
</defs>
<path clip-path="url(#clip370)" d="
M0 581 L940 581 L940 0 L0 0  Z
  " fill="#ffffff" fill-rule="evenodd" fill-opacity="1"/>
<defs>
  <clipPath id="clip371">
    <rect x="188" y="0" width="659" height="581"/>
  </clipPath>
</defs>
<path clip-path="url(#clip370)" d="
M141.367 488.116 L892.731 488.116 L892.731 47.2726 L141.367 47.2726  Z
  " fill="#ffffff" fill-rule="evenodd" fill-opacity="1"/>
<defs>
  <clipPath id="clip372">
    <rect x="141" y="47" width="752" height="442"/>
  </clipPath>
</defs>
<polyline clip-path="url(#clip372)" style="stroke:#000000; stroke-linecap:butt; stroke-linejoin:round; stroke-width:2.00121; stroke-opacity:0.1; fill:none" points="
  155.543,488.116 155.543,47.2726 
  "/>
<polyline clip-path="url(#clip372)" style="stroke:#000000; stroke-linecap:butt; stroke-linejoin:round; stroke-width:2.00121; stroke-opacity:0.1; fill:none" points="
  332.752,488.116 332.752,47.2726 
  "/>
<polyline clip-path="url(#clip372)" style="stroke:#000000; stroke-linecap:butt; stroke-linejoin:round; stroke-width:2.00121; stroke-opacity:0.1; fill:none" points="
  509.961,488.116 509.961,47.2726 
  "/>
<polyline clip-path="url(#clip372)" style="stroke:#000000; stroke-linecap:butt; stroke-linejoin:round; stroke-width:2.00121; stroke-opacity:0.1; fill:none" points="
  687.169,488.116 687.169,47.2726 
  "/>
<polyline clip-path="url(#clip372)" style="stroke:#000000; stroke-linecap:butt; stroke-linejoin:round; stroke-width:2.00121; stroke-opacity:0.1; fill:none" points="
  864.378,488.116 864.378,47.2726 
  "/>
<polyline clip-path="url(#clip370)" style="stroke:#000000; stroke-linecap:butt; stroke-linejoin:round; stroke-width:4.00242; stroke-opacity:1; fill:none" points="
  141.367,488.116 892.731,488.116 
  "/>
<polyline clip-path="url(#clip370)" style="stroke:#000000; stroke-linecap:butt; stroke-linejoin:round; stroke-width:4.00242; stroke-opacity:1; fill:none" points="
  155.543,488.116 155.543,469.207 
  "/>
<polyline clip-path="url(#clip370)" style="stroke:#000000; stroke-linecap:butt; stroke-linejoin:round; stroke-width:4.00242; stroke-opacity:1; fill:none" points="
  332.752,488.116 332.752,469.207 
  "/>
<polyline clip-path="url(#clip370)" style="stroke:#000000; stroke-linecap:butt; stroke-linejoin:round; stroke-width:4.00242; stroke-opacity:1; fill:none" points="
  509.961,488.116 509.961,469.207 
  "/>
<polyline clip-path="url(#clip370)" style="stroke:#000000; stroke-linecap:butt; stroke-linejoin:round; stroke-width:4.00242; stroke-opacity:1; fill:none" points="
  687.169,488.116 687.169,469.207 
  "/>
<polyline clip-path="url(#clip370)" style="stroke:#000000; stroke-linecap:butt; stroke-linejoin:round; stroke-width:4.00242; stroke-opacity:1; fill:none" points="
  864.378,488.116 864.378,469.207 
  "/>
<path clip-path="url(#clip370)" d="M155.543 504.431 Q152.834 504.431 151.462 507.106 Q150.107 509.764 150.107 515.115 Q150.107 520.448 151.462 523.123 Q152.834 525.781 155.543 525.781 Q158.271 525.781 159.625 523.123 Q160.998 520.448 160.998 515.115 Q160.998 509.764 159.625 507.106 Q158.271 504.431 155.543 504.431 M155.543 501.652 Q159.903 501.652 162.196 505.109 Q164.506 508.548 164.506 515.115 Q164.506 521.664 162.196 525.121 Q159.903 528.56 155.543 528.56 Q151.184 528.56 148.873 525.121 Q146.581 521.664 146.581 515.115 Q146.581 508.548 148.873 505.109 Q151.184 501.652 155.543 501.652 Z" fill="#000000" fill-rule="evenodd" fill-opacity="1" /><path clip-path="url(#clip370)" d="M317.197 525.103 L329.443 525.103 L329.443 528.056 L312.976 528.056 L312.976 525.103 Q314.974 523.036 318.413 519.562 Q321.87 516.07 322.756 515.062 Q324.441 513.169 325.101 511.866 Q325.778 510.546 325.778 509.278 Q325.778 507.211 324.319 505.908 Q322.877 504.605 320.55 504.605 Q318.899 504.605 317.058 505.178 Q315.234 505.751 313.15 506.915 L313.15 503.371 Q315.269 502.52 317.11 502.086 Q318.952 501.652 320.48 501.652 Q324.51 501.652 326.907 503.667 Q329.304 505.682 329.304 509.052 Q329.304 510.65 328.696 512.092 Q328.106 513.516 326.525 515.462 Q326.091 515.966 323.763 518.38 Q321.435 520.778 317.197 525.103 Z" fill="#000000" fill-rule="evenodd" fill-opacity="1" /><path clip-path="url(#clip370)" d="M336.843 502.121 L350.617 502.121 L350.617 505.074 L340.056 505.074 L340.056 511.432 Q340.82 511.171 341.585 511.05 Q342.349 510.911 343.113 510.911 Q347.456 510.911 349.992 513.291 Q352.528 515.67 352.528 519.735 Q352.528 523.922 349.922 526.25 Q347.317 528.56 342.575 528.56 Q340.942 528.56 339.24 528.282 Q337.555 528.004 335.748 527.448 L335.748 523.922 Q337.312 524.773 338.979 525.19 Q340.647 525.607 342.505 525.607 Q345.51 525.607 347.265 524.026 Q349.019 522.445 349.019 519.735 Q349.019 517.025 347.265 515.445 Q345.51 513.864 342.505 513.864 Q341.098 513.864 339.691 514.176 Q338.302 514.489 336.843 515.149 L336.843 502.121 Z" fill="#000000" fill-rule="evenodd" fill-opacity="1" /><path clip-path="url(#clip370)" d="M490.975 502.121 L504.75 502.121 L504.75 505.074 L494.189 505.074 L494.189 511.432 Q494.953 511.171 495.717 511.05 Q496.482 510.911 497.246 510.911 Q501.588 510.911 504.124 513.291 Q506.66 515.67 506.66 519.735 Q506.66 523.922 504.055 526.25 Q501.449 528.56 496.707 528.56 Q495.075 528.56 493.372 528.282 Q491.687 528.004 489.881 527.448 L489.881 523.922 Q491.444 524.773 493.112 525.19 Q494.779 525.607 496.638 525.607 Q499.643 525.607 501.397 524.026 Q503.152 522.445 503.152 519.735 Q503.152 517.025 501.397 515.445 Q499.643 513.864 496.638 513.864 Q495.231 513.864 493.824 514.176 Q492.434 514.489 490.975 515.149 L490.975 502.121 Z" fill="#000000" fill-rule="evenodd" fill-opacity="1" /><path clip-path="url(#clip370)" d="M521.078 504.431 Q518.368 504.431 516.996 507.106 Q515.641 509.764 515.641 515.115 Q515.641 520.448 516.996 523.123 Q518.368 525.781 521.078 525.781 Q523.805 525.781 525.16 523.123 Q526.532 520.448 526.532 515.115 Q526.532 509.764 525.16 507.106 Q523.805 504.431 521.078 504.431 M521.078 501.652 Q525.437 501.652 527.73 505.109 Q530.04 508.548 530.04 515.115 Q530.04 521.664 527.73 525.121 Q525.437 528.56 521.078 528.56 Q516.718 528.56 514.407 525.121 Q512.115 521.664 512.115 515.115 Q512.115 508.548 514.407 505.109 Q516.718 501.652 521.078 501.652 Z" fill="#000000" fill-rule="evenodd" fill-opacity="1" /><path clip-path="url(#clip370)" d="M667.55 502.121 L684.225 502.121 L684.225 503.615 L674.81 528.056 L671.145 528.056 L680.004 505.074 L667.55 505.074 L667.55 502.121 Z" fill="#000000" fill-rule="evenodd" fill-opacity="1" /><path clip-path="url(#clip370)" d="M691.104 502.121 L704.878 502.121 L704.878 505.074 L694.317 505.074 L694.317 511.432 Q695.081 511.171 695.846 511.05 Q696.61 510.911 697.374 510.911 Q701.717 510.911 704.253 513.291 Q706.789 515.67 706.789 519.735 Q706.789 523.922 704.183 526.25 Q701.578 528.56 696.836 528.56 Q695.203 528.56 693.501 528.282 Q691.816 528.004 690.009 527.448 L690.009 523.922 Q691.573 524.773 693.24 525.19 Q694.908 525.607 696.766 525.607 Q699.771 525.607 701.526 524.026 Q703.28 522.445 703.28 519.735 Q703.28 517.025 701.526 515.445 Q699.771 513.864 696.766 513.864 Q695.359 513.864 693.952 514.176 Q692.563 514.489 691.104 515.149 L691.104 502.121 Z" fill="#000000" fill-rule="evenodd" fill-opacity="1" /><path clip-path="url(#clip370)" d="M834.067 525.103 L839.799 525.103 L839.799 505.317 L833.563 506.568 L833.563 503.371 L839.764 502.121 L843.273 502.121 L843.273 525.103 L849.005 525.103 L849.005 528.056 L834.067 528.056 L834.067 525.103 Z" fill="#000000" fill-rule="evenodd" fill-opacity="1" /><path clip-path="url(#clip370)" d="M863.596 504.431 Q860.887 504.431 859.514 507.106 Q858.159 509.764 858.159 515.115 Q858.159 520.448 859.514 523.123 Q860.887 525.781 863.596 525.781 Q866.323 525.781 867.678 523.123 Q869.05 520.448 869.05 515.115 Q869.05 509.764 867.678 507.106 Q866.323 504.431 863.596 504.431 M863.596 501.652 Q867.956 501.652 870.249 505.109 Q872.559 508.548 872.559 515.115 Q872.559 521.664 870.249 525.121 Q867.956 528.56 863.596 528.56 Q859.236 528.56 856.926 525.121 Q854.633 521.664 854.633 515.115 Q854.633 508.548 856.926 505.109 Q859.236 501.652 863.596 501.652 Z" fill="#000000" fill-rule="evenodd" fill-opacity="1" /><path clip-path="url(#clip370)" d="M886.229 504.431 Q883.52 504.431 882.147 507.106 Q880.793 509.764 880.793 515.115 Q880.793 520.448 882.147 523.123 Q883.52 525.781 886.229 525.781 Q888.957 525.781 890.311 523.123 Q891.684 520.448 891.684 515.115 Q891.684 509.764 890.311 507.106 Q888.957 504.431 886.229 504.431 M886.229 501.652 Q890.589 501.652 892.882 505.109 Q895.192 508.548 895.192 515.115 Q895.192 521.664 892.882 525.121 Q890.589 528.56 886.229 528.56 Q881.87 528.56 879.559 525.121 Q877.266 521.664 877.266 515.115 Q877.266 508.548 879.559 505.109 Q881.87 501.652 886.229 501.652 Z" fill="#000000" fill-rule="evenodd" fill-opacity="1" /><polyline clip-path="url(#clip372)" style="stroke:#000000; stroke-linecap:butt; stroke-linejoin:round; stroke-width:2.00121; stroke-opacity:0.1; fill:none" points="
  141.367,443.442 892.731,443.442 
  "/>
<polyline clip-path="url(#clip372)" style="stroke:#000000; stroke-linecap:butt; stroke-linejoin:round; stroke-width:2.00121; stroke-opacity:0.1; fill:none" points="
  141.367,368.43 892.731,368.43 
  "/>
<polyline clip-path="url(#clip372)" style="stroke:#000000; stroke-linecap:butt; stroke-linejoin:round; stroke-width:2.00121; stroke-opacity:0.1; fill:none" points="
  141.367,293.418 892.731,293.418 
  "/>
<polyline clip-path="url(#clip372)" style="stroke:#000000; stroke-linecap:butt; stroke-linejoin:round; stroke-width:2.00121; stroke-opacity:0.1; fill:none" points="
  141.367,218.406 892.731,218.406 
  "/>
<polyline clip-path="url(#clip372)" style="stroke:#000000; stroke-linecap:butt; stroke-linejoin:round; stroke-width:2.00121; stroke-opacity:0.1; fill:none" points="
  141.367,143.394 892.731,143.394 
  "/>
<polyline clip-path="url(#clip372)" style="stroke:#000000; stroke-linecap:butt; stroke-linejoin:round; stroke-width:2.00121; stroke-opacity:0.1; fill:none" points="
  141.367,68.3817 892.731,68.3817 
  "/>
<polyline clip-path="url(#clip370)" style="stroke:#000000; stroke-linecap:butt; stroke-linejoin:round; stroke-width:4.00242; stroke-opacity:1; fill:none" points="
  141.367,488.116 141.367,47.2726 
  "/>
<polyline clip-path="url(#clip370)" style="stroke:#000000; stroke-linecap:butt; stroke-linejoin:round; stroke-width:4.00242; stroke-opacity:1; fill:none" points="
  141.367,443.442 160.274,443.442 
  "/>
<polyline clip-path="url(#clip370)" style="stroke:#000000; stroke-linecap:butt; stroke-linejoin:round; stroke-width:4.00242; stroke-opacity:1; fill:none" points="
  141.367,368.43 160.274,368.43 
  "/>
<polyline clip-path="url(#clip370)" style="stroke:#000000; stroke-linecap:butt; stroke-linejoin:round; stroke-width:4.00242; stroke-opacity:1; fill:none" points="
  141.367,293.418 160.274,293.418 
  "/>
<polyline clip-path="url(#clip370)" style="stroke:#000000; stroke-linecap:butt; stroke-linejoin:round; stroke-width:4.00242; stroke-opacity:1; fill:none" points="
  141.367,218.406 160.274,218.406 
  "/>
<polyline clip-path="url(#clip370)" style="stroke:#000000; stroke-linecap:butt; stroke-linejoin:round; stroke-width:4.00242; stroke-opacity:1; fill:none" points="
  141.367,143.394 160.274,143.394 
  "/>
<polyline clip-path="url(#clip370)" style="stroke:#000000; stroke-linecap:butt; stroke-linejoin:round; stroke-width:4.00242; stroke-opacity:1; fill:none" points="
  141.367,68.3817 160.274,68.3817 
  "/>
<path clip-path="url(#clip370)" d="M59.0719 443.781 L81.3403 443.781 L81.3403 446.734 L59.0719 446.734 L59.0719 443.781 Z" fill="#000000" fill-rule="evenodd" fill-opacity="1" /><path clip-path="url(#clip370)" d="M89.5216 453.457 L95.2538 453.457 L95.2538 433.671 L89.0179 434.921 L89.0179 431.725 L95.219 430.474 L98.7278 430.474 L98.7278 453.457 L104.46 453.457 L104.46 456.41 L89.5216 456.41 L89.5216 453.457 Z" fill="#000000" fill-rule="evenodd" fill-opacity="1" /><path clip-path="url(#clip370)" d="M111.582 430.474 L125.356 430.474 L125.356 433.427 L114.795 433.427 L114.795 439.785 Q115.559 439.525 116.324 439.403 Q117.088 439.264 117.852 439.264 Q122.195 439.264 124.731 441.644 Q127.267 444.024 127.267 448.089 Q127.267 452.275 124.661 454.603 Q122.056 456.914 117.314 456.914 Q115.681 456.914 113.979 456.636 Q112.294 456.358 110.487 455.802 L110.487 452.275 Q112.051 453.127 113.718 453.544 Q115.386 453.961 117.244 453.961 Q120.249 453.961 122.004 452.38 Q123.758 450.799 123.758 448.089 Q123.758 445.379 122.004 443.798 Q120.249 442.217 117.244 442.217 Q115.837 442.217 114.43 442.53 Q113.041 442.843 111.582 443.503 L111.582 430.474 Z" fill="#000000" fill-rule="evenodd" fill-opacity="1" /><path clip-path="url(#clip370)" d="M58.325 368.769 L80.5934 368.769 L80.5934 371.722 L58.325 371.722 L58.325 368.769 Z" fill="#000000" fill-rule="evenodd" fill-opacity="1" /><path clip-path="url(#clip370)" d="M88.7747 378.445 L94.5068 378.445 L94.5068 358.659 L88.271 359.909 L88.271 356.713 L94.4721 355.462 L97.9809 355.462 L97.9809 378.445 L103.713 378.445 L103.713 381.398 L88.7747 381.398 L88.7747 378.445 Z" fill="#000000" fill-rule="evenodd" fill-opacity="1" /><path clip-path="url(#clip370)" d="M118.304 357.773 Q115.594 357.773 114.222 360.448 Q112.867 363.106 112.867 368.456 Q112.867 373.789 114.222 376.464 Q115.594 379.122 118.304 379.122 Q121.031 379.122 122.386 376.464 Q123.758 373.789 123.758 368.456 Q123.758 363.106 122.386 360.448 Q121.031 357.773 118.304 357.773 M118.304 354.993 Q122.664 354.993 124.957 358.45 Q127.267 361.89 127.267 368.456 Q127.267 375.005 124.957 378.462 Q122.664 381.902 118.304 381.902 Q113.944 381.902 111.634 378.462 Q109.341 375.005 109.341 368.456 Q109.341 361.89 111.634 358.45 Q113.944 354.993 118.304 354.993 Z" fill="#000000" fill-rule="evenodd" fill-opacity="1" /><path clip-path="url(#clip370)" d="M81.7051 293.757 L103.974 293.757 L103.974 296.71 L81.7051 296.71 L81.7051 293.757 Z" fill="#000000" fill-rule="evenodd" fill-opacity="1" /><path clip-path="url(#clip370)" d="M111.582 280.45 L125.356 280.45 L125.356 283.403 L114.795 283.403 L114.795 289.761 Q115.559 289.501 116.324 289.379 Q117.088 289.24 117.852 289.24 Q122.195 289.24 124.731 291.62 Q127.267 294 127.267 298.065 Q127.267 302.251 124.661 304.579 Q122.056 306.89 117.314 306.89 Q115.681 306.89 113.979 306.612 Q112.294 306.334 110.487 305.778 L110.487 302.251 Q112.051 303.103 113.718 303.519 Q115.386 303.936 117.244 303.936 Q120.249 303.936 122.004 302.356 Q123.758 300.775 123.758 298.065 Q123.758 295.355 122.004 293.774 Q120.249 292.193 117.244 292.193 Q115.837 292.193 114.43 292.506 Q113.041 292.819 111.582 293.479 L111.582 280.45 Z" fill="#000000" fill-rule="evenodd" fill-opacity="1" /><path clip-path="url(#clip370)" d="M118.304 207.748 Q115.594 207.748 114.222 210.424 Q112.867 213.081 112.867 218.432 Q112.867 223.765 114.222 226.44 Q115.594 229.098 118.304 229.098 Q121.031 229.098 122.386 226.44 Q123.758 223.765 123.758 218.432 Q123.758 213.081 122.386 210.424 Q121.031 207.748 118.304 207.748 M118.304 204.969 Q122.664 204.969 124.957 208.426 Q127.267 211.865 127.267 218.432 Q127.267 224.981 124.957 228.438 Q122.664 231.877 118.304 231.877 Q113.944 231.877 111.634 228.438 Q109.341 224.981 109.341 218.432 Q109.341 211.865 111.634 208.426 Q113.944 204.969 118.304 204.969 Z" fill="#000000" fill-rule="evenodd" fill-opacity="1" /><path clip-path="url(#clip370)" d="M111.582 130.426 L125.356 130.426 L125.356 133.379 L114.795 133.379 L114.795 139.737 Q115.559 139.476 116.324 139.355 Q117.088 139.216 117.852 139.216 Q122.195 139.216 124.731 141.596 Q127.267 143.976 127.267 148.041 Q127.267 152.227 124.661 154.555 Q122.056 156.865 117.314 156.865 Q115.681 156.865 113.979 156.587 Q112.294 156.309 110.487 155.754 L110.487 152.227 Q112.051 153.078 113.718 153.495 Q115.386 153.912 117.244 153.912 Q120.249 153.912 122.004 152.331 Q123.758 150.751 123.758 148.041 Q123.758 145.331 122.004 143.75 Q120.249 142.169 117.244 142.169 Q115.837 142.169 114.43 142.482 Q113.041 142.794 111.582 143.455 L111.582 130.426 Z" fill="#000000" fill-rule="evenodd" fill-opacity="1" /><path clip-path="url(#clip370)" d="M88.7747 78.3964 L94.5068 78.3964 L94.5068 58.6102 L88.271 59.861 L88.271 56.6646 L94.4721 55.4139 L97.9809 55.4139 L97.9809 78.3964 L103.713 78.3964 L103.713 81.3495 L88.7747 81.3495 L88.7747 78.3964 Z" fill="#000000" fill-rule="evenodd" fill-opacity="1" /><path clip-path="url(#clip370)" d="M118.304 57.7243 Q115.594 57.7243 114.222 60.3995 Q112.867 63.0573 112.867 68.4078 Q112.867 73.7408 114.222 76.416 Q115.594 79.0739 118.304 79.0739 Q121.031 79.0739 122.386 76.416 Q123.758 73.7408 123.758 68.4078 Q123.758 63.0573 122.386 60.3995 Q121.031 57.7243 118.304 57.7243 M118.304 54.9448 Q122.664 54.9448 124.957 58.4018 Q127.267 61.8413 127.267 68.4078 Q127.267 74.9568 124.957 78.4137 Q122.664 81.8533 118.304 81.8533 Q113.944 81.8533 111.634 78.4137 Q109.341 74.9568 109.341 68.4078 Q109.341 61.8413 111.634 58.4018 Q113.944 54.9448 118.304 54.9448 Z" fill="#000000" fill-rule="evenodd" fill-opacity="1" /><polyline clip-path="url(#clip372)" style="stroke:#009af9; stroke-linecap:butt; stroke-linejoin:round; stroke-width:4.00242; stroke-opacity:1; fill:none" points="
  162.632,208.547 169.72,225.54 176.809,263.833 183.897,271.572 190.985,269.37 198.074,259.148 205.162,278.739 212.25,278.069 219.339,256.494 226.427,232.812 
  233.515,241.247 240.604,244.721 247.692,245.5 254.78,226.01 261.869,228.62 268.957,228.896 276.045,241.397 283.134,249.338 290.222,262.578 297.31,277.959 
  304.399,294.534 311.487,310.01 318.575,315.055 325.664,303.202 332.752,305.166 339.84,297.912 346.929,291.144 354.017,304.14 361.105,311.905 368.194,296.253 
  375.282,315.153 382.37,314.533 389.459,297.691 396.547,326.57 403.636,328.733 410.724,339.216 417.812,347.421 424.901,353.056 431.989,350.926 439.077,368.08 
  446.166,364.916 453.254,371.699 460.342,361.631 467.431,338.656 474.519,354.012 481.607,346.625 488.696,339.276 495.784,332.355 502.872,334.2 509.961,331.736 
  517.049,304.85 524.137,305.5 531.226,320.808 538.314,317.49 545.402,336.051 552.491,332.535 559.579,322.905 566.667,348.256 573.756,353.626 580.844,371.732 
  587.932,384.619 595.021,407.617 602.109,419.472 609.198,441.333 616.286,430.984 623.374,463.636 630.463,445.402 637.551,455.83 644.639,443.432 651.728,454.182 
  658.816,457.916 665.904,475.639 672.993,465.973 680.081,454.468 687.169,455.64 694.258,432.175 701.346,423.976 708.434,422.914 715.523,414.788 722.611,412.972 
  729.699,404.565 736.788,418.788 743.876,408.649 750.964,396.13 758.053,394.437 765.141,368.898 772.229,363.632 779.318,368.751 786.406,374.82 793.494,395.174 
  800.583,409.122 807.671,421.111 814.759,407.716 821.848,395.855 828.936,382.449 836.025,376.92 843.113,366.59 850.201,351.818 857.29,325.444 864.378,325.422 
  871.466,318.091 
  "/>
<polyline clip-path="url(#clip372)" style="stroke:#e26f46; stroke-linecap:butt; stroke-linejoin:round; stroke-width:4.00242; stroke-opacity:1; fill:none" points="
  162.632,215.001 169.72,218.033 176.809,246.148 183.897,263.795 190.985,251.783 198.074,248.393 205.162,257.692 212.25,270.916 219.339,275.72 226.427,253.11 
  233.515,253.613 240.604,233.08 247.692,199.588 254.78,188.694 261.869,196.396 268.957,187.733 276.045,189.813 283.134,186.084 290.222,201.56 297.31,197.564 
  304.399,180.198 311.487,170.395 318.575,163.084 325.664,182.511 332.752,198.294 339.84,180.776 346.929,181.738 354.017,177.35 361.105,192.611 368.194,198.517 
  375.282,191.463 382.37,165.048 389.459,144.053 396.547,120.159 403.636,122.862 410.724,114.136 417.812,121.427 424.901,124.293 431.989,98.951 439.077,114.595 
  446.166,108.275 453.254,90.3989 460.342,76.11 467.431,94.7324 474.519,97.8194 481.607,83.5833 488.696,89.098 495.784,76.1878 502.872,72.8778 509.961,59.7493 
  517.049,64.6516 524.137,70.6208 531.226,76.2551 538.314,106.085 545.402,109.187 552.491,91.455 559.579,103.815 566.667,102.577 573.756,110.911 580.844,89.1475 
  587.932,92.615 595.021,98.7084 602.109,105.436 609.198,88.1681 616.286,90.2536 623.374,66.1475 630.463,71.7412 637.551,79.5215 644.639,96.5825 651.728,117.019 
  658.816,110.929 665.904,118.391 672.993,125.742 680.081,115.49 687.169,122.994 694.258,145.031 701.346,131.73 708.434,159.995 715.523,172.897 722.611,179.371 
  729.699,221.371 736.788,221.751 743.876,216.557 750.964,206.795 758.053,227.566 765.141,199.34 772.229,191.203 779.318,176.043 786.406,173.623 793.494,139.69 
  800.583,124.074 807.671,133.574 814.759,138.283 821.848,115.3 828.936,113.149 836.025,119.251 843.113,126.205 850.201,114.073 857.29,99.1005 864.378,100.466 
  871.466,111.754 
  "/>
<polyline clip-path="url(#clip372)" style="stroke:#3da44d; stroke-linecap:butt; stroke-linejoin:round; stroke-width:4.00242; stroke-opacity:1; fill:none" points="
  162.632,229.849 169.72,206.519 176.809,221.416 183.897,250.902 190.985,255.937 198.074,278.886 205.162,290.113 212.25,302.458 219.339,284.61 226.427,265.438 
  233.515,295.964 240.604,314.585 247.692,328.125 254.78,311.14 261.869,344.214 268.957,351.877 276.045,335.146 283.134,315.302 290.222,305.44 297.31,295.702 
  304.399,281.584 311.487,290.921 318.575,283.615 325.664,294.245 332.752,287.911 339.84,288.186 346.929,289.131 354.017,294.51 361.105,303.934 368.194,338.465 
  375.282,328.749 382.37,313.898 389.459,293.849 396.547,319.319 403.636,309.314 410.724,304.176 417.812,291.837 424.901,283.736 431.989,261.015 439.077,252.211 
  446.166,233.834 453.254,207.126 460.342,192.084 467.431,168.095 474.519,172.973 481.607,149.574 488.696,167.94 495.784,174.27 502.872,186.827 509.961,178.098 
  517.049,190.53 524.137,177.127 531.226,178.688 538.314,173.227 545.402,184.572 552.491,175.579 559.579,182.53 566.667,175.322 573.756,165.61 580.844,173.542 
  587.932,182.397 595.021,180.35 602.109,167.32 609.198,187.95 616.286,197.308 623.374,186.519 630.463,200.976 637.551,218.921 644.639,227.146 651.728,200.985 
  658.816,180.686 665.904,167.731 672.993,194.56 680.081,178.476 687.169,165.855 694.258,187.219 701.346,194.806 708.434,209.822 715.523,221.254 722.611,224.073 
  729.699,194.331 736.788,210.579 743.876,208.923 750.964,212.269 758.053,253.646 765.141,281.919 772.229,261.853 779.318,275.784 786.406,257.331 793.494,254.971 
  800.583,227.914 807.671,213.766 814.759,225.708 821.848,223.085 828.936,250.694 836.025,237.218 843.113,235.646 850.201,249.837 857.29,254.796 864.378,260.146 
  871.466,246.524 
  "/>
<polyline clip-path="url(#clip372)" style="stroke:#c271d2; stroke-linecap:butt; stroke-linejoin:round; stroke-width:4.00242; stroke-opacity:1; fill:none" points="
  162.632,219.308 169.72,211.614 176.809,192.6 183.897,177.508 190.985,175.734 198.074,168.889 205.162,181.487 212.25,184.635 219.339,175.451 226.427,174.067 
  233.515,160.898 240.604,158.349 247.692,167.65 254.78,186.484 261.869,180.895 268.957,177.94 276.045,187.26 283.134,217.442 290.222,222.013 297.31,218.918 
  304.399,227.855 311.487,226.316 318.575,204.708 325.664,218.54 332.752,216.274 339.84,207.587 346.929,201.284 354.017,227.043 361.105,238.161 368.194,253.615 
  375.282,252.831 382.37,240.174 389.459,248.709 396.547,257.17 403.636,243.316 410.724,217.101 417.812,210.99 424.901,224.541 431.989,218.733 439.077,208.521 
  446.166,205.211 453.254,205.398 460.342,207.279 467.431,189.06 474.519,206.024 481.607,198.561 488.696,198.188 495.784,189.392 502.872,177.461 509.961,170.645 
  517.049,162.413 524.137,161.858 531.226,160.067 538.314,155.455 545.402,140.901 552.491,147.87 559.579,151.642 566.667,130.642 573.756,141.497 580.844,109.572 
  587.932,109.911 595.021,105.71 602.109,102.066 609.198,123.799 616.286,148.491 623.374,148.336 630.463,153.31 637.551,153.376 644.639,155.835 651.728,164.324 
  658.816,156.468 665.904,148.443 672.993,132.224 680.081,148.353 687.169,159.378 694.258,147.398 701.346,109.075 708.434,85.9937 715.523,107.435 722.611,65.6405 
  729.699,68.1182 736.788,90.5796 743.876,105.652 750.964,107.41 758.053,86.0042 765.141,84.1197 772.229,105.442 779.318,85.7108 786.406,118.822 793.494,118.618 
  800.583,134.89 807.671,115.671 814.759,133.189 821.848,143.84 828.936,152.974 836.025,173.916 843.113,194.568 850.201,203.512 857.29,223.433 864.378,231.796 
  871.466,244.453 
  "/>
<path clip-path="url(#clip370)" d="
M669.576 256.485 L867.686 256.485 L867.686 61.9674 L669.576 61.9674  Z
  " fill="#ffffff" fill-rule="evenodd" fill-opacity="1"/>
<polyline clip-path="url(#clip370)" style="stroke:#000000; stroke-linecap:butt; stroke-linejoin:round; stroke-width:4.00242; stroke-opacity:1; fill:none" points="
  669.576,256.485 867.686,256.485 867.686,61.9674 669.576,61.9674 669.576,256.485 
  "/>
<polyline clip-path="url(#clip370)" style="stroke:#009af9; stroke-linecap:butt; stroke-linejoin:round; stroke-width:3.00181; stroke-opacity:1; fill:none" points="
  677.924,100.871 728.015,100.871 
  "/>
<path clip-path="url(#clip370)" d="M736.364 86.8087 L739.56 86.8087 L739.56 113.839 L736.364 113.839 L736.364 86.8087 Z" fill="#000000" fill-rule="evenodd" fill-opacity="1" /><path clip-path="url(#clip370)" d="M755.089 104.059 Q751.215 104.059 749.721 104.945 Q748.227 105.83 748.227 107.967 Q748.227 109.67 749.339 110.677 Q750.468 111.667 752.396 111.667 Q755.054 111.667 756.652 109.791 Q758.267 107.898 758.267 104.771 L758.267 104.059 L755.089 104.059 M761.463 102.738 L761.463 113.839 L758.267 113.839 L758.267 110.886 Q757.173 112.657 755.54 113.509 Q753.907 114.343 751.545 114.343 Q748.557 114.343 746.786 112.675 Q745.031 110.99 745.031 108.176 Q745.031 104.892 747.22 103.225 Q749.426 101.557 753.786 101.557 L758.267 101.557 L758.267 101.244 Q758.267 99.0382 756.808 97.8396 Q755.367 96.6236 752.744 96.6236 Q751.076 96.6236 749.495 97.0231 Q747.915 97.4227 746.456 98.2218 L746.456 95.2686 Q748.21 94.5911 749.86 94.2611 Q751.51 93.9136 753.074 93.9136 Q757.295 93.9136 759.379 96.1024 Q761.463 98.2913 761.463 102.738 Z" fill="#000000" fill-rule="evenodd" fill-opacity="1" /><path clip-path="url(#clip370)" d="M782.012 104.128 Q782.012 100.602 780.553 98.6039 Q779.111 96.5888 776.575 96.5888 Q774.039 96.5888 772.58 98.6039 Q771.139 100.602 771.139 104.128 Q771.139 107.654 772.58 109.67 Q774.039 111.667 776.575 111.667 Q779.111 111.667 780.553 109.67 Q782.012 107.654 782.012 104.128 M771.139 97.3358 Q772.146 95.5987 773.675 94.7648 Q775.221 93.9136 777.357 93.9136 Q780.901 93.9136 783.107 96.7278 Q785.33 99.542 785.33 104.128 Q785.33 108.714 783.107 111.528 Q780.901 114.343 777.357 114.343 Q775.221 114.343 773.675 113.509 Q772.146 112.657 771.139 110.92 L771.139 113.839 L767.925 113.839 L767.925 86.8087 L771.139 86.8087 L771.139 97.3358 Z" fill="#000000" fill-rule="evenodd" fill-opacity="1" /><path clip-path="url(#clip370)" d="M807.268 103.312 L807.268 104.875 L792.573 104.875 Q792.782 108.176 794.553 109.913 Q796.343 111.633 799.521 111.633 Q801.362 111.633 803.082 111.181 Q804.819 110.729 806.521 109.826 L806.521 112.849 Q804.802 113.578 802.995 113.96 Q801.189 114.343 799.33 114.343 Q794.675 114.343 791.948 111.633 Q789.238 108.923 789.238 104.302 Q789.238 99.5246 791.809 96.7278 Q794.397 93.9136 798.774 93.9136 Q802.7 93.9136 804.975 96.4499 Q807.268 98.9687 807.268 103.312 M804.072 102.374 Q804.037 99.7505 802.596 98.187 Q801.171 96.6236 798.809 96.6236 Q796.134 96.6236 794.519 98.1349 Q792.921 99.6462 792.677 102.391 L804.072 102.374 Z" fill="#000000" fill-rule="evenodd" fill-opacity="1" /><path clip-path="url(#clip370)" d="M812.514 86.8087 L815.71 86.8087 L815.71 113.839 L812.514 113.839 L812.514 86.8087 Z" fill="#000000" fill-rule="evenodd" fill-opacity="1" /><path clip-path="url(#clip370)" d="M834.765 110.886 L840.497 110.886 L840.497 91.0994 L834.261 92.3502 L834.261 89.1538 L840.463 87.9031 L843.971 87.9031 L843.971 110.886 L849.703 110.886 L849.703 113.839 L834.765 113.839 L834.765 110.886 Z" fill="#000000" fill-rule="evenodd" fill-opacity="1" /><polyline clip-path="url(#clip370)" style="stroke:#e26f46; stroke-linecap:butt; stroke-linejoin:round; stroke-width:3.00181; stroke-opacity:1; fill:none" points="
  677.924,139.774 728.015,139.774 
  "/>
<path clip-path="url(#clip370)" d="M736.364 125.712 L739.56 125.712 L739.56 152.742 L736.364 152.742 L736.364 125.712 Z" fill="#000000" fill-rule="evenodd" fill-opacity="1" /><path clip-path="url(#clip370)" d="M755.089 142.962 Q751.215 142.962 749.721 143.848 Q748.227 144.734 748.227 146.871 Q748.227 148.573 749.339 149.581 Q750.468 150.571 752.396 150.571 Q755.054 150.571 756.652 148.695 Q758.267 146.801 758.267 143.674 L758.267 142.962 L755.089 142.962 M761.463 141.642 L761.463 152.742 L758.267 152.742 L758.267 149.789 Q757.173 151.561 755.54 152.412 Q753.907 153.246 751.545 153.246 Q748.557 153.246 746.786 151.578 Q745.031 149.893 745.031 147.079 Q745.031 143.796 747.22 142.128 Q749.426 140.461 753.786 140.461 L758.267 140.461 L758.267 140.148 Q758.267 137.942 756.808 136.743 Q755.367 135.527 752.744 135.527 Q751.076 135.527 749.495 135.927 Q747.915 136.326 746.456 137.125 L746.456 134.172 Q748.21 133.495 749.86 133.165 Q751.51 132.817 753.074 132.817 Q757.295 132.817 759.379 135.006 Q761.463 137.195 761.463 141.642 Z" fill="#000000" fill-rule="evenodd" fill-opacity="1" /><path clip-path="url(#clip370)" d="M782.012 143.032 Q782.012 139.505 780.553 137.507 Q779.111 135.492 776.575 135.492 Q774.039 135.492 772.58 137.507 Q771.139 139.505 771.139 143.032 Q771.139 146.558 772.58 148.573 Q774.039 150.571 776.575 150.571 Q779.111 150.571 780.553 148.573 Q782.012 146.558 782.012 143.032 M771.139 136.239 Q772.146 134.502 773.675 133.668 Q775.221 132.817 777.357 132.817 Q780.901 132.817 783.107 135.631 Q785.33 138.445 785.33 143.032 Q785.33 147.618 783.107 150.432 Q780.901 153.246 777.357 153.246 Q775.221 153.246 773.675 152.412 Q772.146 151.561 771.139 149.824 L771.139 152.742 L767.925 152.742 L767.925 125.712 L771.139 125.712 L771.139 136.239 Z" fill="#000000" fill-rule="evenodd" fill-opacity="1" /><path clip-path="url(#clip370)" d="M807.268 142.215 L807.268 143.779 L792.573 143.779 Q792.782 147.079 794.553 148.816 Q796.343 150.536 799.521 150.536 Q801.362 150.536 803.082 150.084 Q804.819 149.633 806.521 148.729 L806.521 151.752 Q804.802 152.482 802.995 152.864 Q801.189 153.246 799.33 153.246 Q794.675 153.246 791.948 150.536 Q789.238 147.826 789.238 143.205 Q789.238 138.428 791.809 135.631 Q794.397 132.817 798.774 132.817 Q802.7 132.817 804.975 135.353 Q807.268 137.872 807.268 142.215 M804.072 141.277 Q804.037 138.654 802.596 137.091 Q801.171 135.527 798.809 135.527 Q796.134 135.527 794.519 137.038 Q792.921 138.55 792.677 141.294 L804.072 141.277 Z" fill="#000000" fill-rule="evenodd" fill-opacity="1" /><path clip-path="url(#clip370)" d="M812.514 125.712 L815.71 125.712 L815.71 152.742 L812.514 152.742 L812.514 125.712 Z" fill="#000000" fill-rule="evenodd" fill-opacity="1" /><path clip-path="url(#clip370)" d="M837.18 149.789 L849.425 149.789 L849.425 152.742 L832.959 152.742 L832.959 149.789 Q834.956 147.722 838.395 144.248 Q841.852 140.756 842.738 139.748 Q844.423 137.855 845.083 136.552 Q845.76 135.232 845.76 133.964 Q845.76 131.896 844.301 130.594 Q842.86 129.291 840.532 129.291 Q838.882 129.291 837.041 129.864 Q835.217 130.437 833.132 131.601 L833.132 128.057 Q835.252 127.206 837.093 126.772 Q838.934 126.338 840.463 126.338 Q844.492 126.338 846.889 128.353 Q849.287 130.368 849.287 133.738 Q849.287 135.336 848.679 136.778 Q848.088 138.202 846.507 140.148 Q846.073 140.652 843.745 143.066 Q841.418 145.464 837.18 149.789 Z" fill="#000000" fill-rule="evenodd" fill-opacity="1" /><polyline clip-path="url(#clip370)" style="stroke:#3da44d; stroke-linecap:butt; stroke-linejoin:round; stroke-width:3.00181; stroke-opacity:1; fill:none" points="
  677.924,178.678 728.015,178.678 
  "/>
<path clip-path="url(#clip370)" d="M736.364 164.616 L739.56 164.616 L739.56 191.646 L736.364 191.646 L736.364 164.616 Z" fill="#000000" fill-rule="evenodd" fill-opacity="1" /><path clip-path="url(#clip370)" d="M755.089 181.866 Q751.215 181.866 749.721 182.752 Q748.227 183.637 748.227 185.774 Q748.227 187.477 749.339 188.484 Q750.468 189.474 752.396 189.474 Q755.054 189.474 756.652 187.598 Q758.267 185.705 758.267 182.578 L758.267 181.866 L755.089 181.866 M761.463 180.545 L761.463 191.646 L758.267 191.646 L758.267 188.693 Q757.173 190.464 755.54 191.316 Q753.907 192.15 751.545 192.15 Q748.557 192.15 746.786 190.482 Q745.031 188.797 745.031 185.983 Q745.031 182.699 747.22 181.032 Q749.426 179.364 753.786 179.364 L758.267 179.364 L758.267 179.051 Q758.267 176.845 756.808 175.647 Q755.367 174.431 752.744 174.431 Q751.076 174.431 749.495 174.83 Q747.915 175.23 746.456 176.029 L746.456 173.076 Q748.21 172.398 749.86 172.068 Q751.51 171.721 753.074 171.721 Q757.295 171.721 759.379 173.909 Q761.463 176.098 761.463 180.545 Z" fill="#000000" fill-rule="evenodd" fill-opacity="1" /><path clip-path="url(#clip370)" d="M782.012 181.935 Q782.012 178.409 780.553 176.411 Q779.111 174.396 776.575 174.396 Q774.039 174.396 772.58 176.411 Q771.139 178.409 771.139 181.935 Q771.139 185.461 772.58 187.477 Q774.039 189.474 776.575 189.474 Q779.111 189.474 780.553 187.477 Q782.012 185.461 782.012 181.935 M771.139 175.143 Q772.146 173.406 773.675 172.572 Q775.221 171.721 777.357 171.721 Q780.901 171.721 783.107 174.535 Q785.33 177.349 785.33 181.935 Q785.33 186.521 783.107 189.335 Q780.901 192.15 777.357 192.15 Q775.221 192.15 773.675 191.316 Q772.146 190.464 771.139 188.727 L771.139 191.646 L767.925 191.646 L767.925 164.616 L771.139 164.616 L771.139 175.143 Z" fill="#000000" fill-rule="evenodd" fill-opacity="1" /><path clip-path="url(#clip370)" d="M807.268 181.119 L807.268 182.682 L792.573 182.682 Q792.782 185.983 794.553 187.72 Q796.343 189.44 799.521 189.44 Q801.362 189.44 803.082 188.988 Q804.819 188.536 806.521 187.633 L806.521 190.656 Q804.802 191.385 802.995 191.767 Q801.189 192.15 799.33 192.15 Q794.675 192.15 791.948 189.44 Q789.238 186.73 789.238 182.109 Q789.238 177.332 791.809 174.535 Q794.397 171.721 798.774 171.721 Q802.7 171.721 804.975 174.257 Q807.268 176.776 807.268 181.119 M804.072 180.181 Q804.037 177.557 802.596 175.994 Q801.171 174.431 798.809 174.431 Q796.134 174.431 794.519 175.942 Q792.921 177.453 792.677 180.198 L804.072 180.181 Z" fill="#000000" fill-rule="evenodd" fill-opacity="1" /><path clip-path="url(#clip370)" d="M812.514 164.616 L815.71 164.616 L815.71 191.646 L812.514 191.646 L812.514 164.616 Z" fill="#000000" fill-rule="evenodd" fill-opacity="1" /><path clip-path="url(#clip370)" d="M844.788 177.662 Q847.306 178.2 848.713 179.903 Q850.138 181.605 850.138 184.107 Q850.138 187.946 847.497 190.048 Q844.857 192.15 839.994 192.15 Q838.361 192.15 836.624 191.819 Q834.904 191.507 833.063 190.864 L833.063 187.477 Q834.522 188.328 836.259 188.762 Q837.996 189.196 839.889 189.196 Q843.19 189.196 844.909 187.893 Q846.646 186.591 846.646 184.107 Q846.646 181.813 845.031 180.528 Q843.433 179.225 840.567 179.225 L837.544 179.225 L837.544 176.341 L840.706 176.341 Q843.294 176.341 844.666 175.317 Q846.038 174.274 846.038 172.329 Q846.038 170.331 844.614 169.271 Q843.207 168.194 840.567 168.194 Q839.125 168.194 837.475 168.507 Q835.825 168.82 833.845 169.48 L833.845 166.353 Q835.842 165.797 837.579 165.519 Q839.333 165.241 840.879 165.241 Q844.875 165.241 847.202 167.065 Q849.53 168.872 849.53 171.964 Q849.53 174.118 848.296 175.612 Q847.063 177.088 844.788 177.662 Z" fill="#000000" fill-rule="evenodd" fill-opacity="1" /><polyline clip-path="url(#clip370)" style="stroke:#c271d2; stroke-linecap:butt; stroke-linejoin:round; stroke-width:3.00181; stroke-opacity:1; fill:none" points="
  677.924,217.581 728.015,217.581 
  "/>
<path clip-path="url(#clip370)" d="M736.364 203.519 L739.56 203.519 L739.56 230.549 L736.364 230.549 L736.364 203.519 Z" fill="#000000" fill-rule="evenodd" fill-opacity="1" /><path clip-path="url(#clip370)" d="M755.089 220.769 Q751.215 220.769 749.721 221.655 Q748.227 222.541 748.227 224.678 Q748.227 226.38 749.339 227.388 Q750.468 228.378 752.396 228.378 Q755.054 228.378 756.652 226.502 Q758.267 224.608 758.267 221.481 L758.267 220.769 L755.089 220.769 M761.463 219.449 L761.463 230.549 L758.267 230.549 L758.267 227.596 Q757.173 229.368 755.54 230.219 Q753.907 231.053 751.545 231.053 Q748.557 231.053 746.786 229.385 Q745.031 227.7 745.031 224.886 Q745.031 221.603 747.22 219.935 Q749.426 218.268 753.786 218.268 L758.267 218.268 L758.267 217.955 Q758.267 215.749 756.808 214.55 Q755.367 213.334 752.744 213.334 Q751.076 213.334 749.495 213.734 Q747.915 214.133 746.456 214.932 L746.456 211.979 Q748.21 211.302 749.86 210.972 Q751.51 210.624 753.074 210.624 Q757.295 210.624 759.379 212.813 Q761.463 215.002 761.463 219.449 Z" fill="#000000" fill-rule="evenodd" fill-opacity="1" /><path clip-path="url(#clip370)" d="M782.012 220.839 Q782.012 217.312 780.553 215.314 Q779.111 213.299 776.575 213.299 Q774.039 213.299 772.58 215.314 Q771.139 217.312 771.139 220.839 Q771.139 224.365 772.58 226.38 Q774.039 228.378 776.575 228.378 Q779.111 228.378 780.553 226.38 Q782.012 224.365 782.012 220.839 M771.139 214.046 Q772.146 212.309 773.675 211.475 Q775.221 210.624 777.357 210.624 Q780.901 210.624 783.107 213.438 Q785.33 216.252 785.33 220.839 Q785.33 225.425 783.107 228.239 Q780.901 231.053 777.357 231.053 Q775.221 231.053 773.675 230.219 Q772.146 229.368 771.139 227.631 L771.139 230.549 L767.925 230.549 L767.925 203.519 L771.139 203.519 L771.139 214.046 Z" fill="#000000" fill-rule="evenodd" fill-opacity="1" /><path clip-path="url(#clip370)" d="M807.268 220.022 L807.268 221.586 L792.573 221.586 Q792.782 224.886 794.553 226.623 Q796.343 228.343 799.521 228.343 Q801.362 228.343 803.082 227.891 Q804.819 227.44 806.521 226.536 L806.521 229.559 Q804.802 230.289 802.995 230.671 Q801.189 231.053 799.33 231.053 Q794.675 231.053 791.948 228.343 Q789.238 225.633 789.238 221.012 Q789.238 216.235 791.809 213.438 Q794.397 210.624 798.774 210.624 Q802.7 210.624 804.975 213.16 Q807.268 215.679 807.268 220.022 M804.072 219.084 Q804.037 216.461 802.596 214.898 Q801.171 213.334 798.809 213.334 Q796.134 213.334 794.519 214.845 Q792.921 216.357 792.677 219.101 L804.072 219.084 Z" fill="#000000" fill-rule="evenodd" fill-opacity="1" /><path clip-path="url(#clip370)" d="M812.514 203.519 L815.71 203.519 L815.71 230.549 L812.514 230.549 L812.514 203.519 Z" fill="#000000" fill-rule="evenodd" fill-opacity="1" /><path clip-path="url(#clip370)" d="M843.798 207.671 L834.939 221.516 L843.798 221.516 L843.798 207.671 M842.877 204.614 L847.289 204.614 L847.289 221.516 L850.989 221.516 L850.989 224.434 L847.289 224.434 L847.289 230.549 L843.798 230.549 L843.798 224.434 L832.09 224.434 L832.09 221.047 L842.877 204.614 Z" fill="#000000" fill-rule="evenodd" fill-opacity="1" /></svg>
