<?xml version="1.0" encoding="utf-8"?>
<svg xmlns="http://www.w3.org/2000/svg" xmlns:xlink="http://www.w3.org/1999/xlink" width="235" height="145.25" viewBox="0 0 940 581">
<defs>
  <clipPath id="clip270">
    <rect x="0" y="0" width="940" height="581"/>
  </clipPath>
</defs>
<path clip-path="url(#clip270)" d="
M0 581 L940 581 L940 0 L0 0  Z
  " fill="#ffffff" fill-rule="evenodd" fill-opacity="1"/>
<defs>
  <clipPath id="clip271">
    <rect x="188" y="0" width="659" height="581"/>
  </clipPath>
</defs>
<path clip-path="url(#clip270)" d="
M99.7593 494.292 L906.912 494.292 L906.912 33.0909 L99.7593 33.0909  Z
  " fill="#ffffff" fill-rule="evenodd" fill-opacity="1"/>
<defs>
  <clipPath id="clip272">
    <rect x="99" y="33" width="808" height="462"/>
  </clipPath>
</defs>
<polyline clip-path="url(#clip272)" style="stroke:#000000; stroke-linecap:butt; stroke-linejoin:round; stroke-width:1.40085; stroke-opacity:0.1; fill:none" points="
  114.989,494.292 114.989,33.0909 
  "/>
<polyline clip-path="url(#clip272)" style="stroke:#000000; stroke-linecap:butt; stroke-linejoin:round; stroke-width:1.40085; stroke-opacity:0.1; fill:none" points="
  305.355,494.292 305.355,33.0909 
  "/>
<polyline clip-path="url(#clip272)" style="stroke:#000000; stroke-linecap:butt; stroke-linejoin:round; stroke-width:1.40085; stroke-opacity:0.1; fill:none" points="
  495.721,494.292 495.721,33.0909 
  "/>
<polyline clip-path="url(#clip272)" style="stroke:#000000; stroke-linecap:butt; stroke-linejoin:round; stroke-width:1.40085; stroke-opacity:0.1; fill:none" points="
  686.087,494.292 686.087,33.0909 
  "/>
<polyline clip-path="url(#clip272)" style="stroke:#000000; stroke-linecap:butt; stroke-linejoin:round; stroke-width:1.40085; stroke-opacity:0.1; fill:none" points="
  876.453,494.292 876.453,33.0909 
  "/>
<polyline clip-path="url(#clip270)" style="stroke:#000000; stroke-linecap:butt; stroke-linejoin:round; stroke-width:2.80169; stroke-opacity:1; fill:none" points="
  99.7593,494.292 906.912,494.292 
  "/>
<polyline clip-path="url(#clip270)" style="stroke:#000000; stroke-linecap:butt; stroke-linejoin:round; stroke-width:2.80169; stroke-opacity:1; fill:none" points="
  114.989,494.292 114.989,475.383 
  "/>
<polyline clip-path="url(#clip270)" style="stroke:#000000; stroke-linecap:butt; stroke-linejoin:round; stroke-width:2.80169; stroke-opacity:1; fill:none" points="
  305.355,494.292 305.355,475.383 
  "/>
<polyline clip-path="url(#clip270)" style="stroke:#000000; stroke-linecap:butt; stroke-linejoin:round; stroke-width:2.80169; stroke-opacity:1; fill:none" points="
  495.721,494.292 495.721,475.383 
  "/>
<polyline clip-path="url(#clip270)" style="stroke:#000000; stroke-linecap:butt; stroke-linejoin:round; stroke-width:2.80169; stroke-opacity:1; fill:none" points="
  686.087,494.292 686.087,475.383 
  "/>
<polyline clip-path="url(#clip270)" style="stroke:#000000; stroke-linecap:butt; stroke-linejoin:round; stroke-width:2.80169; stroke-opacity:1; fill:none" points="
  876.453,494.292 876.453,475.383 
  "/>
<path clip-path="url(#clip270)" d="M114.989 507.968 Q113.092 507.968 112.131 509.841 Q111.183 511.701 111.183 515.447 Q111.183 519.18 112.131 521.053 Q113.092 522.913 114.989 522.913 Q116.898 522.913 117.846 521.053 Q118.807 519.18 118.807 515.447 Q118.807 511.701 117.846 509.841 Q116.898 507.968 114.989 507.968 M114.989 506.023 Q118.041 506.023 119.646 508.443 Q121.263 510.85 121.263 515.447 Q121.263 520.031 119.646 522.451 Q118.041 524.859 114.989 524.859 Q111.937 524.859 110.32 522.451 Q108.715 520.031 108.715 515.447 Q108.715 510.85 110.32 508.443 Q111.937 506.023 114.989 506.023 Z" fill="#000000" fill-rule="evenodd" fill-opacity="1" /><path clip-path="url(#clip270)" d="M294.466 522.439 L303.038 522.439 L303.038 524.506 L291.512 524.506 L291.512 522.439 Q292.91 520.992 295.317 518.56 Q297.737 516.116 298.357 515.41 Q299.537 514.085 299.999 513.173 Q300.473 512.249 300.473 511.361 Q300.473 509.914 299.452 509.002 Q298.442 508.09 296.813 508.09 Q295.658 508.09 294.369 508.491 Q293.092 508.892 291.633 509.707 L291.633 507.227 Q293.117 506.631 294.406 506.327 Q295.694 506.023 296.764 506.023 Q299.585 506.023 301.263 507.433 Q302.941 508.844 302.941 511.203 Q302.941 512.322 302.516 513.331 Q302.102 514.328 300.996 515.69 Q300.692 516.043 299.062 517.733 Q297.433 519.411 294.466 522.439 Z" fill="#000000" fill-rule="evenodd" fill-opacity="1" /><path clip-path="url(#clip270)" d="M308.218 506.351 L317.86 506.351 L317.86 508.418 L310.468 508.418 L310.468 512.869 Q311.003 512.686 311.538 512.601 Q312.073 512.504 312.608 512.504 Q315.647 512.504 317.423 514.17 Q319.198 515.836 319.198 518.681 Q319.198 521.612 317.374 523.241 Q315.55 524.859 312.231 524.859 Q311.088 524.859 309.896 524.664 Q308.717 524.469 307.452 524.08 L307.452 521.612 Q308.547 522.208 309.714 522.5 Q310.881 522.791 312.182 522.791 Q314.286 522.791 315.514 521.685 Q316.742 520.578 316.742 518.681 Q316.742 516.784 315.514 515.678 Q314.286 514.571 312.182 514.571 Q311.197 514.571 310.212 514.79 Q309.24 515.009 308.218 515.471 L308.218 506.351 Z" fill="#000000" fill-rule="evenodd" fill-opacity="1" /><path clip-path="url(#clip270)" d="M482.431 506.351 L492.073 506.351 L492.073 508.418 L484.681 508.418 L484.681 512.869 Q485.216 512.686 485.751 512.601 Q486.286 512.504 486.821 512.504 Q489.86 512.504 491.636 514.17 Q493.411 515.836 493.411 518.681 Q493.411 521.612 491.587 523.241 Q489.763 524.859 486.444 524.859 Q485.301 524.859 484.109 524.664 Q482.93 524.469 481.665 524.08 L481.665 521.612 Q482.759 522.208 483.927 522.5 Q485.094 522.791 486.395 522.791 Q488.498 522.791 489.727 521.685 Q490.955 520.578 490.955 518.681 Q490.955 516.784 489.727 515.678 Q488.498 514.571 486.395 514.571 Q485.41 514.571 484.425 514.79 Q483.452 515.009 482.431 515.471 L482.431 506.351 Z" fill="#000000" fill-rule="evenodd" fill-opacity="1" /><path clip-path="url(#clip270)" d="M503.503 507.968 Q501.606 507.968 500.645 509.841 Q499.697 511.701 499.697 515.447 Q499.697 519.18 500.645 521.053 Q501.606 522.913 503.503 522.913 Q505.412 522.913 506.36 521.053 Q507.321 519.18 507.321 515.447 Q507.321 511.701 506.36 509.841 Q505.412 507.968 503.503 507.968 M503.503 506.023 Q506.555 506.023 508.16 508.443 Q509.777 510.85 509.777 515.447 Q509.777 520.031 508.16 522.451 Q506.555 524.859 503.503 524.859 Q500.451 524.859 498.834 522.451 Q497.229 520.031 497.229 515.447 Q497.229 510.85 498.834 508.443 Q500.451 506.023 503.503 506.023 Z" fill="#000000" fill-rule="evenodd" fill-opacity="1" /><path clip-path="url(#clip270)" d="M672.353 506.351 L684.026 506.351 L684.026 507.397 L677.436 524.506 L674.87 524.506 L681.072 508.418 L672.353 508.418 L672.353 506.351 Z" fill="#000000" fill-rule="evenodd" fill-opacity="1" /><path clip-path="url(#clip270)" d="M688.841 506.351 L698.483 506.351 L698.483 508.418 L691.091 508.418 L691.091 512.869 Q691.626 512.686 692.161 512.601 Q692.696 512.504 693.231 512.504 Q696.27 512.504 698.046 514.17 Q699.821 515.836 699.821 518.681 Q699.821 521.612 697.997 523.241 Q696.173 524.859 692.854 524.859 Q691.711 524.859 690.519 524.664 Q689.34 524.469 688.075 524.08 L688.075 521.612 Q689.169 522.208 690.337 522.5 Q691.504 522.791 692.805 522.791 Q694.909 522.791 696.137 521.685 Q697.365 520.578 697.365 518.681 Q697.365 516.784 696.137 515.678 Q694.909 514.571 692.805 514.571 Q691.82 514.571 690.835 514.79 Q689.863 515.009 688.841 515.471 L688.841 506.351 Z" fill="#000000" fill-rule="evenodd" fill-opacity="1" /><path clip-path="url(#clip270)" d="M855.236 522.439 L859.248 522.439 L859.248 508.588 L854.883 509.464 L854.883 507.227 L859.224 506.351 L861.68 506.351 L861.68 522.439 L865.693 522.439 L865.693 524.506 L855.236 524.506 L855.236 522.439 Z" fill="#000000" fill-rule="evenodd" fill-opacity="1" /><path clip-path="url(#clip270)" d="M875.906 507.968 Q874.009 507.968 873.049 509.841 Q872.1 511.701 872.1 515.447 Q872.1 519.18 873.049 521.053 Q874.009 522.913 875.906 522.913 Q877.815 522.913 878.764 521.053 Q879.724 519.18 879.724 515.447 Q879.724 511.701 878.764 509.841 Q877.815 507.968 875.906 507.968 M875.906 506.023 Q878.958 506.023 880.563 508.443 Q882.18 510.85 882.18 515.447 Q882.18 520.031 880.563 522.451 Q878.958 524.859 875.906 524.859 Q872.854 524.859 871.237 522.451 Q869.632 520.031 869.632 515.447 Q869.632 510.85 871.237 508.443 Q872.854 506.023 875.906 506.023 Z" fill="#000000" fill-rule="evenodd" fill-opacity="1" /><path clip-path="url(#clip270)" d="M891.749 507.968 Q889.853 507.968 888.892 509.841 Q887.944 511.701 887.944 515.447 Q887.944 519.18 888.892 521.053 Q889.853 522.913 891.749 522.913 Q893.658 522.913 894.607 521.053 Q895.567 519.18 895.567 515.447 Q895.567 511.701 894.607 509.841 Q893.658 507.968 891.749 507.968 M891.749 506.023 Q894.801 506.023 896.406 508.443 Q898.023 510.85 898.023 515.447 Q898.023 520.031 896.406 522.451 Q894.801 524.859 891.749 524.859 Q888.697 524.859 887.08 522.451 Q885.475 520.031 885.475 515.447 Q885.475 510.85 887.08 508.443 Q888.697 506.023 891.749 506.023 Z" fill="#000000" fill-rule="evenodd" fill-opacity="1" /><path clip-path="url(#clip270)" d="M463.543 540.467 L484.019 540.467 L484.019 543.223 L475.427 543.223 L475.427 564.673 L472.135 564.673 L472.135 543.223 L463.543 543.223 L463.543 540.467 Z" fill="#000000" fill-rule="evenodd" fill-opacity="1" /><path clip-path="url(#clip270)" d="M486.029 546.514 L489.012 546.514 L489.012 564.673 L486.029 564.673 L486.029 546.514 M486.029 539.445 L489.012 539.445 L489.012 543.223 L486.029 543.223 L486.029 539.445 Z" fill="#000000" fill-rule="evenodd" fill-opacity="1" /><path clip-path="url(#clip270)" d="M509.391 550 Q510.509 547.99 512.066 547.033 Q513.622 546.076 515.73 546.076 Q518.567 546.076 520.107 548.071 Q521.647 550.049 521.647 553.713 L521.647 564.673 L518.648 564.673 L518.648 553.81 Q518.648 551.2 517.724 549.935 Q516.8 548.671 514.903 548.671 Q512.585 548.671 511.239 550.211 Q509.893 551.751 509.893 554.41 L509.893 564.673 L506.894 564.673 L506.894 553.81 Q506.894 551.184 505.97 549.935 Q505.046 548.671 503.117 548.671 Q500.831 548.671 499.485 550.227 Q498.14 551.767 498.14 554.41 L498.14 564.673 L495.14 564.673 L495.14 546.514 L498.14 546.514 L498.14 549.335 Q499.161 547.665 500.588 546.871 Q502.014 546.076 503.976 546.076 Q505.954 546.076 507.332 547.082 Q508.726 548.087 509.391 550 Z" fill="#000000" fill-rule="evenodd" fill-opacity="1" /><path clip-path="url(#clip270)" d="M543.128 554.848 L543.128 556.307 L529.413 556.307 Q529.607 559.388 531.261 561.009 Q532.931 562.614 535.898 562.614 Q537.616 562.614 539.221 562.193 Q540.842 561.771 542.431 560.928 L542.431 563.749 Q540.826 564.43 539.14 564.787 Q537.454 565.143 535.719 565.143 Q531.374 565.143 528.829 562.614 Q526.3 560.085 526.3 555.772 Q526.3 551.313 528.699 548.703 Q531.115 546.076 535.2 546.076 Q538.864 546.076 540.988 548.444 Q543.128 550.795 543.128 554.848 M540.145 553.972 Q540.113 551.524 538.767 550.065 Q537.438 548.606 535.233 548.606 Q532.736 548.606 531.228 550.016 Q529.737 551.427 529.51 553.989 L540.145 553.972 Z" fill="#000000" fill-rule="evenodd" fill-opacity="1" /><polyline clip-path="url(#clip272)" style="stroke:#000000; stroke-linecap:butt; stroke-linejoin:round; stroke-width:1.40085; stroke-opacity:0.1; fill:none" points="
  99.7593,435.39 906.912,435.39 
  "/>
<polyline clip-path="url(#clip272)" style="stroke:#000000; stroke-linecap:butt; stroke-linejoin:round; stroke-width:1.40085; stroke-opacity:0.1; fill:none" points="
  99.7593,364.868 906.912,364.868 
  "/>
<polyline clip-path="url(#clip272)" style="stroke:#000000; stroke-linecap:butt; stroke-linejoin:round; stroke-width:1.40085; stroke-opacity:0.1; fill:none" points="
  99.7593,294.346 906.912,294.346 
  "/>
<polyline clip-path="url(#clip272)" style="stroke:#000000; stroke-linecap:butt; stroke-linejoin:round; stroke-width:1.40085; stroke-opacity:0.1; fill:none" points="
  99.7593,223.824 906.912,223.824 
  "/>
<polyline clip-path="url(#clip272)" style="stroke:#000000; stroke-linecap:butt; stroke-linejoin:round; stroke-width:1.40085; stroke-opacity:0.1; fill:none" points="
  99.7593,153.302 906.912,153.302 
  "/>
<polyline clip-path="url(#clip272)" style="stroke:#000000; stroke-linecap:butt; stroke-linejoin:round; stroke-width:1.40085; stroke-opacity:0.1; fill:none" points="
  99.7593,82.7805 906.912,82.7805 
  "/>
<polyline clip-path="url(#clip270)" style="stroke:#000000; stroke-linecap:butt; stroke-linejoin:round; stroke-width:2.80169; stroke-opacity:1; fill:none" points="
  99.7593,494.292 99.7593,33.0909 
  "/>
<polyline clip-path="url(#clip270)" style="stroke:#000000; stroke-linecap:butt; stroke-linejoin:round; stroke-width:2.80169; stroke-opacity:1; fill:none" points="
  99.7593,435.39 118.667,435.39 
  "/>
<polyline clip-path="url(#clip270)" style="stroke:#000000; stroke-linecap:butt; stroke-linejoin:round; stroke-width:2.80169; stroke-opacity:1; fill:none" points="
  99.7593,364.868 118.667,364.868 
  "/>
<polyline clip-path="url(#clip270)" style="stroke:#000000; stroke-linecap:butt; stroke-linejoin:round; stroke-width:2.80169; stroke-opacity:1; fill:none" points="
  99.7593,294.346 118.667,294.346 
  "/>
<polyline clip-path="url(#clip270)" style="stroke:#000000; stroke-linecap:butt; stroke-linejoin:round; stroke-width:2.80169; stroke-opacity:1; fill:none" points="
  99.7593,223.824 118.667,223.824 
  "/>
<polyline clip-path="url(#clip270)" style="stroke:#000000; stroke-linecap:butt; stroke-linejoin:round; stroke-width:2.80169; stroke-opacity:1; fill:none" points="
  99.7593,153.302 118.667,153.302 
  "/>
<polyline clip-path="url(#clip270)" style="stroke:#000000; stroke-linecap:butt; stroke-linejoin:round; stroke-width:2.80169; stroke-opacity:1; fill:none" points="
  99.7593,82.7805 118.667,82.7805 
  "/>
<path clip-path="url(#clip270)" d="M53.7661 435.627 L69.354 435.627 L69.354 437.694 L53.7661 437.694 L53.7661 435.627 Z" fill="#000000" fill-rule="evenodd" fill-opacity="1" /><path clip-path="url(#clip270)" d="M74.6797 426.312 L84.3218 426.312 L84.3218 428.379 L76.9291 428.379 L76.9291 432.83 Q77.4641 432.648 77.9991 432.562 Q78.5341 432.465 79.0691 432.465 Q82.1089 432.465 83.8841 434.131 Q85.6593 435.797 85.6593 438.643 Q85.6593 441.573 83.8355 443.203 Q82.0116 444.82 78.6922 444.82 Q77.5492 444.82 76.3577 444.625 Q75.1782 444.431 73.9137 444.042 L73.9137 441.573 Q75.008 442.169 76.1753 442.461 Q77.3425 442.753 78.6436 442.753 Q80.7471 442.753 81.9751 441.646 Q83.2032 440.539 83.2032 438.643 Q83.2032 436.746 81.9751 435.639 Q80.7471 434.532 78.6436 434.532 Q77.6587 434.532 76.6738 434.751 Q75.7011 434.97 74.6797 435.432 L74.6797 426.312 Z" fill="#000000" fill-rule="evenodd" fill-opacity="1" /><path clip-path="url(#clip270)" d="M79.3853 357.408 Q77.4884 357.408 76.5279 359.28 Q75.5795 361.141 75.5795 364.886 Q75.5795 368.619 76.5279 370.492 Q77.4884 372.352 79.3853 372.352 Q81.2942 372.352 82.2426 370.492 Q83.2032 368.619 83.2032 364.886 Q83.2032 361.141 82.2426 359.28 Q81.2942 357.408 79.3853 357.408 M79.3853 355.462 Q82.4372 355.462 84.0422 357.882 Q85.6593 360.29 85.6593 364.886 Q85.6593 369.47 84.0422 371.89 Q82.4372 374.298 79.3853 374.298 Q76.3333 374.298 74.7162 371.89 Q73.1112 369.47 73.1112 364.886 Q73.1112 360.29 74.7162 357.882 Q76.3333 355.462 79.3853 355.462 Z" fill="#000000" fill-rule="evenodd" fill-opacity="1" /><path clip-path="url(#clip270)" d="M74.6797 285.269 L84.3218 285.269 L84.3218 287.336 L76.9291 287.336 L76.9291 291.786 Q77.4641 291.604 77.9991 291.519 Q78.5341 291.422 79.0691 291.422 Q82.1089 291.422 83.8841 293.087 Q85.6593 294.753 85.6593 297.599 Q85.6593 300.529 83.8355 302.159 Q82.0116 303.776 78.6922 303.776 Q77.5492 303.776 76.3577 303.582 Q75.1782 303.387 73.9137 302.998 L73.9137 300.529 Q75.008 301.125 76.1753 301.417 Q77.3425 301.709 78.6436 301.709 Q80.7471 301.709 81.9751 300.602 Q83.2032 299.496 83.2032 297.599 Q83.2032 295.702 81.9751 294.595 Q80.7471 293.489 78.6436 293.489 Q77.6587 293.489 76.6738 293.708 Q75.7011 293.927 74.6797 294.389 L74.6797 285.269 Z" fill="#000000" fill-rule="evenodd" fill-opacity="1" /><path clip-path="url(#clip270)" d="M58.7149 230.834 L62.7274 230.834 L62.7274 216.984 L58.3623 217.86 L58.3623 215.622 L62.703 214.747 L65.1592 214.747 L65.1592 230.834 L69.1717 230.834 L69.1717 232.902 L58.7149 232.902 L58.7149 230.834 Z" fill="#000000" fill-rule="evenodd" fill-opacity="1" /><path clip-path="url(#clip270)" d="M79.3853 216.364 Q77.4884 216.364 76.5279 218.237 Q75.5795 220.097 75.5795 223.842 Q75.5795 227.576 76.5279 229.448 Q77.4884 231.309 79.3853 231.309 Q81.2942 231.309 82.2426 229.448 Q83.2032 227.576 83.2032 223.842 Q83.2032 220.097 82.2426 218.237 Q81.2942 216.364 79.3853 216.364 M79.3853 214.418 Q82.4372 214.418 84.0422 216.838 Q85.6593 219.246 85.6593 223.842 Q85.6593 228.427 84.0422 230.847 Q82.4372 233.254 79.3853 233.254 Q76.3333 233.254 74.7162 230.847 Q73.1112 228.427 73.1112 223.842 Q73.1112 219.246 74.7162 216.838 Q76.3333 214.418 79.3853 214.418 Z" fill="#000000" fill-rule="evenodd" fill-opacity="1" /><path clip-path="url(#clip270)" d="M59.2377 160.313 L63.2502 160.313 L63.2502 146.462 L58.8851 147.338 L58.8851 145.1 L63.2259 144.225 L65.682 144.225 L65.682 160.313 L69.6945 160.313 L69.6945 162.38 L59.2377 162.38 L59.2377 160.313 Z" fill="#000000" fill-rule="evenodd" fill-opacity="1" /><path clip-path="url(#clip270)" d="M74.6797 144.225 L84.3218 144.225 L84.3218 146.292 L76.9291 146.292 L76.9291 150.743 Q77.4641 150.56 77.9991 150.475 Q78.5341 150.378 79.0691 150.378 Q82.1089 150.378 83.8841 152.044 Q85.6593 153.71 85.6593 156.555 Q85.6593 159.486 83.8355 161.115 Q82.0116 162.732 78.6922 162.732 Q77.5492 162.732 76.3577 162.538 Q75.1782 162.343 73.9137 161.954 L73.9137 159.486 Q75.008 160.082 76.1753 160.373 Q77.3425 160.665 78.6436 160.665 Q80.7471 160.665 81.9751 159.559 Q83.2032 158.452 83.2032 156.555 Q83.2032 154.658 81.9751 153.552 Q80.7471 152.445 78.6436 152.445 Q77.6587 152.445 76.6738 152.664 Q75.7011 152.883 74.6797 153.345 L74.6797 144.225 Z" fill="#000000" fill-rule="evenodd" fill-opacity="1" /><path clip-path="url(#clip270)" d="M60.405 89.7908 L68.9771 89.7908 L68.9771 91.858 L57.4503 91.858 L57.4503 89.7908 Q58.8486 88.3438 61.2561 85.9118 Q63.6758 83.4676 64.2959 82.7623 Q65.4753 81.4369 65.9373 80.5248 Q66.4116 79.6007 66.4116 78.713 Q66.4116 77.266 65.3902 76.3539 Q64.381 75.4419 62.7517 75.4419 Q61.5966 75.4419 60.3077 75.8432 Q59.031 76.2445 57.5719 77.0592 L57.5719 74.5786 Q59.0553 73.9827 60.3442 73.6787 Q61.633 73.3747 62.703 73.3747 Q65.5239 73.3747 67.2019 74.7853 Q68.8798 76.1959 68.8798 78.5549 Q68.8798 79.6736 68.4543 80.6829 Q68.0409 81.6801 66.9344 83.042 Q66.6304 83.3946 65.0011 85.0849 Q63.3718 86.763 60.405 89.7908 Z" fill="#000000" fill-rule="evenodd" fill-opacity="1" /><path clip-path="url(#clip270)" d="M79.3853 75.3203 Q77.4884 75.3203 76.5279 77.193 Q75.5795 79.0535 75.5795 82.7988 Q75.5795 86.5319 76.5279 88.4046 Q77.4884 90.2651 79.3853 90.2651 Q81.2942 90.2651 82.2426 88.4046 Q83.2032 86.5319 83.2032 82.7988 Q83.2032 79.0535 82.2426 77.193 Q81.2942 75.3203 79.3853 75.3203 M79.3853 73.3747 Q82.4372 73.3747 84.0422 75.7946 Q85.6593 78.2023 85.6593 82.7988 Q85.6593 87.3831 84.0422 89.803 Q82.4372 92.2107 79.3853 92.2107 Q76.3333 92.2107 74.7162 89.803 Q73.1112 87.3831 73.1112 82.7988 Q73.1112 78.2023 74.7162 75.7946 Q76.3333 73.3747 79.3853 73.3747 Z" fill="#000000" fill-rule="evenodd" fill-opacity="1" /><path clip-path="url(#clip270)" d="M10.4212 413.138 Q10.4212 416.705 13.08 418.813 Q15.7387 420.905 20.3268 420.905 Q24.8986 420.905 27.5573 418.813 Q30.2161 416.705 30.2161 413.138 Q30.2161 409.571 27.5573 407.496 Q24.8986 405.405 20.3268 405.405 Q15.7387 405.405 13.08 407.496 Q10.4212 409.571 10.4212 413.138 M31.967 408.55 L36.6847 404.237 L36.6847 408.193 L32.8101 411.776 Q32.8425 412.311 32.8587 412.603 Q32.8749 412.879 32.8749 413.138 Q32.8749 418.246 29.4704 421.31 Q26.0496 424.358 20.3268 424.358 Q14.5877 424.358 11.1832 421.31 Q7.76241 418.246 7.76241 413.138 Q7.76241 408.047 11.1832 404.999 Q14.5877 401.951 20.3268 401.951 Q24.5419 401.951 27.5411 403.653 Q30.5404 405.34 31.967 408.55 Z" fill="#000000" fill-rule="evenodd" fill-opacity="1" /><path clip-path="url(#clip270)" d="M25.239 397.265 L14.2472 397.265 L14.2472 394.282 L25.1255 394.282 Q27.7033 394.282 29.0002 393.277 Q30.281 392.272 30.281 390.261 Q30.281 387.845 28.7408 386.451 Q27.2007 385.041 24.5419 385.041 L14.2472 385.041 L14.2472 382.057 L32.4048 382.057 L32.4048 385.041 L29.6163 385.041 Q31.2699 386.127 32.0805 387.57 Q32.8749 388.997 32.8749 390.894 Q32.8749 394.023 30.9295 395.644 Q28.984 397.265 25.239 397.265 M13.8095 389.759 L13.8095 389.759 Z" fill="#000000" fill-rule="evenodd" fill-opacity="1" /><path clip-path="url(#clip270)" d="M23.2774 367.66 Q23.2774 371.275 24.1042 372.67 Q24.931 374.064 26.9251 374.064 Q28.5139 374.064 29.4542 373.026 Q30.3782 371.972 30.3782 370.173 Q30.3782 367.692 28.6273 366.201 Q26.8602 364.693 23.9421 364.693 L23.2774 364.693 L23.2774 367.66 M22.0452 361.709 L32.4048 361.709 L32.4048 364.693 L29.6487 364.693 Q31.3023 365.714 32.0967 367.238 Q32.8749 368.762 32.8749 370.967 Q32.8749 373.756 31.3185 375.41 Q29.746 377.047 27.1196 377.047 Q24.0555 377.047 22.4992 375.004 Q20.9428 372.945 20.9428 368.876 L20.9428 364.693 L20.651 364.693 Q18.5921 364.693 17.4734 366.055 Q16.3386 367.4 16.3386 369.849 Q16.3386 371.405 16.7115 372.88 Q17.0844 374.356 17.8301 375.718 L15.0741 375.718 Q14.4418 374.08 14.1338 372.54 Q13.8095 371 13.8095 369.54 Q13.8095 365.601 15.8522 363.655 Q17.895 361.709 22.0452 361.709 Z" fill="#000000" fill-rule="evenodd" fill-opacity="1" /><path clip-path="url(#clip270)" d="M21.4454 340.47 L32.4048 340.47 L32.4048 343.453 L21.5427 343.453 Q18.965 343.453 17.6842 344.458 Q16.4034 345.464 16.4034 347.474 Q16.4034 349.89 17.9436 351.284 Q19.4837 352.679 22.1425 352.679 L32.4048 352.679 L32.4048 355.678 L14.2472 355.678 L14.2472 352.679 L17.0681 352.679 Q15.4307 351.608 14.6201 350.165 Q13.8095 348.706 13.8095 346.809 Q13.8095 343.68 15.755 342.075 Q17.6842 340.47 21.4454 340.47 Z" fill="#000000" fill-rule="evenodd" fill-opacity="1" /><path clip-path="url(#clip270)" d="M9.0918 331.569 L14.2472 331.569 L14.2472 325.424 L16.5656 325.424 L16.5656 331.569 L26.4225 331.569 Q28.6436 331.569 29.2758 330.969 Q29.9081 330.353 29.9081 328.488 L29.9081 325.424 L32.4048 325.424 L32.4048 328.488 Q32.4048 331.942 31.124 333.255 Q29.827 334.568 26.4225 334.568 L16.5656 334.568 L16.5656 336.757 L14.2472 336.757 L14.2472 334.568 L9.0918 334.568 L9.0918 331.569 Z" fill="#000000" fill-rule="evenodd" fill-opacity="1" /><path clip-path="url(#clip270)" d="M14.2472 321.5 L14.2472 318.517 L32.4048 318.517 L32.4048 321.5 L14.2472 321.5 M7.17878 321.5 L7.17878 318.517 L10.9562 318.517 L10.9562 321.5 L7.17878 321.5 Z" fill="#000000" fill-rule="evenodd" fill-opacity="1" /><path clip-path="url(#clip270)" d="M9.0918 309.324 L14.2472 309.324 L14.2472 303.179 L16.5656 303.179 L16.5656 309.324 L26.4225 309.324 Q28.6436 309.324 29.2758 308.724 Q29.9081 308.108 29.9081 306.243 L29.9081 303.179 L32.4048 303.179 L32.4048 306.243 Q32.4048 309.697 31.124 311.01 Q29.827 312.323 26.4225 312.323 L16.5656 312.323 L16.5656 314.512 L14.2472 314.512 L14.2472 312.323 L9.0918 312.323 L9.0918 309.324 Z" fill="#000000" fill-rule="evenodd" fill-opacity="1" /><path clip-path="url(#clip270)" d="M34.0908 291.7 Q37.3332 292.965 38.3222 294.164 Q39.3111 295.364 39.3111 297.375 L39.3111 299.758 L36.8144 299.758 L36.8144 298.007 Q36.8144 296.775 36.2308 296.094 Q35.6472 295.413 33.4748 294.586 L32.1129 294.051 L14.2472 301.396 L14.2472 298.234 L28.449 292.559 L14.2472 286.885 L14.2472 283.723 L34.0908 291.7 Z" fill="#000000" fill-rule="evenodd" fill-opacity="1" /><path clip-path="url(#clip270)" d="M16.3386 262.013 Q16.3386 264.413 18.2192 265.807 Q20.0836 267.201 23.3422 267.201 Q26.6008 267.201 28.4814 265.823 Q30.3458 264.429 30.3458 262.013 Q30.3458 259.63 28.4652 258.235 Q26.5846 256.841 23.3422 256.841 Q20.116 256.841 18.2354 258.235 Q16.3386 259.63 16.3386 262.013 M13.8095 262.013 Q13.8095 258.122 16.3386 255.901 Q18.8677 253.679 23.3422 253.679 Q27.8005 253.679 30.3458 255.901 Q32.8749 258.122 32.8749 262.013 Q32.8749 265.921 30.3458 268.142 Q27.8005 270.347 23.3422 270.347 Q18.8677 270.347 16.3386 268.142 Q13.8095 265.921 13.8095 262.013 Z" fill="#000000" fill-rule="evenodd" fill-opacity="1" /><path clip-path="url(#clip270)" d="M7.17878 239.541 L9.65922 239.541 L9.65922 242.395 Q9.65922 244 10.3077 244.632 Q10.9562 245.248 12.6422 245.248 L14.2472 245.248 L14.2472 240.336 L16.5656 240.336 L16.5656 245.248 L32.4048 245.248 L32.4048 248.248 L16.5656 248.248 L16.5656 251.102 L14.2472 251.102 L14.2472 248.248 L12.9827 248.248 Q9.95104 248.248 8.57301 246.837 Q7.17878 245.427 7.17878 242.363 L7.17878 239.541 Z" fill="#000000" fill-rule="evenodd" fill-opacity="1" /><path clip-path="url(#clip270)" d="M14.2472 226.49 L14.2472 223.506 L32.4048 223.506 L32.4048 226.49 L14.2472 226.49 M7.17878 226.49 L7.17878 223.506 L10.9562 223.506 L10.9562 226.49 L7.17878 226.49 Z" fill="#000000" fill-rule="evenodd" fill-opacity="1" /><path clip-path="url(#clip270)" d="M21.4454 202.169 L32.4048 202.169 L32.4048 205.153 L21.5427 205.153 Q18.965 205.153 17.6842 206.158 Q16.4034 207.163 16.4034 209.174 Q16.4034 211.589 17.9436 212.984 Q19.4837 214.378 22.1425 214.378 L32.4048 214.378 L32.4048 217.378 L14.2472 217.378 L14.2472 214.378 L17.0681 214.378 Q15.4307 213.308 14.6201 211.865 Q13.8095 210.406 13.8095 208.509 Q13.8095 205.38 15.755 203.775 Q17.6842 202.169 21.4454 202.169 Z" fill="#000000" fill-rule="evenodd" fill-opacity="1" /><path clip-path="url(#clip270)" d="M9.0918 193.268 L14.2472 193.268 L14.2472 187.123 L16.5656 187.123 L16.5656 193.268 L26.4225 193.268 Q28.6436 193.268 29.2758 192.668 Q29.9081 192.052 29.9081 190.188 L29.9081 187.123 L32.4048 187.123 L32.4048 190.188 Q32.4048 193.641 31.124 194.954 Q29.827 196.268 26.4225 196.268 L16.5656 196.268 L16.5656 198.457 L14.2472 198.457 L14.2472 196.268 L9.0918 196.268 L9.0918 193.268 Z" fill="#000000" fill-rule="evenodd" fill-opacity="1" /><path clip-path="url(#clip270)" d="M22.5802 167.667 L24.0393 167.667 L24.0393 181.384 Q27.1196 181.189 28.7408 179.536 Q30.3458 177.866 30.3458 174.899 Q30.3458 173.18 29.9243 171.575 Q29.5028 169.953 28.6598 168.365 L31.4807 168.365 Q32.1616 169.97 32.5182 171.656 Q32.8749 173.342 32.8749 175.077 Q32.8749 179.422 30.3458 181.968 Q27.8167 184.497 23.5043 184.497 Q19.046 184.497 16.4359 182.097 Q13.8095 179.681 13.8095 175.596 Q13.8095 171.931 16.1765 169.808 Q18.5272 167.667 22.5802 167.667 M21.7048 170.651 Q19.2568 170.683 17.7977 172.029 Q16.3386 173.358 16.3386 175.563 Q16.3386 178.06 17.749 179.568 Q19.1595 181.06 21.721 181.287 L21.7048 170.651 Z" fill="#000000" fill-rule="evenodd" fill-opacity="1" /><path clip-path="url(#clip270)" d="M17.0357 152.248 Q16.7439 152.751 16.6142 153.351 Q16.4683 153.935 16.4683 154.648 Q16.4683 157.177 18.1219 158.539 Q19.7593 159.885 22.8396 159.885 L32.4048 159.885 L32.4048 162.884 L14.2472 162.884 L14.2472 159.885 L17.0681 159.885 Q15.4145 158.945 14.6201 157.437 Q13.8095 155.929 13.8095 153.772 Q13.8095 153.464 13.8581 153.091 Q13.8906 152.719 13.9716 152.265 L17.0357 152.248 Z" fill="#000000" fill-rule="evenodd" fill-opacity="1" /><path clip-path="url(#clip270)" d="M22.5802 134.316 L24.0393 134.316 L24.0393 148.033 Q27.1196 147.838 28.7408 146.185 Q30.3458 144.515 30.3458 141.548 Q30.3458 139.829 29.9243 138.224 Q29.5028 136.602 28.6598 135.014 L31.4807 135.014 Q32.1616 136.619 32.5182 138.305 Q32.8749 139.991 32.8749 141.726 Q32.8749 146.071 30.3458 148.617 Q27.8167 151.146 23.5043 151.146 Q19.046 151.146 16.4359 148.746 Q13.8095 146.33 13.8095 142.245 Q13.8095 138.58 16.1765 136.457 Q18.5272 134.316 22.5802 134.316 M21.7048 137.3 Q19.2568 137.332 17.7977 138.678 Q16.3386 140.007 16.3386 142.212 Q16.3386 144.709 17.749 146.217 Q19.1595 147.709 21.721 147.936 L21.7048 137.3 Z" fill="#000000" fill-rule="evenodd" fill-opacity="1" /><path clip-path="url(#clip270)" d="M14.7822 117.844 L17.6031 117.844 Q16.9547 119.108 16.6304 120.47 Q16.3062 121.832 16.3062 123.291 Q16.3062 125.512 16.9871 126.631 Q17.668 127.734 19.0298 127.734 Q20.0674 127.734 20.6672 126.939 Q21.2509 126.145 21.7859 123.745 L22.0128 122.724 Q22.6937 119.546 23.9421 118.216 Q25.1742 116.871 27.3952 116.871 Q29.9243 116.871 31.3996 118.881 Q32.8749 120.875 32.8749 124.378 Q32.8749 125.837 32.5831 127.426 Q32.3075 128.998 31.7401 130.749 L28.6598 130.749 Q29.519 129.096 29.9567 127.491 Q30.3782 125.885 30.3782 124.313 Q30.3782 122.205 29.6649 121.07 Q28.9354 119.935 27.6222 119.935 Q26.4063 119.935 25.7578 120.762 Q25.1093 121.573 24.5095 124.345 L24.2663 125.383 Q23.6827 128.155 22.483 129.387 Q21.2671 130.62 19.1595 130.62 Q16.598 130.62 15.2038 128.804 Q13.8095 126.988 13.8095 123.648 Q13.8095 121.994 14.0527 120.535 Q14.2959 119.076 14.7822 117.844 Z" fill="#000000" fill-rule="evenodd" fill-opacity="1" /><path clip-path="url(#clip270)" d="M9.0918 109.169 L14.2472 109.169 L14.2472 103.024 L16.5656 103.024 L16.5656 109.169 L26.4225 109.169 Q28.6436 109.169 29.2758 108.569 Q29.9081 107.953 29.9081 106.089 L29.9081 103.024 L32.4048 103.024 L32.4048 106.089 Q32.4048 109.542 31.124 110.856 Q29.827 112.169 26.4225 112.169 L16.5656 112.169 L16.5656 114.358 L14.2472 114.358 L14.2472 112.169 L9.0918 112.169 L9.0918 109.169 Z" fill="#000000" fill-rule="evenodd" fill-opacity="1" /><polyline clip-path="url(#clip272)" style="stroke:#009af9; stroke-linecap:butt; stroke-linejoin:round; stroke-width:2.80169; stroke-opacity:1; fill:none" points="
  122.603,365.066 130.218,374.985 137.833,379.75 145.447,387.714 153.062,384.884 160.677,388.23 168.291,386.371 175.906,374.738 183.52,372.105 191.135,399.679 
  198.75,428.751 206.364,442.909 213.979,445.28 221.594,466.016 229.208,481.239 236.823,476.046 244.438,454.335 252.052,471.325 259.667,462.607 267.282,463.629 
  274.896,461.92 282.511,473.149 290.125,478.141 297.74,462.265 305.355,456.39 312.969,463.727 320.584,477.799 328.199,462.377 335.813,450.653 343.428,439.8 
  351.043,413.595 358.657,385.985 366.272,399.339 373.887,413.682 381.501,416.1 389.116,413.05 396.731,399.16 404.345,421.514 411.96,413.52 419.574,407.497 
  427.189,383.613 434.804,379.066 442.418,380.562 450.033,367.52 457.648,361.482 465.262,367.624 472.877,382.857 480.492,389.895 488.106,396.069 495.721,386.299 
  503.336,384.993 510.95,382.096 518.565,376.599 526.18,384.608 533.794,398.777 541.409,421.07 549.023,422.257 556.638,432.233 564.253,432.605 571.867,427.573 
  579.482,426.984 587.097,394.369 594.711,391.181 602.326,377.653 609.941,386.679 617.555,388.139 625.17,379.894 632.785,374.674 640.399,367.6 648.014,394.899 
  655.629,414.762 663.243,413.335 670.858,419.476 678.472,428.494 686.087,438.246 693.702,452.187 701.316,465.496 708.931,425.85 716.546,414.443 724.16,423.006 
  731.775,436.466 739.39,429.651 747.004,437.235 754.619,437.114 762.234,405.306 769.848,388.756 777.463,391.863 785.078,404.47 792.692,394.398 800.307,380.122 
  807.921,422.531 815.536,397.424 823.151,385.426 830.765,392.408 838.38,394.977 845.995,370.433 853.609,366.83 861.224,352.286 868.839,345.598 876.453,348.586 
  884.068,356.997 
  "/>
<polyline clip-path="url(#clip272)" style="stroke:#e26f46; stroke-linecap:butt; stroke-linejoin:round; stroke-width:2.80169; stroke-opacity:1; fill:none" points="
  122.603,348.099 130.218,363.425 137.833,375.985 145.447,365.127 153.062,357.24 160.677,345.641 168.291,352.11 175.906,368.485 183.52,332.976 191.135,326.521 
  198.75,310.874 206.364,317.539 213.979,333.069 221.594,331.034 229.208,321.054 236.823,357.603 244.438,359.666 252.052,365.668 259.667,341.694 267.282,340.128 
  274.896,340.054 282.511,341.34 290.125,325.979 297.74,341.32 305.355,342.894 312.969,341.593 320.584,365.948 328.199,361.257 335.813,340.129 343.428,358.786 
  351.043,340.771 358.657,338.257 366.272,342.522 373.887,340.911 381.501,338.884 389.116,314.336 396.731,303.347 404.345,303.938 411.96,305.266 419.574,302.082 
  427.189,310.727 434.804,294.176 442.418,311.46 450.033,290.446 457.648,275.175 465.262,261.296 472.877,251.018 480.492,232.118 488.106,241.206 495.721,211.059 
  503.336,194.516 510.95,196.59 518.565,188.274 526.18,184.089 533.794,174.848 541.409,169.447 549.023,185.549 556.638,175.1 564.253,172.585 571.867,143.002 
  579.482,152.534 587.097,132.487 594.711,151.578 602.326,167.56 609.941,141.911 617.555,152.842 625.17,185.854 632.785,174.437 640.399,180.672 648.014,169.78 
  655.629,170.123 663.243,171.668 670.858,135.443 678.472,135.885 686.087,124.188 693.702,115.337 701.316,114.182 708.931,106.253 716.546,95.7399 724.16,103.426 
  731.775,92.5324 739.39,109.94 747.004,121.882 754.619,105.184 762.234,124.529 769.848,126.795 777.463,135.257 785.078,161.231 792.692,151.732 800.307,162.582 
  807.921,170.493 815.536,182.563 823.151,169.655 830.765,169.831 838.38,184.847 845.995,177.727 853.609,201.749 861.224,219.105 868.839,197.071 876.453,196.639 
  884.068,186.811 
  "/>
<polyline clip-path="url(#clip272)" style="stroke:#3da44d; stroke-linecap:butt; stroke-linejoin:round; stroke-width:2.80169; stroke-opacity:1; fill:none" points="
  122.603,360.63 130.218,361.881 137.833,372.956 145.447,390.63 153.062,387.053 160.677,368.277 168.291,389.124 175.906,373.253 183.52,363.114 191.135,354.383 
  198.75,358.06 206.364,357.739 213.979,356.52 221.594,363.283 229.208,353.764 236.823,345.438 244.438,335.086 252.052,320.143 259.667,315.834 267.282,316.372 
  274.896,330.181 282.511,311.62 290.125,304.239 297.74,285.62 305.355,319.74 312.969,316.816 320.584,314.164 328.199,299.824 335.813,278.807 343.428,292.939 
  351.043,300.966 358.657,305.904 366.272,307.465 373.887,297.445 381.501,308.728 389.116,321.551 396.731,333.852 404.345,342.326 411.96,347.751 419.574,341.937 
  427.189,331.852 434.804,316.944 442.418,319.277 450.033,301.082 457.648,305.474 465.262,277.063 472.877,275.754 480.492,274.853 488.106,265.766 495.721,239.418 
  503.336,252.458 510.95,251.519 518.565,258.977 526.18,258.731 533.794,244.897 541.409,235.08 549.023,228.167 556.638,232.759 564.253,242.482 571.867,234.196 
  579.482,237.687 587.097,208.779 594.711,180.618 602.326,171.667 609.941,148.293 617.555,150.885 625.17,150.111 632.785,159.775 640.399,167.08 648.014,174.7 
  655.629,152.301 663.243,173.009 670.858,145.822 678.472,151.865 686.087,136.933 693.702,146.158 701.316,141.396 708.931,150.284 716.546,163.142 724.16,138.247 
  731.775,156.151 739.39,156.394 747.004,144.917 754.619,112.923 762.234,120.239 769.848,125.276 777.463,121.741 785.078,105.878 792.692,85.3891 800.307,81.4178 
  807.921,53.286 815.536,46.1437 823.151,52.087 830.765,74.8573 838.38,71.1932 845.995,67.2166 853.609,66.3047 861.224,63.5632 868.839,68.8373 876.453,54.095 
  884.068,69.3589 
  "/>
<polyline clip-path="url(#clip272)" style="stroke:#c271d2; stroke-linecap:butt; stroke-linejoin:round; stroke-width:2.80169; stroke-opacity:1; fill:none" points="
  122.603,378.737 130.218,371.584 137.833,396.275 145.447,411.022 153.062,421.145 160.677,420.478 168.291,402.586 175.906,403.246 183.52,406.515 191.135,379.016 
  198.75,355.598 206.364,350.862 213.979,336.352 221.594,316.053 229.208,319.577 236.823,282.303 244.438,274.094 252.052,267.59 259.667,224.323 267.282,223.5 
  274.896,230.175 282.511,223.155 290.125,224.412 297.74,254.134 305.355,265.728 312.969,271.964 320.584,295.505 328.199,307.2 335.813,299.121 343.428,314.681 
  351.043,325.29 358.657,338.739 366.272,347.254 373.887,374.532 381.501,372.413 389.116,349.22 396.731,345.678 404.345,348.075 411.96,345.017 419.574,354.517 
  427.189,340.386 434.804,347.786 442.418,357.639 450.033,366.005 457.648,370.825 465.262,380.186 472.877,364.387 480.492,380.097 488.106,359.485 495.721,381.663 
  503.336,398.416 510.95,416.541 518.565,397.834 526.18,392.572 533.794,380.984 541.409,378.873 549.023,380.359 556.638,358.852 564.253,350.409 571.867,351.439 
  579.482,341.925 587.097,353.196 594.711,351.402 602.326,377.606 609.941,392.114 617.555,383.557 625.17,375.415 632.785,362.444 640.399,368.251 648.014,358.583 
  655.629,394.613 663.243,381.674 670.858,383.865 678.472,369.873 686.087,368.595 693.702,384.4 701.316,388.585 708.931,386.327 716.546,370.609 724.16,361.94 
  731.775,368.668 739.39,379.452 747.004,405.164 754.619,411.347 762.234,387.46 769.848,376.905 777.463,376.984 785.078,372.744 792.692,367.07 800.307,368.496 
  807.921,363.181 815.536,359.621 823.151,358.123 830.765,344.476 838.38,357.625 845.995,376.187 853.609,371.295 861.224,380.556 868.839,388.546 876.453,412.811 
  884.068,408.504 
  "/>
<path clip-path="url(#clip270)" d="
M683.34 230.014 L880.007 230.014 L880.007 48.4642 L683.34 48.4642  Z
  " fill="#ffffff" fill-rule="evenodd" fill-opacity="1"/>
<polyline clip-path="url(#clip270)" style="stroke:#000000; stroke-linecap:butt; stroke-linejoin:round; stroke-width:2.80169; stroke-opacity:1; fill:none" points="
  683.34,230.014 880.007,230.014 880.007,48.4642 683.34,48.4642 683.34,230.014 
  "/>
<polyline clip-path="url(#clip270)" style="stroke:#009af9; stroke-linecap:butt; stroke-linejoin:round; stroke-width:2.80169; stroke-opacity:1; fill:none" points="
  692.308,84.7741 746.118,84.7741 
  "/>
<path clip-path="url(#clip270)" d="M755.087 71.6494 L758.07 71.6494 L758.07 96.8774 L755.087 96.8774 L755.087 71.6494 Z" fill="#000000" fill-rule="evenodd" fill-opacity="1" /><path clip-path="url(#clip270)" d="M772.563 87.7493 Q768.948 87.7493 767.554 88.5762 Q766.159 89.4031 766.159 91.3973 Q766.159 92.9862 767.197 93.9266 Q768.251 94.8508 770.05 94.8508 Q772.531 94.8508 774.022 93.0997 Q775.53 91.3325 775.53 88.414 L775.53 87.7493 L772.563 87.7493 M778.513 86.5171 L778.513 96.8774 L775.53 96.8774 L775.53 94.1212 Q774.509 95.7749 772.985 96.5694 Q771.461 97.3476 769.256 97.3476 Q766.468 97.3476 764.814 95.7912 Q763.176 94.2184 763.176 91.5919 Q763.176 88.5275 765.219 86.9711 Q767.278 85.4146 771.347 85.4146 L775.53 85.4146 L775.53 85.1227 Q775.53 83.0636 774.168 81.9449 Q772.823 80.81 770.375 80.81 Q768.818 80.81 767.343 81.1829 Q765.868 81.5558 764.506 82.3016 L764.506 79.5453 Q766.143 78.913 767.683 78.6049 Q769.224 78.2807 770.683 78.2807 Q774.622 78.2807 776.568 80.3236 Q778.513 82.3664 778.513 86.5171 Z" fill="#000000" fill-rule="evenodd" fill-opacity="1" /><path clip-path="url(#clip270)" d="M797.692 87.8142 Q797.692 84.5228 796.33 82.6583 Q794.985 80.7775 792.618 80.7775 Q790.251 80.7775 788.889 82.6583 Q787.543 84.5228 787.543 87.8142 Q787.543 91.1055 788.889 92.9862 Q790.251 94.8508 792.618 94.8508 Q794.985 94.8508 796.33 92.9862 Q797.692 91.1055 797.692 87.8142 M787.543 81.4747 Q788.484 79.8534 789.91 79.0751 Q791.353 78.2807 793.347 78.2807 Q796.654 78.2807 798.713 80.9072 Q800.788 83.5338 800.788 87.8142 Q800.788 92.0945 798.713 94.7211 Q796.654 97.3476 793.347 97.3476 Q791.353 97.3476 789.91 96.5694 Q788.484 95.7749 787.543 94.1536 L787.543 96.8774 L784.544 96.8774 L784.544 71.6494 L787.543 71.6494 L787.543 81.4747 Z" fill="#000000" fill-rule="evenodd" fill-opacity="1" /><path clip-path="url(#clip270)" d="M821.264 87.0521 L821.264 88.5113 L807.549 88.5113 Q807.743 91.5919 809.397 93.2132 Q811.067 94.8183 814.034 94.8183 Q815.752 94.8183 817.357 94.3968 Q818.978 93.9752 820.567 93.1322 L820.567 95.9533 Q818.962 96.6342 817.276 96.9909 Q815.59 97.3476 813.855 97.3476 Q809.511 97.3476 806.965 94.8183 Q804.436 92.2891 804.436 87.9763 Q804.436 83.5176 806.836 80.9072 Q809.251 78.2807 813.337 78.2807 Q817.001 78.2807 819.124 80.6478 Q821.264 82.9988 821.264 87.0521 M818.281 86.1766 Q818.249 83.7284 816.903 82.2692 Q815.574 80.81 813.369 80.81 Q810.872 80.81 809.365 82.2205 Q807.873 83.6311 807.646 86.1928 L818.281 86.1766 Z" fill="#000000" fill-rule="evenodd" fill-opacity="1" /><path clip-path="url(#clip270)" d="M826.16 71.6494 L829.143 71.6494 L829.143 96.8774 L826.16 96.8774 L826.16 71.6494 Z" fill="#000000" fill-rule="evenodd" fill-opacity="1" /><path clip-path="url(#clip270)" d="M846.928 94.1212 L852.278 94.1212 L852.278 75.6541 L846.458 76.8215 L846.458 73.8382 L852.246 72.6708 L855.52 72.6708 L855.52 94.1212 L860.87 94.1212 L860.87 96.8774 L846.928 96.8774 L846.928 94.1212 Z" fill="#000000" fill-rule="evenodd" fill-opacity="1" /><polyline clip-path="url(#clip270)" style="stroke:#e26f46; stroke-linecap:butt; stroke-linejoin:round; stroke-width:2.80169; stroke-opacity:1; fill:none" points="
  692.308,121.084 746.118,121.084 
  "/>
<path clip-path="url(#clip270)" d="M755.087 107.959 L758.07 107.959 L758.07 133.187 L755.087 133.187 L755.087 107.959 Z" fill="#000000" fill-rule="evenodd" fill-opacity="1" /><path clip-path="url(#clip270)" d="M772.563 124.059 Q768.948 124.059 767.554 124.886 Q766.159 125.713 766.159 127.707 Q766.159 129.296 767.197 130.237 Q768.251 131.161 770.05 131.161 Q772.531 131.161 774.022 129.41 Q775.53 127.642 775.53 124.724 L775.53 124.059 L772.563 124.059 M778.513 122.827 L778.513 133.187 L775.53 133.187 L775.53 130.431 Q774.509 132.085 772.985 132.879 Q771.461 133.658 769.256 133.658 Q766.468 133.658 764.814 132.101 Q763.176 130.528 763.176 127.902 Q763.176 124.837 765.219 123.281 Q767.278 121.724 771.347 121.724 L775.53 121.724 L775.53 121.433 Q775.53 119.374 774.168 118.255 Q772.823 117.12 770.375 117.12 Q768.818 117.12 767.343 117.493 Q765.868 117.866 764.506 118.612 L764.506 115.855 Q766.143 115.223 767.683 114.915 Q769.224 114.591 770.683 114.591 Q774.622 114.591 776.568 116.633 Q778.513 118.676 778.513 122.827 Z" fill="#000000" fill-rule="evenodd" fill-opacity="1" /><path clip-path="url(#clip270)" d="M797.692 124.124 Q797.692 120.833 796.33 118.968 Q794.985 117.087 792.618 117.087 Q790.251 117.087 788.889 118.968 Q787.543 120.833 787.543 124.124 Q787.543 127.415 788.889 129.296 Q790.251 131.161 792.618 131.161 Q794.985 131.161 796.33 129.296 Q797.692 127.415 797.692 124.124 M787.543 117.785 Q788.484 116.163 789.91 115.385 Q791.353 114.591 793.347 114.591 Q796.654 114.591 798.713 117.217 Q800.788 119.844 800.788 124.124 Q800.788 128.404 798.713 131.031 Q796.654 133.658 793.347 133.658 Q791.353 133.658 789.91 132.879 Q788.484 132.085 787.543 130.464 L787.543 133.187 L784.544 133.187 L784.544 107.959 L787.543 107.959 L787.543 117.785 Z" fill="#000000" fill-rule="evenodd" fill-opacity="1" /><path clip-path="url(#clip270)" d="M821.264 123.362 L821.264 124.821 L807.549 124.821 Q807.743 127.902 809.397 129.523 Q811.067 131.128 814.034 131.128 Q815.752 131.128 817.357 130.707 Q818.978 130.285 820.567 129.442 L820.567 132.263 Q818.962 132.944 817.276 133.301 Q815.59 133.658 813.855 133.658 Q809.511 133.658 806.965 131.128 Q804.436 128.599 804.436 124.286 Q804.436 119.828 806.836 117.217 Q809.251 114.591 813.337 114.591 Q817.001 114.591 819.124 116.958 Q821.264 119.309 821.264 123.362 M818.281 122.487 Q818.249 120.038 816.903 118.579 Q815.574 117.12 813.369 117.12 Q810.872 117.12 809.365 118.53 Q807.873 119.941 807.646 122.503 L818.281 122.487 Z" fill="#000000" fill-rule="evenodd" fill-opacity="1" /><path clip-path="url(#clip270)" d="M826.16 107.959 L829.143 107.959 L829.143 133.187 L826.16 133.187 L826.16 107.959 Z" fill="#000000" fill-rule="evenodd" fill-opacity="1" /><path clip-path="url(#clip270)" d="M849.181 130.431 L860.611 130.431 L860.611 133.187 L845.242 133.187 L845.242 130.431 Q847.106 128.502 850.316 125.259 Q853.543 122 854.369 121.06 Q855.942 119.292 856.558 118.076 Q857.19 116.844 857.19 115.661 Q857.19 113.731 855.828 112.515 Q854.483 111.299 852.31 111.299 Q850.77 111.299 849.052 111.834 Q847.35 112.369 845.404 113.456 L845.404 110.148 Q847.382 109.354 849.1 108.948 Q850.819 108.543 852.246 108.543 Q856.007 108.543 858.244 110.424 Q860.481 112.305 860.481 115.45 Q860.481 116.942 859.914 118.287 Q859.363 119.617 857.887 121.433 Q857.482 121.903 855.31 124.157 Q853.137 126.394 849.181 130.431 Z" fill="#000000" fill-rule="evenodd" fill-opacity="1" /><polyline clip-path="url(#clip270)" style="stroke:#3da44d; stroke-linecap:butt; stroke-linejoin:round; stroke-width:2.80169; stroke-opacity:1; fill:none" points="
  692.308,157.394 746.118,157.394 
  "/>
<path clip-path="url(#clip270)" d="M755.087 144.269 L758.07 144.269 L758.07 169.497 L755.087 169.497 L755.087 144.269 Z" fill="#000000" fill-rule="evenodd" fill-opacity="1" /><path clip-path="url(#clip270)" d="M772.563 160.369 Q768.948 160.369 767.554 161.196 Q766.159 162.023 766.159 164.017 Q766.159 165.606 767.197 166.546 Q768.251 167.471 770.05 167.471 Q772.531 167.471 774.022 165.72 Q775.53 163.952 775.53 161.034 L775.53 160.369 L772.563 160.369 M778.513 159.137 L778.513 169.497 L775.53 169.497 L775.53 166.741 Q774.509 168.395 772.985 169.189 Q771.461 169.967 769.256 169.967 Q766.468 169.967 764.814 168.411 Q763.176 166.838 763.176 164.212 Q763.176 161.147 765.219 159.591 Q767.278 158.034 771.347 158.034 L775.53 158.034 L775.53 157.743 Q775.53 155.683 774.168 154.565 Q772.823 153.43 770.375 153.43 Q768.818 153.43 767.343 153.803 Q765.868 154.176 764.506 154.921 L764.506 152.165 Q766.143 151.533 767.683 151.225 Q769.224 150.901 770.683 150.901 Q774.622 150.901 776.568 152.943 Q778.513 154.986 778.513 159.137 Z" fill="#000000" fill-rule="evenodd" fill-opacity="1" /><path clip-path="url(#clip270)" d="M797.692 160.434 Q797.692 157.143 796.33 155.278 Q794.985 153.397 792.618 153.397 Q790.251 153.397 788.889 155.278 Q787.543 157.143 787.543 160.434 Q787.543 163.725 788.889 165.606 Q790.251 167.471 792.618 167.471 Q794.985 167.471 796.33 165.606 Q797.692 163.725 797.692 160.434 M787.543 154.095 Q788.484 152.473 789.91 151.695 Q791.353 150.901 793.347 150.901 Q796.654 150.901 798.713 153.527 Q800.788 156.154 800.788 160.434 Q800.788 164.714 798.713 167.341 Q796.654 169.967 793.347 169.967 Q791.353 169.967 789.91 169.189 Q788.484 168.395 787.543 166.773 L787.543 169.497 L784.544 169.497 L784.544 144.269 L787.543 144.269 L787.543 154.095 Z" fill="#000000" fill-rule="evenodd" fill-opacity="1" /><path clip-path="url(#clip270)" d="M821.264 159.672 L821.264 161.131 L807.549 161.131 Q807.743 164.212 809.397 165.833 Q811.067 167.438 814.034 167.438 Q815.752 167.438 817.357 167.017 Q818.978 166.595 820.567 165.752 L820.567 168.573 Q818.962 169.254 817.276 169.611 Q815.59 169.967 813.855 169.967 Q809.511 169.967 806.965 167.438 Q804.436 164.909 804.436 160.596 Q804.436 156.137 806.836 153.527 Q809.251 150.901 813.337 150.901 Q817.001 150.901 819.124 153.268 Q821.264 155.619 821.264 159.672 M818.281 158.796 Q818.249 156.348 816.903 154.889 Q815.574 153.43 813.369 153.43 Q810.872 153.43 809.365 154.84 Q807.873 156.251 807.646 158.813 L818.281 158.796 Z" fill="#000000" fill-rule="evenodd" fill-opacity="1" /><path clip-path="url(#clip270)" d="M826.16 144.269 L829.143 144.269 L829.143 169.497 L826.16 169.497 L826.16 144.269 Z" fill="#000000" fill-rule="evenodd" fill-opacity="1" /><path clip-path="url(#clip270)" d="M856.282 156.446 Q858.633 156.948 859.946 158.537 Q861.276 160.126 861.276 162.461 Q861.276 166.044 858.811 168.006 Q856.347 169.967 851.808 169.967 Q850.284 169.967 848.663 169.659 Q847.058 169.368 845.339 168.768 L845.339 165.606 Q846.701 166.401 848.322 166.806 Q849.943 167.211 851.711 167.211 Q854.791 167.211 856.396 165.995 Q858.017 164.779 858.017 162.461 Q858.017 160.321 856.509 159.121 Q855.018 157.905 852.343 157.905 L849.522 157.905 L849.522 155.213 L852.473 155.213 Q854.888 155.213 856.169 154.257 Q857.45 153.284 857.45 151.468 Q857.45 149.603 856.12 148.614 Q854.807 147.609 852.343 147.609 Q850.997 147.609 849.457 147.901 Q847.917 148.193 846.069 148.809 L846.069 145.891 Q847.933 145.372 849.554 145.112 Q851.192 144.853 852.635 144.853 Q856.363 144.853 858.536 146.555 Q860.708 148.242 860.708 151.128 Q860.708 153.138 859.557 154.532 Q858.406 155.91 856.282 156.446 Z" fill="#000000" fill-rule="evenodd" fill-opacity="1" /><polyline clip-path="url(#clip270)" style="stroke:#c271d2; stroke-linecap:butt; stroke-linejoin:round; stroke-width:2.80169; stroke-opacity:1; fill:none" points="
  692.308,193.704 746.118,193.704 
  "/>
<path clip-path="url(#clip270)" d="M755.087 180.579 L758.07 180.579 L758.07 205.807 L755.087 205.807 L755.087 180.579 Z" fill="#000000" fill-rule="evenodd" fill-opacity="1" /><path clip-path="url(#clip270)" d="M772.563 196.679 Q768.948 196.679 767.554 197.506 Q766.159 198.333 766.159 200.327 Q766.159 201.916 767.197 202.856 Q768.251 203.781 770.05 203.781 Q772.531 203.781 774.022 202.03 Q775.53 200.262 775.53 197.344 L775.53 196.679 L772.563 196.679 M778.513 195.447 L778.513 205.807 L775.53 205.807 L775.53 203.051 Q774.509 204.705 772.985 205.499 Q771.461 206.277 769.256 206.277 Q766.468 206.277 764.814 204.721 Q763.176 203.148 763.176 200.522 Q763.176 197.457 765.219 195.901 Q767.278 194.344 771.347 194.344 L775.53 194.344 L775.53 194.053 Q775.53 191.993 774.168 190.875 Q772.823 189.74 770.375 189.74 Q768.818 189.74 767.343 190.113 Q765.868 190.486 764.506 191.231 L764.506 188.475 Q766.143 187.843 767.683 187.535 Q769.224 187.21 770.683 187.21 Q774.622 187.21 776.568 189.253 Q778.513 191.296 778.513 195.447 Z" fill="#000000" fill-rule="evenodd" fill-opacity="1" /><path clip-path="url(#clip270)" d="M797.692 196.744 Q797.692 193.453 796.33 191.588 Q794.985 189.707 792.618 189.707 Q790.251 189.707 788.889 191.588 Q787.543 193.453 787.543 196.744 Q787.543 200.035 788.889 201.916 Q790.251 203.781 792.618 203.781 Q794.985 203.781 796.33 201.916 Q797.692 200.035 797.692 196.744 M787.543 190.404 Q788.484 188.783 789.91 188.005 Q791.353 187.21 793.347 187.21 Q796.654 187.21 798.713 189.837 Q800.788 192.464 800.788 196.744 Q800.788 201.024 798.713 203.651 Q796.654 206.277 793.347 206.277 Q791.353 206.277 789.91 205.499 Q788.484 204.705 787.543 203.083 L787.543 205.807 L784.544 205.807 L784.544 180.579 L787.543 180.579 L787.543 190.404 Z" fill="#000000" fill-rule="evenodd" fill-opacity="1" /><path clip-path="url(#clip270)" d="M821.264 195.982 L821.264 197.441 L807.549 197.441 Q807.743 200.522 809.397 202.143 Q811.067 203.748 814.034 203.748 Q815.752 203.748 817.357 203.327 Q818.978 202.905 820.567 202.062 L820.567 204.883 Q818.962 205.564 817.276 205.921 Q815.59 206.277 813.855 206.277 Q809.511 206.277 806.965 203.748 Q804.436 201.219 804.436 196.906 Q804.436 192.447 806.836 189.837 Q809.251 187.21 813.337 187.21 Q817.001 187.21 819.124 189.578 Q821.264 191.929 821.264 195.982 M818.281 195.106 Q818.249 192.658 816.903 191.199 Q815.574 189.74 813.369 189.74 Q810.872 189.74 809.365 191.15 Q807.873 192.561 807.646 195.123 L818.281 195.106 Z" fill="#000000" fill-rule="evenodd" fill-opacity="1" /><path clip-path="url(#clip270)" d="M826.16 180.579 L829.143 180.579 L829.143 205.807 L826.16 205.807 L826.16 180.579 Z" fill="#000000" fill-rule="evenodd" fill-opacity="1" /><path clip-path="url(#clip270)" d="M855.358 184.454 L847.09 197.376 L855.358 197.376 L855.358 184.454 M854.499 181.601 L858.617 181.601 L858.617 197.376 L862.07 197.376 L862.07 200.1 L858.617 200.1 L858.617 205.807 L855.358 205.807 L855.358 200.1 L844.431 200.1 L844.431 196.939 L854.499 181.601 Z" fill="#000000" fill-rule="evenodd" fill-opacity="1" /></svg>
